<svg id="Apple" xmlns="http://www.w3.org/2000/svg" xmlns:xlink="http://www.w3.org/1999/xlink" version="1.1" viewBox="0 0 451 499.9">
  <defs>
    <style>
      .cls-1 {
        fill: #4eb748;
      }

      .cls-1, .cls-2, .cls-3, .cls-4, .cls-5, .cls-6, .cls-7, .cls-8, .cls-9 {
        stroke-width: 0px;
      }

      .cls-2 {
        fill: #119f49;
      }

      .cls-10 {
        clip-path: url(#clippath);
      }

      .cls-3 {
        fill: none;
      }

      .cls-11 {
        clip-path: url(#clippath-1);
      }

      .cls-4 {
        fill: #ed1c24;
      }

      .cls-5 {
        fill: #f9ae92;
      }

      .cls-6 {
        fill: #d02027;
      }

      .cls-7 {
        fill: #8f4620;
      }

      .cls-8 {
        fill: #8e451f;
      }

      .cls-9 {
        fill: #6b2b12;
      }
      <!-- add my custome css-->
      
       #Apple:hover .cls-4{
        fill: #8e451f;
      }

      #Apple:hover .cls-6{
        fill: #6b2b12;
      }

      #Apple:hover .cls-5{
        fill: #fff;
      }

      #Apple:hover #leaf_top{
        fill: #7E7E7E;
        transform:rotate(360deg)
      }
      #leaf_top{
        transition: all 0.5s ease-in-out;
        transform-origin: center;
      }
      

      #Apple:hover #leaf_base{
        fill: #A9A9A9;
        transform:rotate(360deg)

      }
      #leaf_base{
        transition: all 0.5s ease-in-out;
        transform-origin: center;
      }
    </style>
    <clipPath id="clippath">
      <rect class="cls-3" y="70.6" width="451" height="429.3"/>
    </clipPath>
    <clipPath id="clippath-1">
      <rect class="cls-3" x="131.3" y="70.6" width="319.7" height="429.3"/>
    </clipPath>
  </defs>
  <g id="Apple_base" data-name="Apple base">
    <g class="cls-10">
      <path class="cls-4" d="M161.8,99.2c-12.9,0-25.8.6-38.6,2-10,1.1-19.9,2.7-29.6,5.2-37.4,9.6-63.9,32.2-80.2,67-6.3,13.5-7.9,28.3-10.3,42.8-1.4,8.9-2,17.8-2.3,26.8-.4,10.9-.9,21.8-.2,32.7.6,9.8,1.7,19.5,3.3,29.2,2.4,14.5,7.1,28.3,12.9,41.7,8.2,19.2,18.7,37.1,30.2,54.5,8.5,12.8,17.7,24.9,28.2,36.2,8.5,9.1,17.6,17.6,26.9,25.8,6.8,6.1,13.7,12,21.5,16.8,8.5,5.3,17.4,9.7,26.9,12.9.1.1.3.2.5.3,7.9,2.8,15.5,6.4,24.1,6.5,4.2,0,8.3.3,12.4-.4,7.2-1.3,14.1-3.8,21-6.3,8-2.9,15.9-5.9,24.3-7.5,2.3-.4,4.5-.8,6.8-1.1,5.2-.7,10.5-1.2,15.8-1.5,2.8-.2,5.6-.6,8.3-.3,4.4.4,8.7,1.5,13,2.1,4.9.7,9.7,1.7,14.6,2.2,4,.4,8,.7,12.1.9,6.5.4,13,.9,19.4-.1,12.3-1.9,23.1-7,32-15.7,5.2-5.1,9.9-10.6,14.8-16,4.7-5.1,9.5-10.2,13.4-15.9,8.4-12.2,16.3-24.6,23.6-37.5,6.9-12.3,13.5-24.7,18.4-38,2.4-6.4,3.8-13.2,6.4-19.5,5.2-12.8,10-25.9,13-39.4,2.1-9.4,3.8-18.9,4.7-28.5.7-7.2,1.3-14.3,1.6-21.5.3-7.7-.7-15.4-.4-23.2.1-1.9,0-3.7-.2-5.6-1-7-2.1-14-3.4-21-2.7-14.3-6.5-28.3-11.4-42-2.4-6.8-5.9-13.1-8.6-19.7-4.3-10.6-10.6-19.8-18.6-27.9-7.2-7.3-14.6-14.4-22.5-20.9-9.8-8.2-20.7-14.3-33-17.7-14.1-3.9-28.5-6.4-43.2-6.5"/>
    </g>
  </g>
  <g id="Apple_shadow" data-name="Apple shadow">
    <g class="cls-11">
      <path class="cls-6" d="M161.8,99.2c-.2,1.1,4.6,10.2,3.9,10.4-4.3,1.5-11,3.3-14.6,6-3.1,2.3-6.1,5-6.5,9.3,0,1.1-.7,1.2-1.5.8-.6-.3-1.2-.6-1.8-.9-2.1-1.4-4.1-2.8-6.2-4.2-.8-.5-1.5-.8-2.3.1-.8.9-.5,1.6,0,2.3,1.6,2.3,3.3,4.4,5.6,6.1,3,2.1,6.3,3.7,9.5,5.2,10.1,4.9,21,6.7,32.1,7.5,7.2.5,14.1-1.2,21-3.4l1.8-.6c1-.3,2-.7,2.9-1l1.2-.4c1-.3,1.9-.7,2.9-1l1.8-.6,1.6-.6c5.3-1.9,10.6-3.7,16-5.2,10.1-2.7,20.3-4.7,30.7-4.7,7.2,0,14.3.7,21.4,2.1,5.2.9,10.5,1.4,15.4,3.3,9.5,3.7,17.9,9.3,25.4,16.2,6.8,6.3,12.6,13.5,18.1,20.9,8.5,11.3,16.4,23,21.7,36.2,3,7.5,5.9,15.2,7.4,23.1,2.2,11.7,3.3,23.5,4.4,35.3.6,6.5,1.1,13.1,1.2,19.7,0,6.7.2,13.3-.2,20-.5,7.6-1.4,15.2-2.9,22.7-1.8,9.5-4.4,18.7-7.9,27.7-1.8,4.6-4.1,9-6,13.6-5.4,13-9.6,26.4-15,39.4-4.5,10.9-10.9,20.6-19.1,29.1-6.4,6.7-13.1,13-20.3,18.8-5.2,4.2-10.5,8.3-16.6,11-4.2,1.9-8.4,3.2-13.1,3.2-9,0-18-.5-27,.3-3.1.3-6.2.8-9.3,1.7h-.3c-.3.2-.7.3-1,.4l-.5.2-.9.3c-.5.2-.9.3-1.4.5-.3,0-.5.2-.8.3l-.7.3-.7.3c-.2,0-.5.2-.7.3-.5.2-.9.4-1.4.6-1.3.6-2.6,1.2-3.9,1.9-.1,0-.3.1-.4.2l-.5.3c-.2.1-.4.2-.7.4-.7.4-1.3.8-2,1.2-9.9,6-19.6,12.5-30.7,16.2-8.4,2.8-16.9,3.9-25.7,2.5-5-.8-10-1.6-15.1-1.3h0c.1.1.3.2.5.3,7.9,2.8,15.5,6.4,24.1,6.5,1.8,0,3.5,0,5.2,0,2.3,0,4.6-.2,6.9-.5,7.3-1.3,14.1-3.8,21-6.3,8-2.9,15.9-5.9,24.3-7.5,2.3-.4,4.5-.8,6.8-1.1,5.2-.7,10.5-1.2,15.8-1.5,2.1-.1,4.3-.4,6.4-.4.7,0,1.5,0,2.2,0,4.4.4,8.7,1.5,13,2.1,4.9.7,9.7,1.7,14.6,2.2,4,.4,8,.7,12.1.9,3.6.2,7.2.4,10.8.4,2.8,0,5.5-.2,8.3-.6,12.3-1.9,23.1-7,32-15.7,5.2-5.1,9.9-10.6,14.8-16,4.7-5.1,9.5-10.2,13.4-15.9,8.4-12.2,16.3-24.6,23.6-37.5,6.9-12.3,13.5-24.7,18.4-38,2.3-6.4,3.8-13.2,6.4-19.5,5.2-12.8,10-25.9,13-39.4,2.1-9.4,3.8-18.9,4.7-28.5.7-7.2,1.3-14.3,1.6-21.5.3-7.7-.7-15.4-.4-23.2.1-1.9,0-3.7-.2-5.6-1-7-2.1-14-3.4-21-2.7-14.3-6.5-28.3-11.4-42-2.4-6.8-5.9-13.1-8.6-19.7-4.3-10.6-10.6-19.8-18.6-27.9-7.2-7.3-14.6-14.4-22.5-20.9-9.8-8.2-20.7-14.3-33-17.7-14-3.8-28.3-6.3-42.9-6.4l-118.9,22.7"/>
    </g>
  </g>
  <path id="Applehighlight" class="cls-5" d="M74.3,168.9c-.8,17-3.8,33.6-11.1,49.2-1.9,4.2-4.4,8-7.9,11.1-2.2,2-4.8,3.6-7.9,3.8-5.1.4-8.5-2.2-10.8-6.5-2.1-4-2.7-8.4-2.9-12.8-.3-7.6,1.2-15,3.2-22.3,2.7-10.1,6.6-19.7,13-28,2.4-3.1,5.2-5.8,7.9-8.6,2.6-2.7,5.6-4.4,9.4-3.3,4,1.2,5.4,4.6,6.2,8.3.6,3,.6,6,.8,9.1ZM33.8,259.9c0-2.5.2-4.9,1.3-7.2,2.5-5.3,8.3-6.3,12.4-2.1,3,3.2,4.3,7.2,5.3,11.3,1.2,4.7,1.6,9.4.2,14.1-1,3.2-2.6,6.1-6.4,6.5-3.8.4-6.6-1.8-8-5.1-2.4-5.7-4.8-11.3-4.8-17.6Z"/>
  <path id="tip_body" data-name="tip body" class="cls-8" d="M185.6,54.2c-1.8-7.1-3.9-14.1-6.3-20.9-2.8-8-6.1-15.7-12-22-5.5-5.8-8.3-6.2-15.2-2.3,0,0-.1,0-.2.1-12.4,6.4-23.5,14.3-30.4,26.9-1.6,2,.1,2.7,1.3,3.7.5.5,1,1.1,1.5,1.6,9.9,9.6,18.4,20.2,25.4,32.1,4.9,8.3,8.6,17.2,11.9,26.2,1.5,2.9,2.6,6,3.5,9.2,2.5,6.1,3.5,12.6,4.3,19.1.4,3,1,5.6,4.4,6.4.7.2,1.4.4,2,.7h.1c0,0-.1,0-.1,0l1.2.3c5.7,1.4,11.1,1.2,15.6-3.3,1.3-1.3,2-2.8,1.7-4.6-.6-4.1-1-8.2-1.1-12.4,0-4-.3-7.9-.8-11.8"/>
  <path id="tip_top" data-name="tip top" class="cls-7" d="M151.8,8.8c3.9,1.9,4.2,6.4.8,10.1-3.9,4.3-8.7,7.4-13.6,10.4-3.8,2.2-7.7,4.1-11.8,5.6-1.9.7-3.8,1.1-5.8.9,6.9-12.6,18-20.4,30.4-26.9Z"/>
  <path id="tip_shadow" data-name="tip shadow" class="cls-9" d="M192.5,131.6c1.1-1.1,1.7-2.3,1.8-3.7,0-.2,0-.4,0-.6-.6-4.1-1-8.2-1.1-12.4,0-4-.3-7.9-.8-11.8l-6.8-48.8c-1.8-7.1-3.9-14.1-6.3-20.9-2.8-8-6.1-15.7-12-22-5.4-5.8-8.3-6.2-15.1-2.4,3.6,2,3.9,6.3.6,9.9-3.9,4.3-8.7,7.4-13.6,10.4-3.8,2.2-7.7,4.1-11.8,5.6-1.8.7-3.7,1-5.6.9l-.2.3c-.3.4-.6.8-.7,1.3.1.9,1.2,1.4,2,2.1,2.1,0,4.2.3,6.2-.1,7.4-1.4,14.1-4.4,20.2-8.7,4-2.7,9.1-2.7,12.1,1,4.1,4.8,7.3,10.1,9.8,16,2.3,5.8,3.6,11.8,5,17.8,1.1,4.8,3.7,17.1,4.8,21.9,0,0,1.4,12.9,1.4,12.9,0,.4.1.8.2,1.2.3,6.2.6,12.4.4,18.6,0,.5,0,1.1.1,1.6.6,7.7.4,10.2-6.7,12.5-.2,0-.3.2-.5.3l1.2.3c5.8,1.5,11.1,1.2,15.6-3.2Z"/>
  <path id="leaf_base" data-name="leaf base" class="cls-1" d="M333.8,1.1c-.7,0-1.3,0-2-.1-5.1-.3-10.2-.8-15.2-.9-9.6-.1-19.2-.1-28.8,0-4.9,0-9.8.5-14.6,1.3-10.7,1.8-21,4.8-31.1,8.6-23.7,8.9-43.4,22.7-56,45.2-.2.5-.3,1-.5,1.6,0,.4,0,.6-.3.8-2.8,5.4-4.2,11.2-5.2,17.2-.3,1.7-.5,3.3-.8,5-.2,3.3-.4,6.7-.4,10.1,0,2,.4,3.9.5,5.9,0,1.9,1.6,2.3,2.7,3.2,3.5,1.2,6.7,2.9,10.3,3.7,7.2,1.5,14.4,1.9,21.7,1.7,12.6-.4,25.2-.9,37.7-3.1,15.3-2.7,29.4-8.1,42.4-16.6,5.7-3.8,10.3-8.7,14.9-13.7.4-.5.8-1,1.2-1.6,5-6.4,10.3-12.7,14.5-19.8,5.8-9.8,8.9-20.5,10.7-31.7.7-4.4,1.4-8.8,1.5-13.3,0-2.5-.7-3.3-3.2-3.6ZM183.9,64.6c0,.3-.2.6-.2.9,0-.3.2-.6.3-.9h0Z"/>
  <path id="leaf_top" data-name="leaf top" class="cls-2" d="M309,71c-4.6,4.9-9.2,9.9-14.9,13.7-12.9,8.5-27.1,13.9-42.4,16.6-12.5,2.2-25.1,2.6-37.7,3.1-7.3.3-14.5-.2-21.7-1.7-3.6-.9-6.8-2.6-10.3-3.7-1.1-.9-2.7-1.3-2.7-3.2,0-2-.4-3.9-.5-5.9,0-3.4.2-6.7.4-10,.3-1.7.6-3.4.8-5,1-6,2.4-11.8,5.2-17.2-.4,4.3-2,8.4-2.7,12.7-.9,5.3-1,10.7-.2,16.1.1,1,.4,1.9.8,2.8,1,2,1.1,2,2.7.4,6.7-7,14.3-13,22-19,11.9-9.1,24.4-17.4,37-25.4,11.9-7.5,24.1-14.5,36.6-20.9,9.3-4.8,18.7-9.3,28.2-13.7,7.3-3.4,14.7-6.6,22.1-9.7.7,0,1.3,0,2,.1,2.4.3,3.2,1.1,3.2,3.6-.1,4.5-.8,8.9-1.5,13.3-1.8,11.2-4.9,21.9-10.7,31.7-4.2,7-9.5,13.3-14.5,19.8-.4.5-.8,1-1.2,1.6Z"/>
</svg>