<svg id="grape" xmlns="http://www.w3.org/2000/svg" version="1.1" viewBox="0 0 506.1 495.1">
  <defs>
    <style>
      .cls-1 {
        fill: #010101;
      }

      .cls-1, .cls-2, .cls-3, .cls-4, .cls-5, .cls-6, .cls-7, .cls-8, .cls-9, .cls-10 {
        stroke-width: 0px;
      }

      .cls-2 {
        fill: #1f1a3d;
      }

      .cls-3 {
        fill: #35395f;
      }

      .cls-4, .cls-10 {
        fill: #a4ce40;
      }

      .cls-5 {
        fill: #4a4c6c;
      }

      .cls-6, .cls-9 {
        fill: #8db03e;
      }

      .cls-7 {
        fill: #b1b7d9;
      }

      .cls-8 {
        fill: #e8eda9;
      }

      .cls-8, .cls-9, .cls-10 {
        fill-rule: evenodd;
      }
<!-- add my custome css-->
      #grape:hover #top_leaf{
        fill:#424242;
        transform: rotate(3deg);
      }

      #grape:hover #root{
        fill:#5B5B5B;
      }
      #grape:hover #leaf_base{
        fill:#7E7E7E;
        transform: rotate(20deg) translate(12px, -15%);
      }
      #grape:hover #leaf_top{
        fill:#A9A9A9;
        transform: rotate(20deg) translate(12px, -15%);
      }
      
      #leaf_base{
        transition: all 0.5s ease-in-out;
        transform-origin: center;
      }

      #top_leaf{
        transition: all 0.5s ease-in-out;
        transform-origin: center;
      }

      #leaf_top{
        transition: all 0.5s ease-in-out;
        transform-origin: center;
      }
    </style>
  </defs>
  <path id="leaf_base" data-name="leaf base" class="cls-4" d="M158.1,172.5c-31.8-33.4-127.2-41.8-137.7-25.3-8.9,14,47.2,81,111.5,88.9M120.1,212C74.2,208-2.9,264.9,0,284.1c2.6,16.4,88.9,29.5,142.4-7"/>
  <path id="leaf_top" data-name="leaf top" class="cls-6" d="M150,220.6s-.3-.4-.7-1.3c-.1-.2-.2-.4-.4-.7-.2-.3-.3-.5-.4-.7-.3-.4-.6-.9-1-1.4-.5-.6-1-1.3-1.6-2-.6-.7-1.3-1.5-2.1-2.4-.8-.8-1.6-1.7-2.5-2.6-1-.9-1.9-1.9-3-2.8-1.1-1-2.2-2-3.5-3-1.2-1-2.5-2-3.9-3.1-2.7-2.1-5.6-4.2-8.7-6.3-3.1-2.1-6.4-4.2-9.8-6.2-3.4-2.1-6.9-4-10.4-6-3.5-1.9-7.1-3.8-10.6-5.6-3.5-1.8-7.1-3.5-10.5-5-3.4-1.6-6.8-3-10-4.3-3.2-1.3-6.3-2.5-9.1-3.5-2.8-1-5.5-1.8-7.9-2.5-1.2-.3-2.3-.6-3.3-.9-1-.2-2-.5-2.9-.7-1.7-.3-3.1-.6-4.1-.7-.9-.1-1.4-.2-1.4-.2,0,0,.5,0,1.5,0,1,0,2.3.1,4.1.3.9.1,1.9.3,2.9.4,1.1.2,2.2.4,3.4.6,2.4.5,5.2,1.1,8.1,1.8,11.9,3,27.3,8.5,42.2,15.2,3.7,1.7,7.4,3.4,11,5.3,3.6,1.8,7.1,3.7,10.5,5.6,3.4,1.9,6.6,3.8,9.6,5.8,1.5,1,3,1.9,4.3,2.9,1.4,1,2.7,2,4,2.9,1.3.9,2.4,2,3.6,2.9,1.1.9,2.2,1.9,3.1,2.8.9,1,1.8,1.9,2.6,2.7.8.9,1.4,1.8,2.1,2.6.6.9,1.2,1.8,1.6,2.5.2.4.4.7.5,1,.1.3.2.5.3.7.4.8.6,1.3.6,1.3l-8.5,4.5ZM145.8,253.5s-.5-.1-1.4-.5c-.2,0-.5-.2-.8-.3-.3-.1-.5-.2-.8-.2-.5,0-1.1-.2-1.7-.4-.8-.1-1.6-.3-2.5-.5-1-.1-2-.3-3.1-.4-1.1,0-2.4-.2-3.7-.3-1.3,0-2.7-.2-4.1-.1-1.5,0-3,0-4.6,0-1.6,0-3.2.1-4.9.3-3.4.2-7,.6-10.7,1.1-3.7.5-7.5,1.1-11.4,1.8-3.9.7-7.8,1.5-11.7,2.4-3.9.9-7.8,1.8-11.7,2.8-3.8,1-7.6,2.1-11.2,3.2-3.6,1.1-7.1,2.2-10.4,3.4-3.3,1.1-6.3,2.3-9.2,3.4-2.8,1.1-5.4,2.3-7.6,3.3-1.1.5-2.1,1.1-3.1,1.5-.9.5-1.8,1-2.6,1.4-1.5.9-2.7,1.6-3.5,2.2-.8.5-1.2.8-1.2.8,0,0,.4-.3,1.1-.9.7-.6,1.8-1.5,3.3-2.5.7-.5,1.6-1,2.5-1.6.9-.6,1.9-1.2,3-1.8,2.1-1.3,4.6-2.6,7.3-4,10.9-5.6,26.1-11.7,41.7-16.6,3.9-1.2,7.9-2.3,11.8-3.3,3.9-1,7.8-1.9,11.6-2.7,3.8-.8,7.5-1.5,11-2,1.8-.3,3.5-.5,5.2-.7,1.7-.2,3.3-.3,4.9-.4,1.6-.1,3.1-.1,4.6-.2,1.5,0,2.9,0,4.2,0,1.3,0,2.6.2,3.8.3,1.2.2,2.3.4,3.2.6,1.1.3,2,.5,2.9.8.4.1.8.2,1,.4.3.1.5.2.7.3.9.4,1.3.6,1.3.6l-3.4,9Z"/>
  <path class="cls-1" d="M389.8,293.8l-216.2-121.8,58.9-95.8,215.1,122.3-57.9,95.3Z"/>
  <path class="cls-2" d="M400,118.3c5.7,30.2-14.2,59.4-44.4,65.1s-59.3-14.2-65-44.4,14.2-59.4,44.4-65.1c30.2-5.7,59.3,14.2,65,44.4Z"/>
  <path class="cls-3" d="M389.8,139.1c0,1.4,0,2.8-.2,4.2s-.3,2.8-.6,4.1-.6,2.7-1,4c-.4,1.3-.9,2.6-1.4,3.9-.5,1.3-1.1,2.5-1.8,3.8-.7,1.2-1.4,2.4-2.1,3.6-.8,1.2-1.6,2.3-2.5,3.3-.9,1.1-1.8,2.1-2.8,3.1s-2,1.9-3.1,2.8c-1.1.9-2.2,1.7-3.3,2.5-1.2.8-2.3,1.5-3.6,2.1-1.2.7-2.5,1.3-3.8,1.8-1.3.5-2.6,1-3.9,1.4-1.3.4-2.7.7-4,1s-2.7.5-4.1.6-2.8.2-4.2.2-2.8,0-4.2-.2-2.8-.3-4.1-.6-2.7-.6-4-1c-1.3-.4-2.6-.9-3.9-1.4-1.3-.5-2.5-1.1-3.8-1.8-1.2-.7-2.4-1.4-3.6-2.1-1.2-.8-2.3-1.6-3.3-2.5-1.1-.9-2.1-1.8-3.1-2.8-1-1-1.9-2-2.8-3.1-.9-1.1-1.7-2.2-2.5-3.3-.8-1.2-1.5-2.4-2.1-3.6-.7-1.2-1.3-2.5-1.8-3.8-.5-1.3-1-2.6-1.4-3.9-.4-1.3-.7-2.7-1-4s-.5-2.7-.6-4.1-.2-2.8-.2-4.2,0-2.8.2-4.2.3-2.8.6-4.1c.3-1.4.6-2.7,1-4,.4-1.3.9-2.6,1.4-3.9.5-1.3,1.1-2.5,1.8-3.8.7-1.2,1.4-2.4,2.1-3.6.8-1.2,1.6-2.3,2.5-3.3.9-1.1,1.8-2.1,2.8-3.1,1-1,2-1.9,3.1-2.8,1.1-.9,2.2-1.7,3.3-2.5,1.2-.8,2.3-1.5,3.6-2.1s2.5-1.3,3.8-1.8c1.3-.5,2.6-1,3.9-1.4,1.3-.4,2.7-.7,4-1s2.7-.5,4.1-.6c1.4-.1,2.8-.2,4.2-.2s2.8,0,4.2.2c1.4.1,2.8.3,4.1.6s2.7.6,4,1c1.3.4,2.6.9,3.9,1.4,1.3.5,2.5,1.1,3.8,1.8,1.2.7,2.4,1.4,3.6,2.1,1.2.8,2.3,1.6,3.3,2.5,1.1.9,2.1,1.8,3.1,2.8s1.9,2,2.8,3.1c.9,1.1,1.7,2.2,2.5,3.3s1.5,2.3,2.1,3.6c.7,1.2,1.3,2.5,1.8,3.8.5,1.3,1,2.6,1.4,3.9.4,1.3.7,2.7,1,4s.5,2.7.6,4.1.2,2.8.2,4.2Z"/>
  <path class="cls-5" d="M377.9,151.7c0,.9,0,1.8-.1,2.8,0,.9-.2,1.8-.4,2.7-.2.9-.4,1.8-.7,2.7-.3.9-.6,1.8-.9,2.6s-.7,1.7-1.2,2.5c-.4.8-.9,1.6-1.4,2.4-.5.8-1.1,1.5-1.6,2.2-.6.7-1.2,1.4-1.9,2.1-.7.7-1.3,1.3-2.1,1.9-.7.6-1.5,1.1-2.2,1.6-.8.5-1.6,1-2.4,1.4-.8.4-1.7.8-2.5,1.2-.9.4-1.7.7-2.6.9-.9.3-1.8.5-2.7.7-.9.2-1.8.3-2.7.4-.9,0-1.8.1-2.8.1s-1.8,0-2.8-.1c-.9,0-1.8-.2-2.7-.4-.9-.2-1.8-.4-2.7-.7-.9-.3-1.8-.6-2.6-.9-.9-.4-1.7-.8-2.5-1.2-.8-.4-1.6-.9-2.4-1.4-.8-.5-1.5-1.1-2.2-1.6-.7-.6-1.4-1.2-2-1.9-.7-.7-1.3-1.3-1.9-2.1-.6-.7-1.1-1.5-1.7-2.2-.5-.8-1-1.6-1.4-2.4-.4-.8-.8-1.6-1.2-2.5s-.7-1.7-.9-2.6c-.3-.9-.5-1.8-.7-2.7-.2-.9-.3-1.8-.4-2.7,0-.9-.1-1.8-.1-2.8s0-1.8.1-2.8c0-.9.2-1.8.4-2.7.2-.9.4-1.8.7-2.7.3-.9.6-1.8.9-2.6s.8-1.7,1.2-2.5c.4-.8.9-1.6,1.4-2.4.5-.8,1.1-1.5,1.7-2.2.6-.7,1.2-1.4,1.9-2.1.7-.7,1.3-1.3,2-1.9.7-.6,1.5-1.1,2.2-1.6.8-.5,1.6-1,2.4-1.4.8-.4,1.7-.8,2.5-1.2.8-.4,1.7-.7,2.6-.9.9-.3,1.8-.5,2.7-.7.9-.2,1.8-.3,2.7-.4.9,0,1.8-.1,2.8-.1s1.8,0,2.8.1c.9,0,1.8.2,2.7.4.9.2,1.8.4,2.7.7.9.3,1.8.6,2.6.9.8.4,1.7.8,2.5,1.2.8.4,1.6.9,2.4,1.4.8.5,1.5,1.1,2.2,1.6.7.6,1.4,1.2,2.1,1.9.7.7,1.3,1.3,1.9,2.1.6.7,1.1,1.5,1.7,2.2.5.8,1,1.6,1.4,2.4.4.8.8,1.6,1.2,2.5s.7,1.7.9,2.6c.3.9.5,1.8.7,2.7.2.9.3,1.8.4,2.7,0,.9.1,1.8.1,2.8Z"/>
  <path class="cls-7" d="M362.7,166.8c0,.7,0,1.3-.2,2-.1.7-.3,1.3-.6,1.9s-.6,1.2-.9,1.8c-.4.6-.8,1.1-1.3,1.5-.5.5-1,.9-1.5,1.3-.6.4-1.1.7-1.8.9s-1.2.4-1.9.6c-.7.1-1.3.2-2,.2s-1.3,0-2-.2c-.7-.1-1.3-.3-1.9-.6s-1.2-.6-1.8-.9-1.1-.8-1.5-1.3-.9-1-1.3-1.5c-.4-.6-.7-1.1-.9-1.8s-.4-1.3-.6-1.9c-.1-.7-.2-1.3-.2-2s0-1.3.2-2c.1-.7.3-1.3.6-1.9s.6-1.2.9-1.8c.4-.6.8-1.1,1.3-1.5.5-.5,1-.9,1.5-1.3s1.1-.7,1.8-.9,1.3-.4,1.9-.6c.7-.1,1.3-.2,2-.2s1.3,0,2,.2c.7.1,1.3.3,1.9.6s1.2.6,1.8.9c.6.4,1.1.8,1.5,1.3.5.5.9,1,1.3,1.5s.7,1.1.9,1.8.4,1.3.6,1.9c.1.7.2,1.3.2,2Z"/>
  <path class="cls-2" d="M336.2,98.5c0,1.8,0,3.6-.3,5.5-.2,1.8-.4,3.6-.8,5.4-.4,1.8-.8,3.6-1.3,5.3-.5,1.7-1.1,3.5-1.8,5.1s-1.5,3.3-2.3,4.9-1.8,3.2-2.8,4.7c-1,1.5-2.1,3-3.3,4.4-1.2,1.4-2.4,2.8-3.7,4.1-1.3,1.3-2.6,2.5-4,3.7-1.4,1.2-2.9,2.2-4.4,3.3s-3.1,1.9-4.7,2.8c-1.6.9-3.3,1.6-4.9,2.3-1.7.7-3.4,1.3-5.1,1.8s-3.5,1-5.3,1.3c-1.8.4-3.6.6-5.4.8-1.8.2-3.6.3-5.5.3s-3.6,0-5.5-.3c-1.8-.2-3.6-.4-5.4-.8-1.8-.4-3.6-.8-5.3-1.3s-3.5-1.1-5.1-1.8c-1.7-.7-3.3-1.5-4.9-2.3-1.6-.9-3.2-1.8-4.7-2.8s-3-2.1-4.4-3.3c-1.4-1.2-2.8-2.4-4-3.7-1.3-1.3-2.5-2.6-3.7-4.1s-2.2-2.9-3.3-4.4c-1-1.5-2-3.1-2.8-4.7s-1.6-3.3-2.3-4.9-1.3-3.4-1.8-5.1c-.5-1.7-1-3.5-1.3-5.3-.4-1.8-.6-3.6-.8-5.4-.2-1.8-.3-3.6-.3-5.5s0-3.6.3-5.5c.2-1.8.4-3.6.8-5.4.4-1.8.8-3.6,1.3-5.3.5-1.8,1.1-3.5,1.8-5.2.7-1.7,1.5-3.3,2.3-4.9.9-1.6,1.8-3.2,2.8-4.7,1-1.5,2.1-3,3.3-4.4,1.2-1.4,2.4-2.8,3.7-4s2.6-2.5,4-3.7c1.4-1.2,2.9-2.2,4.4-3.3,1.5-1,3.1-2,4.7-2.8s3.3-1.6,4.9-2.3c1.7-.7,3.4-1.3,5.1-1.8,1.7-.5,3.5-1,5.3-1.3,1.8-.4,3.6-.6,5.4-.8,1.8-.2,3.6-.3,5.5-.3s3.6,0,5.5.3c1.8.2,3.6.4,5.4.8,1.8.4,3.6.8,5.3,1.3,1.7.5,3.5,1.1,5.1,1.8,1.7.7,3.3,1.5,4.9,2.3s3.2,1.8,4.7,2.8c1.5,1,3,2.1,4.4,3.3,1.4,1.2,2.8,2.4,4,3.7s2.5,2.6,3.7,4c1.2,1.4,2.2,2.9,3.3,4.4,1,1.5,2,3.1,2.8,4.7.9,1.6,1.6,3.3,2.3,4.9.7,1.7,1.3,3.4,1.8,5.2.5,1.7,1,3.5,1.3,5.3.4,1.8.6,3.6.8,5.4.2,1.8.3,3.6.3,5.5Z"/>
  <path class="cls-3" d="M325,108.9c0,1.4,0,2.8-.2,4.2-.1,1.4-.3,2.8-.6,4.1s-.6,2.7-1,4c-.4,1.3-.9,2.6-1.4,3.9-.5,1.3-1.1,2.5-1.8,3.8-.7,1.2-1.4,2.4-2.1,3.6-.8,1.2-1.6,2.3-2.5,3.3-.9,1.1-1.8,2.1-2.8,3.1s-2,1.9-3.1,2.8c-1.1.9-2.2,1.7-3.3,2.5-1.2.8-2.3,1.5-3.6,2.1-1.2.7-2.5,1.3-3.8,1.8-1.3.5-2.6,1-3.9,1.4-1.3.4-2.7.7-4,1s-2.7.5-4.1.6c-1.4.1-2.8.2-4.2.2s-2.8,0-4.2-.2c-1.4-.1-2.8-.3-4.1-.6s-2.7-.6-4-1c-1.3-.4-2.6-.9-3.9-1.4-1.3-.5-2.5-1.1-3.8-1.8-1.2-.7-2.4-1.4-3.6-2.1-1.2-.8-2.3-1.6-3.3-2.5-1.1-.9-2.1-1.8-3.1-2.8s-1.9-2-2.8-3.1c-.9-1.1-1.7-2.2-2.5-3.3-.8-1.2-1.5-2.3-2.1-3.6-.7-1.2-1.3-2.5-1.8-3.8-.5-1.3-1-2.6-1.4-3.9-.4-1.3-.7-2.7-1-4s-.5-2.7-.6-4.1-.2-2.8-.2-4.2,0-2.8.2-4.2.3-2.8.6-4.1.6-2.7,1-4c.4-1.3.9-2.6,1.4-3.9s1.1-2.5,1.8-3.8c.7-1.2,1.4-2.4,2.1-3.6.8-1.2,1.6-2.3,2.5-3.4.9-1.1,1.8-2.1,2.8-3.1s2-1.9,3.1-2.8c1.1-.9,2.2-1.7,3.3-2.5,1.2-.8,2.3-1.5,3.6-2.1,1.2-.7,2.5-1.3,3.8-1.8s2.6-1,3.9-1.4c1.3-.4,2.7-.7,4-1s2.7-.5,4.1-.6c1.4-.1,2.8-.2,4.2-.2s2.8,0,4.2.2c1.4.1,2.8.3,4.1.6s2.7.6,4,1c1.3.4,2.6.9,3.9,1.4s2.5,1.1,3.8,1.8c1.2.7,2.4,1.4,3.6,2.1,1.2.8,2.3,1.6,3.3,2.5,1.1.9,2.1,1.8,3.1,2.8s1.9,2,2.8,3.1c.9,1.1,1.7,2.2,2.5,3.4.8,1.2,1.5,2.3,2.1,3.6.7,1.2,1.3,2.5,1.8,3.8s1,2.6,1.4,3.9c.4,1.3.7,2.7,1,4s.5,2.7.6,4.1c.1,1.4.2,2.8.2,4.2Z"/>
  <path class="cls-5" d="M313.1,121.5c0,.9,0,1.8-.1,2.8,0,.9-.2,1.8-.4,2.7-.2.9-.4,1.8-.7,2.7-.3.9-.6,1.8-.9,2.6-.3.8-.7,1.7-1.2,2.5-.4.8-.9,1.6-1.4,2.4-.5.8-1.1,1.5-1.6,2.2-.6.7-1.2,1.4-1.9,2.1-.7.7-1.3,1.3-2.1,1.9-.7.6-1.5,1.1-2.2,1.6-.8.5-1.6,1-2.4,1.4-.8.4-1.6.8-2.5,1.2-.9.3-1.7.7-2.6.9-.9.3-1.8.5-2.7.7-.9.2-1.8.3-2.7.4-.9,0-1.8.1-2.8.1s-1.8,0-2.8-.1c-.9,0-1.8-.2-2.7-.4-.9-.2-1.8-.4-2.7-.7-.9-.3-1.8-.6-2.6-.9-.9-.4-1.7-.8-2.5-1.2-.8-.4-1.6-.9-2.4-1.4-.8-.5-1.5-1.1-2.2-1.6-.7-.6-1.4-1.2-2-1.9s-1.3-1.3-1.9-2.1c-.6-.7-1.1-1.5-1.6-2.2-.5-.8-1-1.6-1.4-2.4-.4-.8-.8-1.7-1.2-2.5-.3-.9-.7-1.7-.9-2.6-.3-.9-.5-1.8-.7-2.7-.2-.9-.3-1.8-.4-2.7,0-.9-.1-1.8-.1-2.8s0-1.8.1-2.8c0-.9.2-1.8.4-2.7.2-.9.4-1.8.7-2.7.3-.9.6-1.8.9-2.6.4-.9.8-1.7,1.2-2.5.4-.8.9-1.6,1.4-2.4.5-.8,1.1-1.5,1.6-2.2.6-.7,1.2-1.4,1.9-2,.7-.7,1.3-1.3,2-1.9.7-.6,1.5-1.1,2.2-1.7.8-.5,1.6-1,2.4-1.4.8-.4,1.6-.8,2.5-1.2s1.7-.7,2.6-.9c.9-.3,1.8-.5,2.7-.7.9-.2,1.8-.3,2.7-.4.9,0,1.8-.1,2.8-.1s1.8,0,2.8.1c.9,0,1.8.2,2.7.4.9.2,1.8.4,2.7.7.9.3,1.8.6,2.6.9s1.7.7,2.5,1.2,1.6.9,2.4,1.4c.8.5,1.5,1.1,2.2,1.7.7.6,1.4,1.2,2.1,1.9.7.7,1.3,1.3,1.9,2,.6.7,1.1,1.5,1.6,2.2.5.8,1,1.6,1.4,2.4.4.8.8,1.7,1.2,2.5.4.9.7,1.7.9,2.6.3.9.5,1.8.7,2.7.2.9.3,1.8.4,2.7,0,.9.1,1.8.1,2.8Z"/>
  <path class="cls-7" d="M297.9,136.6c0,.7,0,1.3-.2,2-.1.7-.3,1.3-.6,1.9s-.6,1.2-.9,1.8-.8,1.1-1.3,1.5-1,.9-1.5,1.3-1.1.7-1.8.9-1.2.4-1.9.6c-.7.1-1.3.2-2,.2s-1.3,0-2-.2c-.7-.1-1.3-.3-1.9-.6s-1.2-.6-1.8-.9c-.6-.4-1.1-.8-1.5-1.3s-.9-1-1.3-1.5-.7-1.1-.9-1.8-.4-1.2-.6-1.9c-.1-.7-.2-1.3-.2-2s0-1.3.2-2,.3-1.3.6-1.9.6-1.2.9-1.8c.4-.6.8-1.1,1.3-1.5.5-.5,1-.9,1.5-1.3.6-.4,1.1-.7,1.8-.9s1.2-.4,1.9-.6c.7-.1,1.3-.2,2-.2s1.3,0,2,.2c.7.1,1.3.3,1.9.6s1.2.6,1.8.9,1.1.8,1.5,1.3c.5.5.9,1,1.3,1.5.4.6.7,1.1.9,1.8s.4,1.3.6,1.9.2,1.3.2,2Z"/>
  <path class="cls-2" d="M261.2,89.6c0,1.8,0,3.6-.3,5.5-.2,1.8-.4,3.6-.8,5.4-.4,1.8-.8,3.6-1.3,5.3-.5,1.8-1.1,3.5-1.8,5.2-.7,1.7-1.5,3.3-2.3,4.9s-1.8,3.2-2.8,4.7c-1,1.5-2.1,3-3.3,4.4-1.2,1.4-2.4,2.8-3.7,4s-2.6,2.5-4.1,3.7c-1.4,1.2-2.9,2.2-4.4,3.3-1.5,1-3.1,2-4.7,2.8s-3.3,1.6-4.9,2.3c-1.7.7-3.4,1.3-5.1,1.8-1.7.5-3.5,1-5.3,1.3-1.8.4-3.6.6-5.4.8-1.8.2-3.6.3-5.5.3s-3.6,0-5.5-.3c-1.8-.2-3.6-.4-5.4-.8-1.8-.4-3.6-.8-5.3-1.3-1.7-.5-3.5-1.1-5.1-1.8-1.7-.7-3.3-1.5-4.9-2.3s-3.2-1.8-4.7-2.8c-1.5-1-3-2.1-4.4-3.3-1.4-1.2-2.8-2.4-4-3.7s-2.5-2.6-3.7-4c-1.2-1.4-2.2-2.9-3.3-4.4-1-1.5-1.9-3.1-2.8-4.7-.9-1.6-1.6-3.3-2.3-4.9-.7-1.7-1.3-3.4-1.8-5.2-.5-1.7-1-3.5-1.3-5.3-.4-1.8-.6-3.6-.8-5.4-.2-1.8-.3-3.6-.3-5.5s0-3.6.3-5.5c.2-1.8.4-3.6.8-5.4.4-1.8.8-3.6,1.3-5.3.5-1.7,1.1-3.5,1.8-5.1s1.5-3.3,2.3-4.9c.9-1.6,1.8-3.2,2.8-4.7,1-1.5,2.1-3,3.3-4.4s2.4-2.8,3.7-4.1c1.3-1.3,2.6-2.5,4-3.7,1.4-1.2,2.9-2.2,4.4-3.3,1.5-1,3.1-1.9,4.7-2.8s3.3-1.6,4.9-2.3c1.7-.7,3.4-1.3,5.1-1.8,1.7-.5,3.5-1,5.3-1.3,1.8-.4,3.6-.6,5.4-.8,1.8-.2,3.6-.3,5.5-.3s3.6,0,5.5.3c1.8.2,3.6.4,5.4.8,1.8.4,3.6.8,5.3,1.3,1.7.5,3.5,1.1,5.1,1.8,1.7.7,3.3,1.5,4.9,2.3s3.2,1.8,4.7,2.8c1.5,1,3,2.1,4.4,3.3,1.4,1.2,2.8,2.4,4.1,3.7,1.3,1.3,2.5,2.6,3.7,4.1s2.2,2.9,3.3,4.4c1,1.5,1.9,3.1,2.8,4.7s1.6,3.3,2.3,4.9,1.3,3.4,1.8,5.1c.5,1.7,1,3.5,1.3,5.3.4,1.8.6,3.6.8,5.4.2,1.8.3,3.6.3,5.5Z"/>
  <path class="cls-3" d="M250,100.1c0,1.4,0,2.8-.2,4.2-.1,1.4-.3,2.8-.6,4.1-.3,1.4-.6,2.7-1,4-.4,1.3-.9,2.6-1.4,3.9s-1.1,2.5-1.8,3.8-1.4,2.4-2.1,3.6c-.8,1.2-1.6,2.3-2.5,3.3-.9,1.1-1.8,2.1-2.8,3.1s-2,1.9-3.1,2.8c-1.1.9-2.2,1.7-3.3,2.5-1.2.8-2.3,1.5-3.6,2.1-1.2.7-2.5,1.3-3.8,1.8-1.3.5-2.6,1-3.9,1.4-1.3.4-2.7.7-4,1-1.4.3-2.7.5-4.1.6s-2.8.2-4.2.2-2.8,0-4.2-.2c-1.4-.1-2.8-.3-4.1-.6-1.4-.3-2.7-.6-4-1-1.3-.4-2.6-.9-3.9-1.4-1.3-.5-2.5-1.1-3.8-1.8-1.2-.7-2.4-1.4-3.6-2.1-1.2-.8-2.3-1.6-3.3-2.5-1.1-.9-2.1-1.8-3.1-2.8s-1.9-2-2.8-3.1c-.9-1.1-1.7-2.2-2.5-3.3-.8-1.2-1.5-2.3-2.1-3.6s-1.3-2.5-1.8-3.8-1-2.6-1.4-3.9c-.4-1.3-.7-2.7-1-4-.3-1.4-.5-2.7-.6-4.1s-.2-2.8-.2-4.2,0-2.8.2-4.2.3-2.8.6-4.1c.3-1.4.6-2.7,1-4,.4-1.3.9-2.6,1.4-3.9s1.1-2.5,1.8-3.8,1.4-2.4,2.1-3.6c.8-1.2,1.6-2.3,2.5-3.3.9-1.1,1.8-2.1,2.8-3.1s2-1.9,3.1-2.8c1.1-.9,2.2-1.7,3.3-2.5,1.2-.8,2.3-1.5,3.6-2.1,1.2-.7,2.5-1.3,3.8-1.8,1.3-.5,2.6-1,3.9-1.4,1.3-.4,2.7-.7,4-1,1.4-.3,2.7-.5,4.1-.6,1.4-.1,2.8-.2,4.2-.2s2.8,0,4.2.2,2.8.3,4.1.6c1.4.3,2.7.6,4,1,1.3.4,2.6.9,3.9,1.4,1.3.5,2.5,1.1,3.8,1.8,1.2.7,2.4,1.4,3.6,2.1,1.2.8,2.3,1.6,3.3,2.5,1.1.9,2.1,1.8,3.1,2.8s1.9,2,2.8,3.1c.9,1.1,1.7,2.2,2.5,3.3.8,1.2,1.5,2.3,2.1,3.6s1.3,2.5,1.8,3.8,1,2.6,1.4,3.9c.4,1.3.7,2.7,1,4,.3,1.4.5,2.7.6,4.1.1,1.4.2,2.8.2,4.2Z"/>
  <path class="cls-5" d="M238.1,112.6c0,.9,0,1.8-.1,2.8,0,.9-.2,1.8-.4,2.7-.2.9-.4,1.8-.7,2.7-.3.9-.6,1.8-.9,2.6s-.7,1.7-1.2,2.5c-.4.8-.9,1.6-1.4,2.4-.5.8-1.1,1.5-1.6,2.2-.6.7-1.2,1.4-1.9,2.1-.7.7-1.3,1.3-2.1,1.9-.7.6-1.5,1.1-2.2,1.7-.8.5-1.6,1-2.4,1.4s-1.6.8-2.5,1.2-1.7.7-2.6.9c-.9.3-1.8.5-2.7.7-.9.2-1.8.3-2.7.4-.9,0-1.8.1-2.8.1s-1.8,0-2.8-.1c-.9,0-1.8-.2-2.7-.4-.9-.2-1.8-.4-2.7-.7-.9-.3-1.8-.6-2.6-.9s-1.7-.7-2.5-1.2c-.8-.4-1.6-.9-2.4-1.4-.8-.5-1.5-1.1-2.2-1.7-.7-.6-1.4-1.2-2-1.9-.7-.7-1.3-1.3-1.9-2.1-.6-.7-1.1-1.5-1.6-2.2-.5-.8-1-1.6-1.4-2.4-.4-.8-.8-1.7-1.2-2.5s-.7-1.7-.9-2.6c-.3-.9-.5-1.8-.7-2.7-.2-.9-.3-1.8-.4-2.7,0-.9-.1-1.8-.1-2.8s0-1.8.1-2.8c0-.9.2-1.8.4-2.7.2-.9.4-1.8.7-2.7.3-.9.6-1.8.9-2.6s.8-1.7,1.2-2.5c.4-.8.9-1.6,1.4-2.4.5-.8,1.1-1.5,1.6-2.2s1.2-1.4,1.9-2.1,1.3-1.3,2-1.9c.7-.6,1.5-1.1,2.2-1.6.8-.5,1.6-1,2.4-1.4.8-.4,1.6-.8,2.5-1.2s1.7-.7,2.6-.9c.9-.3,1.8-.5,2.7-.7.9-.2,1.8-.3,2.7-.4.9,0,1.8-.1,2.8-.1s1.8,0,2.8.1c.9,0,1.8.2,2.7.4.9.2,1.8.4,2.7.7.9.3,1.8.6,2.6.9s1.7.8,2.5,1.2c.8.4,1.6.9,2.4,1.4.8.5,1.5,1.1,2.2,1.6.7.6,1.4,1.2,2.1,1.9.7.7,1.3,1.3,1.9,2.1.6.7,1.1,1.5,1.6,2.2.5.8,1,1.6,1.4,2.4.4.8.8,1.6,1.2,2.5s.7,1.7.9,2.6c.3.9.5,1.8.7,2.7.2.9.3,1.8.4,2.7,0,.9.1,1.8.1,2.8Z"/>
  <path class="cls-7" d="M222.9,127.7c0,.7,0,1.3-.2,2s-.3,1.3-.6,1.9-.6,1.2-.9,1.8c-.4.6-.8,1.1-1.3,1.5-.5.5-1,.9-1.5,1.3-.6.4-1.1.7-1.8.9s-1.2.4-1.9.6c-.7.1-1.3.2-2,.2s-1.3,0-2-.2c-.7-.1-1.3-.3-1.9-.6s-1.2-.6-1.8-.9c-.6-.4-1.1-.8-1.5-1.3-.5-.5-.9-1-1.3-1.5-.4-.6-.7-1.1-.9-1.8s-.4-1.3-.6-1.9-.2-1.3-.2-2,0-1.3.2-2c.1-.7.3-1.3.6-1.9s.6-1.2.9-1.8.8-1.1,1.3-1.5,1-.9,1.5-1.3c.6-.4,1.1-.7,1.8-.9s1.2-.4,1.9-.6c.7-.1,1.3-.2,2-.2s1.3,0,2,.2c.7.1,1.3.3,1.9.6s1.2.6,1.8.9c.6.4,1.1.8,1.5,1.3s.9,1,1.3,1.5.7,1.1.9,1.8.4,1.2.6,1.9c.1.7.2,1.3.2,2Z"/>
  <path class="cls-2" d="M457.9,167.5c0,1.8,0,3.6-.3,5.5-.2,1.8-.4,3.6-.8,5.4-.4,1.8-.8,3.6-1.3,5.3-.5,1.7-1.1,3.5-1.8,5.1s-1.5,3.3-2.3,4.9-1.8,3.2-2.8,4.7c-1,1.5-2.1,3-3.3,4.4-1.2,1.4-2.4,2.8-3.7,4.1-1.3,1.3-2.6,2.5-4,3.7-1.4,1.2-2.9,2.2-4.4,3.3-1.5,1-3.1,1.9-4.7,2.8-1.6.9-3.3,1.6-4.9,2.3s-3.4,1.3-5.1,1.8c-1.7.5-3.5,1-5.3,1.3-1.8.4-3.6.6-5.4.8-1.8.2-3.6.3-5.5.3s-3.6,0-5.5-.3c-1.8-.2-3.6-.4-5.4-.8-1.8-.4-3.6-.8-5.3-1.3-1.7-.5-3.5-1.1-5.1-1.8-1.7-.7-3.3-1.5-4.9-2.3s-3.2-1.8-4.7-2.8c-1.5-1-3-2.1-4.4-3.3-1.4-1.2-2.8-2.4-4.1-3.7-1.3-1.3-2.5-2.6-3.7-4.1s-2.2-2.9-3.3-4.4c-1-1.5-1.9-3.1-2.8-4.7s-1.6-3.3-2.3-4.9-1.3-3.4-1.8-5.1c-.5-1.7-1-3.5-1.3-5.3-.4-1.8-.6-3.6-.8-5.4-.2-1.8-.3-3.6-.3-5.5s0-3.6.3-5.5.4-3.6.8-5.4c.4-1.8.8-3.6,1.3-5.3.5-1.7,1.1-3.5,1.8-5.2.7-1.7,1.5-3.3,2.3-4.9s1.8-3.2,2.8-4.7c1-1.5,2.1-3,3.3-4.4,1.2-1.4,2.4-2.8,3.7-4s2.6-2.5,4.1-3.7c1.4-1.2,2.9-2.2,4.4-3.3,1.5-1,3.1-2,4.7-2.8s3.3-1.6,4.9-2.3c1.7-.7,3.4-1.3,5.1-1.8s3.5-1,5.3-1.3c1.8-.4,3.6-.6,5.4-.8,1.8-.2,3.6-.3,5.5-.3s3.6,0,5.5.3,3.6.4,5.4.8c1.8.4,3.6.8,5.3,1.3s3.5,1.1,5.1,1.8,3.3,1.5,4.9,2.3c1.6.9,3.2,1.8,4.7,2.8,1.5,1,3,2.1,4.4,3.3,1.4,1.2,2.8,2.4,4,3.7,1.3,1.3,2.5,2.6,3.7,4,1.2,1.4,2.2,2.9,3.3,4.4,1,1.5,2,3.1,2.8,4.7s1.6,3.3,2.3,4.9c.7,1.7,1.3,3.4,1.8,5.2.5,1.7,1,3.5,1.3,5.3.4,1.8.6,3.6.8,5.4.2,1.8.3,3.6.3,5.5Z"/>
  <path class="cls-3" d="M446.7,178c0,1.4,0,2.8-.2,4.2s-.3,2.8-.6,4.1-.6,2.7-1,4c-.4,1.3-.9,2.6-1.4,3.9-.5,1.3-1.1,2.5-1.8,3.8-.7,1.2-1.4,2.4-2.1,3.6-.8,1.2-1.6,2.3-2.5,3.3-.9,1.1-1.8,2.1-2.8,3.1s-2,1.9-3.1,2.8c-1.1.9-2.2,1.7-3.3,2.5-1.2.8-2.3,1.5-3.6,2.1-1.2.7-2.5,1.3-3.8,1.8-1.3.5-2.6,1-3.9,1.4-1.3.4-2.7.7-4,1s-2.7.5-4.1.6c-1.4.1-2.8.2-4.2.2s-2.8,0-4.2-.2c-1.4-.1-2.8-.3-4.1-.6s-2.7-.6-4-1c-1.3-.4-2.6-.9-3.9-1.4-1.3-.5-2.5-1.1-3.8-1.8-1.2-.7-2.4-1.4-3.6-2.1-1.2-.8-2.3-1.6-3.3-2.5-1.1-.9-2.1-1.8-3.1-2.8s-1.9-2-2.8-3.1c-.9-1.1-1.7-2.2-2.5-3.3-.8-1.2-1.5-2.3-2.1-3.6-.7-1.2-1.3-2.5-1.8-3.8-.5-1.3-1-2.6-1.4-3.9-.4-1.3-.7-2.7-1-4s-.5-2.7-.6-4.1c-.1-1.4-.2-2.8-.2-4.2s0-2.8.2-4.2c.1-1.4.3-2.8.6-4.1s.6-2.7,1-4c.4-1.3.9-2.6,1.4-3.9s1.1-2.5,1.8-3.8c.7-1.2,1.4-2.4,2.1-3.6.8-1.2,1.6-2.3,2.5-3.4.9-1.1,1.8-2.1,2.8-3.1s2-1.9,3.1-2.8c1.1-.9,2.2-1.7,3.3-2.5,1.2-.8,2.3-1.5,3.6-2.1,1.2-.7,2.5-1.3,3.8-1.8s2.6-1,3.9-1.4c1.3-.4,2.7-.7,4-1s2.7-.5,4.1-.6c1.4-.1,2.8-.2,4.2-.2s2.8,0,4.2.2c1.4.1,2.8.3,4.1.6s2.7.6,4,1c1.3.4,2.6.9,3.9,1.4s2.5,1.1,3.8,1.8c1.2.7,2.4,1.4,3.6,2.1,1.2.8,2.3,1.6,3.3,2.5,1.1.9,2.1,1.8,3.1,2.8s1.9,2,2.8,3.1c.9,1.1,1.7,2.2,2.5,3.4.8,1.2,1.5,2.3,2.1,3.6.7,1.2,1.3,2.5,1.8,3.8s1,2.6,1.4,3.9c.4,1.3.7,2.7,1,4s.5,2.7.6,4.1.2,2.8.2,4.2Z"/>
  <path class="cls-5" d="M434.8,190.6c0,.9,0,1.8-.1,2.8,0,.9-.2,1.8-.4,2.7-.2.9-.4,1.8-.7,2.7-.3.9-.6,1.8-.9,2.6-.4.9-.8,1.7-1.2,2.5-.4.8-.9,1.6-1.4,2.4-.5.8-1.1,1.5-1.6,2.2-.6.7-1.2,1.4-1.9,2.1s-1.3,1.3-2,1.9c-.7.6-1.5,1.1-2.2,1.6-.8.5-1.6,1-2.4,1.4-.8.4-1.6.8-2.5,1.2-.9.3-1.7.7-2.6.9-.9.3-1.8.5-2.7.7-.9.2-1.8.3-2.7.4-.9,0-1.8.1-2.8.1s-1.8,0-2.8-.1c-.9,0-1.8-.2-2.7-.4-.9-.2-1.8-.4-2.7-.7-.9-.3-1.8-.6-2.6-.9-.9-.4-1.7-.8-2.5-1.2-.8-.4-1.6-.9-2.4-1.4-.8-.5-1.5-1.1-2.2-1.6-.7-.6-1.4-1.2-2.1-1.9-.7-.7-1.3-1.3-1.9-2.1-.6-.7-1.1-1.5-1.6-2.2-.5-.8-1-1.6-1.4-2.4-.4-.8-.8-1.6-1.2-2.5-.4-.9-.7-1.7-.9-2.6-.3-.9-.5-1.8-.7-2.7-.2-.9-.3-1.8-.4-2.7,0-.9-.1-1.8-.1-2.8s0-1.8.1-2.8c0-.9.2-1.8.4-2.7.2-.9.4-1.8.7-2.7.3-.9.6-1.8.9-2.6.3-.9.7-1.7,1.2-2.5.4-.8.9-1.6,1.4-2.4.5-.8,1.1-1.5,1.6-2.2.6-.7,1.2-1.4,1.9-2.1.7-.7,1.3-1.3,2.1-1.9.7-.6,1.5-1.1,2.2-1.7.8-.5,1.6-1,2.4-1.4s1.6-.8,2.5-1.2,1.7-.7,2.6-.9c.9-.3,1.8-.5,2.7-.7.9-.2,1.8-.3,2.7-.4.9,0,1.8-.1,2.8-.1s1.8,0,2.8.1c.9,0,1.8.2,2.7.4.9.2,1.8.4,2.7.7.9.3,1.8.6,2.6.9s1.7.7,2.5,1.2c.8.4,1.6.9,2.4,1.4.8.5,1.5,1.1,2.2,1.7.7.6,1.4,1.2,2,1.9.7.7,1.3,1.3,1.9,2.1.6.7,1.1,1.5,1.6,2.2.5.8,1,1.6,1.4,2.4.4.8.8,1.7,1.2,2.5.3.9.7,1.7.9,2.6.3.9.5,1.8.7,2.7.2.9.3,1.8.4,2.7,0,.9.1,1.8.1,2.8Z"/>
  <path class="cls-7" d="M419.5,205.7c0,.7,0,1.3-.2,2-.1.7-.3,1.3-.6,1.9-.3.6-.6,1.2-.9,1.8s-.8,1.1-1.3,1.5c-.5.5-1,.9-1.5,1.3s-1.1.7-1.8.9-1.3.4-1.9.6c-.7.1-1.3.2-2,.2s-1.3,0-2-.2c-.7-.1-1.3-.3-1.9-.6s-1.2-.6-1.8-.9c-.6-.4-1.1-.8-1.5-1.3-.5-.5-.9-1-1.3-1.5s-.7-1.1-.9-1.8c-.3-.6-.4-1.2-.6-1.9-.1-.7-.2-1.3-.2-2s0-1.3.2-2c.1-.7.3-1.3.6-1.9s.6-1.2.9-1.8c.4-.6.8-1.1,1.3-1.5.5-.5,1-.9,1.5-1.3.6-.4,1.1-.7,1.8-.9s1.3-.4,1.9-.6,1.3-.2,2-.2,1.3,0,2,.2,1.3.3,1.9.6,1.2.6,1.8.9,1.1.8,1.5,1.3.9,1,1.3,1.5c.4.6.7,1.1.9,1.8.3.6.4,1.3.6,1.9s.2,1.3.2,2Z"/>
  <path class="cls-2" d="M506.1,204.1c0,1.8,0,3.6-.3,5.5-.2,1.8-.4,3.6-.8,5.4-.4,1.8-.8,3.6-1.3,5.3-.5,1.7-1.1,3.5-1.8,5.1-.7,1.7-1.5,3.3-2.3,4.9-.9,1.6-1.8,3.2-2.8,4.7-1,1.5-2.1,3-3.3,4.4-1.2,1.4-2.4,2.8-3.7,4.1-1.3,1.3-2.6,2.5-4,3.7-1.4,1.2-2.9,2.2-4.4,3.3-1.5,1-3.1,2-4.7,2.8s-3.3,1.6-4.9,2.3c-1.7.7-3.4,1.3-5.1,1.8s-3.5,1-5.3,1.3c-1.8.4-3.6.6-5.4.8-1.8.2-3.6.3-5.5.3s-3.6,0-5.5-.3c-1.8-.2-3.6-.4-5.4-.8-1.8-.4-3.6-.8-5.3-1.3s-3.5-1.1-5.1-1.8c-1.7-.7-3.3-1.5-4.9-2.3s-3.2-1.8-4.7-2.8c-1.5-1-3-2.1-4.4-3.3-1.4-1.2-2.8-2.4-4.1-3.7-1.3-1.3-2.5-2.6-3.7-4.1-1.2-1.4-2.2-2.9-3.3-4.4-1-1.5-1.9-3.1-2.8-4.7s-1.6-3.3-2.3-4.9c-.7-1.7-1.3-3.4-1.8-5.1-.5-1.7-1-3.5-1.3-5.3-.4-1.8-.6-3.6-.8-5.4s-.3-3.6-.3-5.5,0-3.6.3-5.5c.2-1.8.4-3.6.8-5.4.4-1.8.8-3.6,1.3-5.3.5-1.7,1.1-3.5,1.8-5.1.7-1.7,1.5-3.3,2.3-4.9s1.8-3.2,2.8-4.7c1-1.5,2.1-3,3.3-4.4s2.4-2.8,3.7-4.1c1.3-1.3,2.6-2.5,4.1-3.7,1.4-1.2,2.9-2.2,4.4-3.3,1.5-1,3.1-1.9,4.7-2.8,1.6-.9,3.3-1.6,4.9-2.3,1.7-.7,3.4-1.3,5.1-1.8,1.7-.5,3.5-1,5.3-1.3,1.8-.4,3.6-.6,5.4-.8,1.8-.2,3.6-.3,5.5-.3s3.6,0,5.5.3c1.8.2,3.6.4,5.4.8,1.8.4,3.6.8,5.3,1.3,1.7.5,3.5,1.1,5.1,1.8,1.7.7,3.3,1.5,4.9,2.3,1.6.9,3.2,1.8,4.7,2.8,1.5,1,3,2.1,4.4,3.3,1.4,1.2,2.8,2.4,4,3.7,1.3,1.3,2.5,2.6,3.7,4.1s2.2,2.9,3.3,4.4c1,1.5,1.9,3.1,2.8,4.7.9,1.6,1.6,3.3,2.3,4.9.7,1.7,1.3,3.4,1.8,5.1.5,1.7,1,3.5,1.3,5.3.4,1.8.6,3.6.8,5.4.2,1.8.3,3.6.3,5.5Z"/>
  <path class="cls-3" d="M494.9,214.6c0,1.4,0,2.8-.2,4.2-.1,1.4-.3,2.8-.6,4.1s-.6,2.7-1,4c-.4,1.3-.9,2.6-1.4,3.9s-1.1,2.5-1.8,3.8-1.4,2.4-2.1,3.6c-.8,1.2-1.6,2.3-2.5,3.3-.9,1.1-1.8,2.1-2.8,3.1s-2,1.9-3.1,2.8c-1.1.9-2.2,1.7-3.3,2.5s-2.3,1.5-3.6,2.1c-1.2.7-2.5,1.3-3.8,1.8s-2.6,1-3.9,1.4c-1.3.4-2.7.7-4,1-1.4.3-2.7.5-4.1.6s-2.8.2-4.2.2-2.8,0-4.2-.2c-1.4-.1-2.8-.3-4.1-.6-1.4-.3-2.7-.6-4-1-1.3-.4-2.6-.9-3.9-1.4s-2.5-1.1-3.8-1.8c-1.2-.7-2.4-1.4-3.6-2.1s-2.3-1.6-3.3-2.5c-1.1-.9-2.1-1.8-3.1-2.8s-1.9-2-2.8-3.1c-.9-1.1-1.7-2.2-2.5-3.3-.8-1.2-1.5-2.3-2.1-3.6s-1.3-2.5-1.8-3.8-1-2.6-1.4-3.9c-.4-1.3-.7-2.7-1-4s-.5-2.7-.6-4.1-.2-2.8-.2-4.2,0-2.8.2-4.2c.1-1.4.3-2.8.6-4.1s.6-2.7,1-4c.4-1.3.9-2.6,1.4-3.9s1.1-2.5,1.8-3.8c.7-1.2,1.4-2.4,2.1-3.6.8-1.2,1.6-2.3,2.5-3.3.9-1.1,1.8-2.1,2.8-3.1s2-1.9,3.1-2.8c1.1-.9,2.2-1.7,3.3-2.5,1.2-.8,2.3-1.5,3.6-2.1,1.2-.7,2.5-1.3,3.8-1.8,1.3-.5,2.6-1,3.9-1.4,1.3-.4,2.7-.7,4-1s2.7-.5,4.1-.6c1.4-.1,2.8-.2,4.2-.2s2.8,0,4.2.2,2.8.3,4.1.6,2.7.6,4,1c1.3.4,2.6.9,3.9,1.4,1.3.5,2.5,1.1,3.8,1.8,1.2.7,2.4,1.4,3.6,2.1,1.2.8,2.3,1.6,3.3,2.5,1.1.9,2.1,1.8,3.1,2.8s1.9,2,2.8,3.1c.9,1.1,1.7,2.2,2.5,3.3.8,1.2,1.5,2.3,2.1,3.6.7,1.2,1.3,2.5,1.8,3.8s1,2.6,1.4,3.9c.4,1.3.7,2.7,1,4s.5,2.7.6,4.1c.1,1.4.2,2.8.2,4.2Z"/>
  <path class="cls-5" d="M483,227.2c0,.9,0,1.8-.1,2.8,0,.9-.2,1.8-.4,2.7-.2.9-.4,1.8-.7,2.7-.3.9-.6,1.8-.9,2.6-.3.9-.7,1.7-1.2,2.5-.4.8-.9,1.6-1.4,2.4-.5.8-1.1,1.5-1.6,2.2-.6.7-1.2,1.4-1.9,2.1s-1.3,1.3-2.1,1.9c-.7.6-1.5,1.1-2.2,1.7-.8.5-1.6,1-2.4,1.4-.8.4-1.6.8-2.5,1.2s-1.7.7-2.6.9c-.9.3-1.8.5-2.7.7-.9.2-1.8.3-2.7.4-.9,0-1.8.1-2.8.1s-1.8,0-2.8-.1c-.9,0-1.8-.2-2.7-.4-.9-.2-1.8-.4-2.7-.7-.9-.3-1.8-.6-2.6-.9s-1.7-.8-2.5-1.2c-.8-.4-1.6-.9-2.4-1.4-.8-.5-1.5-1.1-2.2-1.7-.7-.6-1.4-1.2-2-1.9-.7-.7-1.3-1.3-1.9-2.1-.6-.7-1.1-1.5-1.6-2.2-.5-.8-1-1.6-1.4-2.4-.4-.8-.8-1.6-1.2-2.5-.3-.9-.7-1.7-.9-2.6-.3-.9-.5-1.8-.7-2.7-.2-.9-.3-1.8-.4-2.7,0-.9-.1-1.8-.1-2.8s0-1.8.1-2.8c0-.9.2-1.8.4-2.7.2-.9.4-1.8.7-2.7.3-.9.6-1.8.9-2.6.4-.9.8-1.7,1.2-2.5.4-.8.9-1.6,1.4-2.4.5-.8,1.1-1.5,1.6-2.2.6-.7,1.2-1.4,1.9-2.1s1.3-1.3,2-1.9c.7-.6,1.5-1.1,2.2-1.6.8-.5,1.6-1,2.4-1.4.8-.4,1.6-.8,2.5-1.2s1.7-.7,2.6-.9c.9-.3,1.8-.5,2.7-.7.9-.2,1.8-.3,2.7-.4.9,0,1.8-.1,2.8-.1s1.8,0,2.8.1,1.8.2,2.7.4c.9.2,1.8.4,2.7.7.9.3,1.8.6,2.6.9s1.7.8,2.5,1.2c.8.4,1.6.9,2.4,1.4.8.5,1.5,1.1,2.2,1.6.7.6,1.4,1.2,2.1,1.9.7.7,1.3,1.3,1.9,2.1.6.7,1.1,1.5,1.6,2.2.5.8,1,1.6,1.4,2.4.4.8.8,1.6,1.2,2.5.4.9.7,1.7.9,2.6.3.9.5,1.8.7,2.7.2.9.3,1.8.4,2.7,0,.9.1,1.8.1,2.8Z"/>
  <path class="cls-7" d="M467.8,242.2c0,.7,0,1.3-.2,2-.1.7-.3,1.3-.6,1.9s-.6,1.2-.9,1.8c-.4.6-.8,1.1-1.3,1.5s-1,.9-1.5,1.3-1.1.7-1.8.9-1.2.4-1.9.6c-.7.1-1.3.2-2,.2s-1.3,0-2-.2c-.7-.1-1.3-.3-1.9-.6s-1.2-.6-1.8-.9c-.6-.4-1.1-.8-1.5-1.3-.5-.5-.9-1-1.3-1.5-.4-.6-.7-1.1-.9-1.8s-.4-1.3-.6-1.9c-.1-.7-.2-1.3-.2-2s0-1.3.2-2c.1-.7.3-1.3.6-1.9s.6-1.2.9-1.8.8-1.1,1.3-1.5c.5-.5,1-.9,1.5-1.3.6-.4,1.1-.7,1.8-.9s1.2-.4,1.9-.6c.7-.1,1.3-.2,2-.2s1.3,0,2,.2c.7.1,1.3.3,1.9.6s1.2.6,1.8.9,1.1.8,1.5,1.3c.5.5.9,1,1.3,1.5s.7,1.1.9,1.8.4,1.3.6,1.9c.1.7.2,1.3.2,2Z"/>
  <path class="cls-2" d="M261.2,425.2c0,1.8,0,3.6-.3,5.5-.2,1.8-.4,3.6-.8,5.4-.4,1.8-.8,3.6-1.3,5.3-.5,1.7-1.1,3.5-1.8,5.1s-1.5,3.3-2.3,4.9-1.8,3.2-2.8,4.7c-1,1.5-2.1,3-3.3,4.4s-2.4,2.8-3.7,4.1-2.6,2.5-4,3.7c-1.4,1.2-2.9,2.2-4.4,3.3-1.5,1-3.1,1.9-4.7,2.8-1.6.9-3.3,1.6-4.9,2.3-1.7.7-3.4,1.3-5.1,1.8-1.7.5-3.5,1-5.3,1.3-1.8.4-3.6.6-5.4.8-1.8.2-3.6.3-5.5.3s-3.6,0-5.5-.3c-1.8-.2-3.6-.4-5.4-.8-1.8-.4-3.6-.8-5.3-1.3-1.7-.5-3.5-1.1-5.1-1.8-1.7-.7-3.3-1.5-4.9-2.3-1.6-.9-3.2-1.8-4.7-2.8-1.5-1-3-2.1-4.4-3.3-1.4-1.2-2.8-2.4-4-3.7-1.3-1.3-2.5-2.6-3.7-4.1-1.2-1.4-2.2-2.9-3.3-4.4-1-1.5-2-3.1-2.8-4.7s-1.6-3.3-2.3-4.9-1.3-3.4-1.8-5.1c-.5-1.7-1-3.5-1.3-5.3-.4-1.8-.6-3.6-.8-5.4-.2-1.8-.3-3.6-.3-5.5s0-3.6.3-5.5c.2-1.8.4-3.6.8-5.4.4-1.8.8-3.6,1.3-5.3.5-1.7,1.1-3.5,1.8-5.1.7-1.7,1.5-3.3,2.3-4.9s1.8-3.2,2.8-4.7c1-1.5,2.1-3,3.3-4.4,1.2-1.4,2.4-2.8,3.7-4.1s2.6-2.5,4-3.7c1.4-1.2,2.9-2.2,4.4-3.3s3.1-1.9,4.7-2.8c1.6-.9,3.3-1.6,4.9-2.3,1.7-.7,3.4-1.3,5.1-1.8s3.5-1,5.3-1.3c1.8-.4,3.6-.6,5.4-.8,1.8-.2,3.6-.3,5.5-.3s3.6,0,5.5.3c1.8.2,3.6.4,5.4.8s3.6.8,5.3,1.3,3.5,1.1,5.1,1.8c1.7.7,3.3,1.5,4.9,2.3,1.6.9,3.2,1.8,4.7,2.8s3,2.1,4.4,3.3,2.8,2.4,4,3.7c1.3,1.3,2.5,2.6,3.7,4.1,1.2,1.4,2.2,2.9,3.3,4.4,1,1.5,1.9,3.1,2.8,4.7s1.6,3.3,2.3,4.9c.7,1.7,1.3,3.4,1.8,5.1.5,1.7,1,3.5,1.3,5.3.4,1.8.6,3.6.8,5.4.2,1.8.3,3.6.3,5.5Z"/>
  <path class="cls-3" d="M249.9,435.7c0,1.4,0,2.8-.2,4.2s-.3,2.8-.6,4.1c-.3,1.4-.6,2.7-1,4-.4,1.3-.9,2.6-1.4,3.9-.5,1.3-1.1,2.5-1.8,3.8-.7,1.2-1.4,2.4-2.1,3.6-.8,1.2-1.6,2.3-2.5,3.4-.9,1.1-1.8,2.1-2.8,3.1-1,1-2,1.9-3.1,2.8-1.1.9-2.2,1.7-3.3,2.5-1.2.8-2.3,1.5-3.6,2.1s-2.5,1.3-3.8,1.8c-1.3.5-2.6,1-3.9,1.4-1.3.4-2.7.7-4,1-1.4.3-2.7.5-4.1.6-1.4.1-2.8.2-4.2.2s-2.8,0-4.2-.2c-1.4-.1-2.8-.3-4.1-.6s-2.7-.6-4-1c-1.3-.4-2.6-.9-3.9-1.4-1.3-.5-2.5-1.1-3.8-1.8-1.2-.7-2.4-1.4-3.6-2.1-1.2-.8-2.3-1.6-3.3-2.5-1.1-.9-2.1-1.8-3.1-2.8s-1.9-2-2.8-3.1c-.9-1.1-1.7-2.2-2.5-3.4-.8-1.2-1.5-2.3-2.1-3.6-.7-1.2-1.3-2.5-1.8-3.8-.5-1.3-1-2.6-1.4-3.9-.4-1.3-.7-2.7-1-4s-.5-2.7-.6-4.1-.2-2.8-.2-4.2,0-2.8.2-4.2.3-2.8.6-4.1.6-2.7,1-4c.4-1.3.9-2.6,1.4-3.9.5-1.3,1.1-2.5,1.8-3.8.7-1.2,1.4-2.4,2.1-3.6.8-1.2,1.6-2.3,2.5-3.4.9-1.1,1.8-2.1,2.8-3.1s2-1.9,3.1-2.8c1.1-.9,2.2-1.7,3.3-2.5,1.2-.8,2.3-1.5,3.6-2.1,1.2-.7,2.5-1.3,3.8-1.8,1.3-.5,2.6-1,3.9-1.4,1.3-.4,2.7-.7,4-1s2.7-.5,4.1-.6c1.4-.1,2.8-.2,4.2-.2s2.8,0,4.2.2c1.4.1,2.8.3,4.1.6s2.7.6,4,1c1.3.4,2.6.9,3.9,1.4,1.3.5,2.5,1.1,3.8,1.8s2.4,1.4,3.6,2.1c1.2.8,2.3,1.6,3.3,2.5,1.1.9,2.1,1.8,3.1,2.8,1,1,1.9,2,2.8,3.1.9,1.1,1.7,2.2,2.5,3.4.8,1.2,1.5,2.3,2.1,3.6.7,1.2,1.3,2.5,1.8,3.8.5,1.3,1,2.6,1.4,3.9.4,1.3.7,2.7,1,4,.3,1.4.5,2.7.6,4.1s.2,2.8.2,4.2Z"/>
  <path class="cls-5" d="M238,448.3c0,.9,0,1.8-.1,2.8,0,.9-.2,1.8-.4,2.7-.2.9-.4,1.8-.7,2.7-.3.9-.6,1.8-.9,2.6s-.7,1.7-1.2,2.5c-.4.8-.9,1.6-1.4,2.4-.5.8-1.1,1.5-1.7,2.2-.6.7-1.2,1.4-1.9,2.1-.7.7-1.3,1.3-2.1,1.9-.7.6-1.5,1.1-2.2,1.6-.8.5-1.6,1-2.4,1.4-.8.4-1.7.8-2.5,1.2-.8.4-1.7.7-2.6.9-.9.3-1.8.5-2.7.7s-1.8.3-2.7.4c-.9,0-1.8.1-2.8.1s-1.8,0-2.8-.1c-.9,0-1.8-.2-2.7-.4s-1.8-.4-2.7-.7c-.9-.3-1.8-.6-2.6-.9-.8-.4-1.7-.8-2.5-1.2-.8-.4-1.6-.9-2.4-1.4-.8-.5-1.5-1.1-2.2-1.6-.7-.6-1.4-1.2-2.1-1.9-.7-.7-1.3-1.3-1.9-2.1-.6-.7-1.1-1.5-1.6-2.2-.5-.8-1-1.6-1.4-2.4-.4-.8-.8-1.6-1.2-2.5s-.7-1.7-.9-2.6c-.3-.9-.5-1.8-.7-2.7-.2-.9-.3-1.8-.4-2.7,0-.9-.1-1.8-.1-2.8s0-1.8.1-2.8c0-.9.2-1.8.4-2.7.2-.9.4-1.8.7-2.7.3-.9.6-1.8.9-2.6.4-.9.7-1.7,1.2-2.5.4-.8.9-1.6,1.4-2.4.5-.8,1.1-1.5,1.6-2.2.6-.7,1.2-1.4,1.9-2s1.3-1.3,2.1-1.9c.7-.6,1.5-1.1,2.2-1.7.8-.5,1.6-1,2.4-1.4.8-.4,1.7-.8,2.5-1.2.9-.4,1.7-.7,2.6-.9.9-.3,1.8-.5,2.7-.7.9-.2,1.8-.3,2.7-.4.9,0,1.8-.1,2.8-.1s1.8,0,2.8.1c.9,0,1.8.2,2.7.4.9.2,1.8.4,2.7.7.9.3,1.8.6,2.6.9.9.3,1.7.7,2.5,1.2.8.4,1.6.9,2.4,1.4.8.5,1.5,1.1,2.2,1.7.7.6,1.4,1.2,2.1,1.9s1.3,1.3,1.9,2c.6.7,1.1,1.5,1.7,2.2.5.8,1,1.6,1.4,2.4.4.8.8,1.7,1.2,2.5.4.8.7,1.7.9,2.6.3.9.5,1.8.7,2.7.2.9.3,1.8.4,2.7,0,.9.1,1.8.1,2.8Z"/>
  <path class="cls-7" d="M222.8,463.4c0,.7,0,1.3-.2,2-.1.7-.3,1.3-.6,1.9-.3.6-.6,1.2-.9,1.8s-.8,1.1-1.3,1.5c-.5.5-1,.9-1.5,1.3s-1.1.7-1.8.9-1.3.4-1.9.6c-.7.1-1.3.2-2,.2s-1.3,0-2-.2c-.7-.1-1.3-.3-1.9-.6s-1.2-.6-1.8-.9-1.1-.8-1.5-1.3c-.5-.5-.9-1-1.3-1.5s-.7-1.1-.9-1.8c-.3-.6-.4-1.2-.6-1.9-.1-.7-.2-1.3-.2-2s0-1.3.2-2,.3-1.3.6-1.9c.3-.6.6-1.2.9-1.8.4-.6.8-1.1,1.3-1.5.5-.5,1-.9,1.5-1.3s1.1-.7,1.8-.9,1.3-.4,1.9-.6,1.3-.2,2-.2,1.3,0,2,.2,1.3.3,1.9.6,1.2.6,1.8.9,1.1.8,1.5,1.3c.5.5.9,1,1.3,1.5.4.6.7,1.1.9,1.8s.4,1.3.6,1.9.2,1.3.2,2Z"/>
  <path class="cls-2" d="M218.1,369c0,1.8,0,3.6-.3,5.5-.2,1.8-.4,3.6-.8,5.4-.4,1.8-.8,3.6-1.3,5.3s-1.1,3.5-1.8,5.1c-.7,1.7-1.5,3.3-2.3,4.9s-1.8,3.2-2.8,4.7c-1,1.5-2.1,3-3.3,4.4s-2.4,2.8-3.7,4.1c-1.3,1.3-2.6,2.5-4,3.7s-2.9,2.2-4.4,3.3c-1.5,1-3.1,1.9-4.7,2.8-1.6.9-3.3,1.6-4.9,2.3-1.7.7-3.4,1.3-5.1,1.8s-3.5,1-5.3,1.3c-1.8.4-3.6.6-5.4.8-1.8.2-3.6.3-5.5.3s-3.6,0-5.5-.3c-1.8-.2-3.6-.4-5.4-.8-1.8-.4-3.6-.8-5.3-1.3s-3.5-1.1-5.1-1.8c-1.7-.7-3.3-1.5-4.9-2.3-1.6-.9-3.2-1.8-4.7-2.8s-3-2.1-4.4-3.3c-1.4-1.2-2.8-2.4-4-3.7-1.3-1.3-2.5-2.6-3.7-4.1-1.2-1.4-2.2-2.9-3.3-4.4-1-1.5-2-3.1-2.8-4.7s-1.6-3.3-2.3-4.9c-.7-1.7-1.3-3.4-1.8-5.1-.5-1.7-1-3.5-1.3-5.3-.4-1.8-.6-3.6-.8-5.4-.2-1.8-.3-3.6-.3-5.5s0-3.6.3-5.5c.2-1.8.4-3.6.8-5.4.4-1.8.8-3.6,1.3-5.3.5-1.7,1.1-3.5,1.8-5.1.7-1.7,1.5-3.3,2.3-4.9s1.8-3.2,2.8-4.7c1-1.5,2.1-3,3.3-4.4,1.2-1.4,2.4-2.8,3.7-4.1,1.3-1.3,2.6-2.5,4-3.7,1.4-1.2,2.9-2.2,4.4-3.3s3.1-2,4.7-2.8c1.6-.9,3.3-1.6,4.9-2.3,1.7-.7,3.4-1.3,5.1-1.8s3.5-1,5.3-1.3c1.8-.4,3.6-.6,5.4-.8,1.8-.2,3.6-.3,5.5-.3,1.8,0,3.6,0,5.5.3,1.8.2,3.6.4,5.4.8,1.8.4,3.6.8,5.3,1.3s3.5,1.1,5.1,1.8c1.7.7,3.3,1.5,4.9,2.3s3.2,1.8,4.7,2.8c1.5,1,3,2.1,4.4,3.3s2.8,2.4,4,3.7c1.3,1.3,2.5,2.6,3.7,4.1,1.2,1.4,2.2,2.9,3.3,4.4,1,1.5,1.9,3.1,2.8,4.7s1.6,3.3,2.3,4.9c.7,1.7,1.3,3.4,1.8,5.1s1,3.5,1.3,5.3c.4,1.8.6,3.6.8,5.4.2,1.8.3,3.6.3,5.5Z"/>
  <path class="cls-3" d="M206.9,379.4c0,1.4,0,2.8-.2,4.2s-.3,2.8-.6,4.1-.6,2.7-1,4c-.4,1.3-.9,2.6-1.4,3.9-.5,1.3-1.1,2.5-1.8,3.8-.7,1.2-1.4,2.4-2.1,3.6-.8,1.2-1.6,2.3-2.5,3.3-.9,1.1-1.8,2.1-2.8,3.1-1,1-2,1.9-3.1,2.8-1.1.9-2.2,1.7-3.3,2.5-1.2.8-2.3,1.5-3.6,2.1-1.2.7-2.5,1.3-3.8,1.8-1.3.5-2.6,1-3.9,1.4-1.3.4-2.7.7-4,1s-2.7.5-4.1.6-2.8.2-4.2.2-2.8,0-4.2-.2-2.8-.3-4.1-.6-2.7-.6-4-1c-1.3-.4-2.6-.9-3.9-1.4-1.3-.5-2.5-1.1-3.8-1.8-1.2-.7-2.4-1.4-3.6-2.1-1.2-.8-2.3-1.6-3.3-2.5-1.1-.9-2.1-1.8-3.1-2.8-1-1-1.9-2-2.8-3.1-.9-1.1-1.7-2.2-2.5-3.3-.8-1.2-1.5-2.4-2.1-3.6-.7-1.2-1.3-2.5-1.8-3.8-.5-1.3-1-2.6-1.4-3.9-.4-1.3-.7-2.7-1-4s-.5-2.7-.6-4.1-.2-2.8-.2-4.2,0-2.8.2-4.2.3-2.8.6-4.1.6-2.7,1-4c.4-1.3.9-2.6,1.4-3.9.5-1.3,1.1-2.5,1.8-3.8.7-1.2,1.4-2.4,2.1-3.6.8-1.2,1.6-2.3,2.5-3.3.9-1.1,1.8-2.1,2.8-3.1,1-1,2-1.9,3.1-2.8,1.1-.9,2.2-1.7,3.3-2.5,1.2-.8,2.3-1.5,3.6-2.1,1.2-.7,2.5-1.3,3.8-1.8,1.3-.5,2.6-1,3.9-1.4,1.3-.4,2.7-.7,4-1s2.7-.5,4.1-.6c1.4-.1,2.8-.2,4.2-.2s2.8,0,4.2.2c1.4.1,2.8.3,4.1.6s2.7.6,4,1c1.3.4,2.6.9,3.9,1.4,1.3.5,2.5,1.1,3.8,1.8,1.2.7,2.4,1.4,3.6,2.1,1.2.8,2.3,1.6,3.3,2.5,1.1.9,2.1,1.8,3.1,2.8,1,1,1.9,2,2.8,3.1.9,1.1,1.7,2.2,2.5,3.3.8,1.2,1.5,2.3,2.1,3.6.7,1.2,1.3,2.5,1.8,3.8.5,1.3,1,2.6,1.4,3.9.4,1.3.7,2.7,1,4s.5,2.7.6,4.1.2,2.8.2,4.2Z"/>
  <path class="cls-5" d="M195,392c0,.9,0,1.8-.1,2.8,0,.9-.2,1.8-.4,2.7-.2.9-.4,1.8-.7,2.7-.3.9-.6,1.8-.9,2.6s-.8,1.7-1.2,2.5c-.4.8-.9,1.6-1.4,2.4-.5.8-1.1,1.5-1.7,2.2-.6.7-1.2,1.4-1.9,2.1-.7.7-1.3,1.3-2.1,1.9-.7.6-1.5,1.1-2.2,1.6-.8.5-1.6,1-2.4,1.4-.8.4-1.7.8-2.5,1.2-.8.3-1.7.7-2.6.9-.9.3-1.8.5-2.7.7-.9.2-1.8.3-2.7.4-.9,0-1.8.1-2.8.1s-1.8,0-2.8-.1c-.9,0-1.8-.2-2.7-.4-.9-.2-1.8-.4-2.7-.7-.9-.3-1.8-.6-2.6-.9-.9-.4-1.7-.8-2.5-1.2-.8-.4-1.6-.9-2.4-1.4-.8-.5-1.5-1.1-2.2-1.6-.7-.6-1.4-1.2-2-1.9s-1.3-1.3-1.9-2.1c-.6-.7-1.1-1.5-1.7-2.2-.5-.8-1-1.6-1.4-2.4-.4-.8-.8-1.6-1.2-2.5s-.7-1.7-.9-2.6c-.3-.9-.5-1.8-.7-2.7-.2-.9-.3-1.8-.4-2.7,0-.9-.1-1.8-.1-2.8s0-1.8.1-2.8c0-.9.2-1.8.4-2.7.2-.9.4-1.8.7-2.7.3-.9.6-1.8.9-2.6s.8-1.7,1.2-2.5c.4-.8.9-1.6,1.4-2.4.5-.8,1.1-1.5,1.7-2.2.6-.7,1.2-1.4,1.9-2.1.7-.7,1.3-1.3,2-1.9.7-.6,1.5-1.1,2.2-1.6.8-.5,1.6-1,2.4-1.4.8-.4,1.7-.8,2.5-1.2.8-.4,1.7-.7,2.6-.9.9-.3,1.8-.5,2.7-.7s1.8-.3,2.7-.4c.9,0,1.8-.1,2.8-.1s1.8,0,2.8.1c.9,0,1.8.2,2.7.4s1.8.4,2.7.7c.9.3,1.8.6,2.6.9.9.4,1.7.8,2.5,1.2.8.4,1.6.9,2.4,1.4.8.5,1.5,1.1,2.2,1.6.7.6,1.4,1.2,2.1,1.9.7.7,1.3,1.3,1.9,2.1.6.7,1.1,1.5,1.7,2.2.5.8,1,1.6,1.4,2.4.4.8.8,1.7,1.2,2.5s.7,1.7.9,2.6c.3.9.5,1.8.7,2.7.2.9.3,1.8.4,2.7,0,.9.1,1.8.1,2.8Z"/>
  <path class="cls-7" d="M179.7,407.1c0,.7,0,1.3-.2,2-.1.7-.3,1.3-.6,1.9s-.6,1.2-.9,1.8-.8,1.1-1.3,1.5-1,.9-1.5,1.3c-.6.4-1.1.7-1.8.9s-1.3.4-1.9.6-1.3.2-2,.2-1.3,0-2-.2-1.3-.3-1.9-.6-1.2-.6-1.8-.9-1.1-.8-1.5-1.3c-.5-.5-.9-1-1.3-1.5s-.7-1.1-.9-1.8c-.3-.6-.4-1.3-.6-1.9-.1-.7-.2-1.3-.2-2s0-1.3.2-2c.1-.7.3-1.3.6-1.9.3-.6.6-1.2.9-1.8.4-.6.8-1.1,1.3-1.5s1-.9,1.5-1.3,1.1-.7,1.8-.9,1.3-.4,1.9-.6,1.3-.2,2-.2,1.3,0,2,.2,1.3.3,1.9.6,1.2.6,1.8.9c.6.4,1.1.8,1.5,1.3.5.5.9,1,1.3,1.5.4.6.7,1.1.9,1.8s.4,1.3.6,1.9c.1.7.2,1.3.2,2Z"/>
  <path class="cls-2" d="M320.3,429.1c5.7,30.2-14.2,59.4-44.4,65.1-30.2,5.7-59.3-14.2-65-44.4-5.7-30.2,14.2-59.4,44.4-65.1,30.2-5.7,59.3,14.2,65,44.4Z"/>
  <path class="cls-3" d="M310,449.9c0,1.4,0,2.8-.2,4.2s-.3,2.8-.6,4.1c-.3,1.4-.6,2.7-1,4-.4,1.3-.9,2.6-1.4,3.9s-1.1,2.5-1.8,3.8-1.4,2.4-2.1,3.6c-.8,1.2-1.6,2.3-2.5,3.3-.9,1.1-1.8,2.1-2.8,3.1s-2,1.9-3.1,2.8c-1.1.9-2.2,1.7-3.3,2.5-1.2.8-2.3,1.5-3.6,2.1-1.2.7-2.5,1.3-3.8,1.8-1.3.5-2.6,1-3.9,1.4-1.3.4-2.7.7-4,1-1.4.3-2.7.5-4.1.6-1.4.1-2.8.2-4.2.2s-2.8,0-4.2-.2-2.8-.3-4.1-.6c-1.4-.3-2.7-.6-4-1-1.3-.4-2.6-.9-3.9-1.4-1.3-.5-2.5-1.1-3.8-1.8-1.2-.7-2.4-1.4-3.6-2.1-1.2-.8-2.3-1.6-3.3-2.5-1.1-.9-2.1-1.8-3.1-2.8s-1.9-2-2.8-3.1c-.9-1.1-1.7-2.2-2.5-3.3-.8-1.2-1.5-2.3-2.1-3.6s-1.3-2.5-1.8-3.8-1-2.6-1.4-3.9c-.4-1.3-.7-2.7-1-4-.3-1.4-.5-2.7-.6-4.1-.1-1.4-.2-2.8-.2-4.2s0-2.8.2-4.2c.1-1.4.3-2.8.6-4.1.3-1.4.6-2.7,1-4,.4-1.3.9-2.6,1.4-3.9s1.1-2.5,1.8-3.8,1.4-2.4,2.1-3.6c.8-1.2,1.6-2.3,2.5-3.3.9-1.1,1.8-2.1,2.8-3.1s2-1.9,3.1-2.8c1.1-.9,2.2-1.7,3.3-2.5,1.2-.8,2.3-1.5,3.6-2.1,1.2-.7,2.5-1.3,3.8-1.8,1.3-.5,2.6-1,3.9-1.4,1.3-.4,2.7-.7,4-1,1.4-.3,2.7-.5,4.1-.6s2.8-.2,4.2-.2,2.8,0,4.2.2c1.4.1,2.8.3,4.1.6,1.4.3,2.7.6,4,1,1.3.4,2.6.9,3.9,1.4,1.3.5,2.5,1.1,3.8,1.8,1.2.7,2.4,1.4,3.6,2.1,1.2.8,2.3,1.6,3.3,2.5,1.1.9,2.1,1.8,3.1,2.8s1.9,2,2.8,3.1c.9,1.1,1.7,2.2,2.5,3.3.8,1.2,1.5,2.3,2.1,3.6s1.3,2.5,1.8,3.8,1,2.6,1.4,3.9c.4,1.3.7,2.7,1,4,.3,1.4.5,2.7.6,4.1s.2,2.8.2,4.2Z"/>
  <path class="cls-5" d="M298.1,462.5c0,.9,0,1.8-.1,2.8,0,.9-.2,1.8-.4,2.7-.2.9-.4,1.8-.7,2.7-.3.9-.6,1.8-.9,2.6-.4.9-.8,1.7-1.2,2.5-.4.8-.9,1.6-1.4,2.4-.5.8-1.1,1.5-1.6,2.2-.6.7-1.2,1.4-1.9,2.1-.7.7-1.3,1.3-2,1.9s-1.5,1.1-2.2,1.7c-.8.5-1.6,1-2.4,1.4-.8.4-1.6.8-2.5,1.2s-1.7.7-2.6.9c-.9.3-1.8.5-2.7.7-.9.2-1.8.3-2.7.4-.9,0-1.8.1-2.8.1s-1.8,0-2.8-.1c-.9,0-1.8-.2-2.7-.4-.9-.2-1.8-.4-2.7-.7-.9-.3-1.8-.6-2.6-.9-.8-.4-1.7-.8-2.5-1.2-.8-.4-1.6-.9-2.4-1.4-.8-.5-1.5-1.1-2.2-1.7s-1.4-1.2-2.1-1.9-1.3-1.3-1.9-2.1c-.6-.7-1.1-1.5-1.7-2.2-.5-.8-1-1.6-1.4-2.4-.4-.8-.8-1.7-1.2-2.5s-.7-1.7-.9-2.6-.5-1.8-.7-2.7-.3-1.8-.4-2.7c0-.9-.1-1.8-.1-2.8s0-1.8.1-2.8c0-.9.2-1.8.4-2.7s.4-1.8.7-2.7c.3-.9.6-1.8.9-2.6.4-.8.7-1.7,1.2-2.5s.9-1.6,1.4-2.4c.5-.8,1.1-1.5,1.7-2.2.6-.7,1.2-1.4,1.9-2.1.7-.7,1.3-1.3,2.1-1.9.7-.6,1.5-1.1,2.2-1.7.8-.5,1.6-1,2.4-1.4.8-.4,1.7-.8,2.5-1.2.9-.4,1.7-.7,2.6-.9.9-.3,1.8-.5,2.7-.7.9-.2,1.8-.3,2.7-.4.9,0,1.8-.1,2.8-.1s1.8,0,2.8.1c.9,0,1.8.2,2.7.4.9.2,1.8.4,2.7.7.9.3,1.8.6,2.6.9.9.3,1.7.7,2.5,1.2.8.4,1.6.9,2.4,1.4s1.5,1.1,2.2,1.7c.7.6,1.4,1.2,2,1.9s1.3,1.3,1.9,2.1c.6.7,1.1,1.5,1.6,2.2.5.8,1,1.6,1.4,2.4.4.8.8,1.7,1.2,2.5.3.9.7,1.7.9,2.6.3.9.5,1.8.7,2.7.2.9.3,1.8.4,2.7,0,.9.1,1.8.1,2.8Z"/>
  <path class="cls-7" d="M282.9,477.6c0,.7,0,1.3-.2,2s-.3,1.3-.6,1.9c-.3.6-.6,1.2-.9,1.8-.4.6-.8,1.1-1.3,1.5-.5.5-1,.9-1.5,1.3s-1.1.7-1.8.9-1.3.4-1.9.6-1.3.2-2,.2-1.3,0-2-.2-1.3-.3-1.9-.6-1.2-.6-1.8-.9-1.1-.8-1.5-1.3c-.5-.5-.9-1-1.3-1.5-.4-.6-.7-1.1-.9-1.8s-.4-1.3-.6-1.9-.2-1.3-.2-2,0-1.3.2-2c.1-.7.3-1.3.6-1.9s.6-1.2.9-1.8.8-1.1,1.3-1.5c.5-.5,1-.9,1.5-1.3s1.1-.7,1.8-.9,1.3-.4,1.9-.6,1.3-.2,2-.2,1.3,0,2,.2,1.3.3,1.9.6,1.2.6,1.8.9,1.1.8,1.5,1.3c.5.5.9,1,1.3,1.5s.7,1.1.9,1.8c.3.6.4,1.2.6,1.9.1.7.2,1.3.2,2Z"/>
  <path class="cls-2" d="M214.5,287.1c5.7,30.2-14.2,59.4-44.4,65.1-30.2,5.7-59.3-14.2-65-44.4-5.7-30.2,14.2-59.4,44.4-65.1,30.2-5.7,59.3,14.2,65,44.4Z"/>
  <path class="cls-3" d="M204.2,307.9c0,1.4,0,2.8-.2,4.2s-.3,2.8-.6,4.1c-.3,1.4-.6,2.7-1,4-.4,1.3-.9,2.6-1.4,3.9s-1.1,2.5-1.8,3.8c-.7,1.2-1.4,2.4-2.1,3.6s-1.6,2.3-2.5,3.3c-.9,1.1-1.8,2.1-2.8,3.1s-2,1.9-3.1,2.8c-1.1.9-2.2,1.7-3.3,2.5-1.2.8-2.3,1.5-3.6,2.1-1.2.7-2.5,1.3-3.8,1.8-1.3.5-2.6,1-3.9,1.4-1.3.4-2.7.7-4,1s-2.7.5-4.1.6-2.8.2-4.2.2-2.8,0-4.2-.2-2.8-.3-4.1-.6-2.7-.6-4-1c-1.3-.4-2.6-.9-3.9-1.4-1.3-.5-2.5-1.1-3.8-1.8s-2.4-1.4-3.6-2.1c-1.2-.8-2.3-1.6-3.3-2.5-1.1-.9-2.1-1.8-3.1-2.8-1-1-1.9-2-2.8-3.1-.9-1.1-1.7-2.2-2.5-3.3-.8-1.2-1.5-2.3-2.1-3.6s-1.3-2.5-1.8-3.8c-.5-1.3-1-2.6-1.4-3.9-.4-1.3-.7-2.7-1-4-.3-1.4-.5-2.7-.6-4.1s-.2-2.8-.2-4.2,0-2.8.2-4.2.3-2.8.6-4.1c.3-1.4.6-2.7,1-4s.9-2.6,1.4-3.9c.5-1.3,1.1-2.5,1.8-3.8s1.4-2.4,2.1-3.6c.8-1.2,1.6-2.3,2.5-3.3.9-1.1,1.8-2.1,2.8-3.1,1-1,2-1.9,3.1-2.8,1.1-.9,2.2-1.7,3.3-2.5,1.2-.8,2.3-1.5,3.6-2.1s2.5-1.3,3.8-1.8c1.3-.5,2.6-1,3.9-1.4,1.3-.4,2.7-.7,4-1,1.4-.3,2.7-.5,4.1-.6s2.8-.2,4.2-.2,2.8,0,4.2.2,2.8.3,4.1.6c1.4.3,2.7.6,4,1,1.3.4,2.6.9,3.9,1.4s2.5,1.1,3.8,1.8c1.2.7,2.4,1.4,3.6,2.1,1.2.8,2.3,1.6,3.3,2.5,1.1.9,2.1,1.8,3.1,2.8s1.9,2,2.8,3.1c.9,1.1,1.7,2.2,2.5,3.3s1.5,2.3,2.1,3.6c.7,1.2,1.3,2.5,1.8,3.8s1,2.6,1.4,3.9c.4,1.3.7,2.7,1,4s.5,2.7.6,4.1.2,2.8.2,4.2Z"/>
  <path class="cls-5" d="M192.3,320.5c0,.9,0,1.8-.1,2.8,0,.9-.2,1.8-.4,2.7-.2.9-.4,1.8-.7,2.7-.3.9-.6,1.8-.9,2.6s-.7,1.7-1.2,2.5c-.4.8-.9,1.6-1.4,2.4-.5.8-1.1,1.5-1.6,2.2-.6.7-1.2,1.4-1.9,2s-1.3,1.3-2.1,1.9c-.7.6-1.5,1.1-2.2,1.7-.8.5-1.6,1-2.4,1.4s-1.7.8-2.5,1.2c-.9.4-1.7.7-2.6.9-.9.3-1.8.5-2.7.7-.9.2-1.8.3-2.7.4-.9,0-1.8.1-2.8.1s-1.8,0-2.8-.1c-.9,0-1.8-.2-2.7-.4-.9-.2-1.8-.4-2.7-.7-.9-.3-1.8-.6-2.6-.9s-1.7-.7-2.5-1.2c-.8-.4-1.6-.9-2.4-1.4-.8-.5-1.5-1.1-2.2-1.7-.7-.6-1.4-1.2-2-1.9-.7-.7-1.3-1.3-1.9-2-.6-.7-1.1-1.5-1.7-2.2-.5-.8-1-1.6-1.4-2.4-.4-.8-.8-1.7-1.2-2.5s-.7-1.7-.9-2.6c-.3-.9-.5-1.8-.7-2.7-.2-.9-.3-1.8-.4-2.7,0-.9-.1-1.8-.1-2.8s0-1.8.1-2.8c0-.9.2-1.8.4-2.7.2-.9.4-1.8.7-2.7.3-.9.6-1.8.9-2.6s.8-1.7,1.2-2.5c.4-.8.9-1.6,1.4-2.4.5-.8,1.1-1.5,1.7-2.2.6-.7,1.2-1.4,1.9-2.1s1.3-1.3,2-1.9c.7-.6,1.5-1.1,2.2-1.6.8-.5,1.6-1,2.4-1.4.8-.4,1.6-.8,2.5-1.2.9-.3,1.7-.7,2.6-.9.9-.3,1.8-.5,2.7-.7.9-.2,1.8-.3,2.7-.4.9,0,1.8-.1,2.8-.1s1.8,0,2.8.1c.9,0,1.8.2,2.7.4.9.2,1.8.4,2.7.7.9.3,1.8.6,2.6.9.8.4,1.7.8,2.5,1.2.8.4,1.6.9,2.4,1.4.8.5,1.5,1.1,2.2,1.6.7.6,1.4,1.2,2.1,1.9.7.7,1.3,1.3,1.9,2.1.6.7,1.1,1.5,1.6,2.2.5.8,1,1.6,1.4,2.4.4.8.8,1.6,1.2,2.5s.7,1.7.9,2.6c.3.9.5,1.8.7,2.7.2.9.3,1.8.4,2.7,0,.9.1,1.8.1,2.8Z"/>
  <path class="cls-7" d="M177.1,335.5c0,.7,0,1.3-.2,2s-.3,1.3-.6,1.9-.6,1.2-.9,1.8c-.4.6-.8,1.1-1.3,1.5s-1,.9-1.5,1.3c-.6.4-1.1.7-1.8.9s-1.2.4-1.9.6c-.7.1-1.3.2-2,.2s-1.3,0-2-.2c-.7-.1-1.3-.3-1.9-.6s-1.2-.6-1.8-.9-1.1-.8-1.5-1.3-.9-1-1.3-1.5c-.4-.6-.7-1.1-.9-1.8s-.4-1.3-.6-1.9-.2-1.3-.2-2,0-1.3.2-2c.1-.7.3-1.3.6-1.9s.6-1.2.9-1.8.8-1.1,1.3-1.5,1-.9,1.5-1.3,1.1-.7,1.8-.9c.6-.3,1.2-.4,1.9-.6.7-.1,1.3-.2,2-.2s1.3,0,2,.2c.7.1,1.3.3,1.9.6.6.3,1.2.6,1.8.9.6.4,1.1.8,1.5,1.3s.9,1,1.3,1.5.7,1.1.9,1.8.4,1.2.6,1.9c.1.7.2,1.3.2,2Z"/>
  <path class="cls-2" d="M295.5,354.3c0,1.8,0,3.6-.3,5.5-.2,1.8-.4,3.6-.8,5.4-.4,1.8-.8,3.6-1.3,5.3-.5,1.7-1.1,3.5-1.8,5.1-.7,1.7-1.5,3.3-2.3,4.9-.9,1.6-1.8,3.2-2.8,4.7-1,1.5-2.1,3-3.3,4.4-1.2,1.4-2.4,2.8-3.7,4-1.3,1.3-2.6,2.5-4,3.7-1.4,1.2-2.9,2.2-4.4,3.3-1.5,1-3.1,2-4.7,2.8-1.6.9-3.3,1.6-4.9,2.3-1.7.7-3.4,1.3-5.1,1.8-1.7.5-3.5,1-5.3,1.3-1.8.4-3.6.6-5.4.8-1.8.2-3.6.3-5.5.3s-3.6,0-5.5-.3c-1.8-.2-3.6-.4-5.4-.8-1.8-.4-3.6-.8-5.3-1.3-1.7-.5-3.5-1.1-5.1-1.8-1.7-.7-3.3-1.5-4.9-2.3-1.6-.9-3.2-1.8-4.7-2.8-1.5-1-3-2.1-4.4-3.3s-2.8-2.4-4-3.7c-1.3-1.3-2.5-2.6-3.7-4-1.2-1.4-2.2-2.9-3.3-4.4-1-1.5-1.9-3.1-2.8-4.7-.9-1.6-1.6-3.3-2.3-4.9-.7-1.7-1.3-3.4-1.8-5.1-.5-1.8-1-3.5-1.3-5.3-.4-1.8-.6-3.6-.8-5.4-.2-1.8-.3-3.6-.3-5.5s0-3.6.3-5.5c.2-1.8.4-3.6.8-5.4.4-1.8.8-3.6,1.3-5.3.5-1.7,1.1-3.5,1.8-5.1.7-1.7,1.5-3.3,2.3-4.9.9-1.6,1.8-3.2,2.8-4.7,1-1.5,2.1-3,3.3-4.4,1.2-1.4,2.4-2.8,3.7-4,1.3-1.3,2.6-2.5,4-3.7s2.9-2.2,4.4-3.3c1.5-1,3.1-2,4.7-2.8,1.6-.9,3.3-1.6,4.9-2.3,1.7-.7,3.4-1.3,5.1-1.8,1.7-.5,3.5-1,5.3-1.3,1.8-.4,3.6-.6,5.4-.8,1.8-.2,3.6-.3,5.5-.3s3.6,0,5.5.3c1.8.2,3.6.4,5.4.8,1.8.4,3.6.8,5.3,1.3,1.7.5,3.5,1.1,5.1,1.8,1.7.7,3.3,1.5,4.9,2.3,1.6.9,3.2,1.8,4.7,2.8,1.5,1,3,2.1,4.4,3.3,1.4,1.2,2.8,2.4,4,3.7,1.3,1.3,2.5,2.6,3.7,4,1.2,1.4,2.2,2.9,3.3,4.4,1,1.5,2,3.1,2.8,4.7.9,1.6,1.6,3.3,2.3,4.9.7,1.7,1.3,3.4,1.8,5.1.5,1.8,1,3.5,1.3,5.3.4,1.8.6,3.6.8,5.4.2,1.8.3,3.6.3,5.5Z"/>
  <path class="cls-3" d="M284.2,364.8c0,1.4,0,2.8-.2,4.2-.1,1.4-.3,2.8-.6,4.1-.3,1.4-.6,2.7-1,4-.4,1.3-.9,2.6-1.4,3.9s-1.1,2.5-1.8,3.8c-.7,1.2-1.4,2.4-2.1,3.6-.8,1.2-1.6,2.3-2.5,3.3-.9,1.1-1.8,2.1-2.8,3.1s-2,1.9-3.1,2.8c-1.1.9-2.2,1.7-3.3,2.5-1.2.8-2.3,1.5-3.6,2.1-1.2.7-2.5,1.3-3.8,1.8-1.3.5-2.6,1-3.9,1.4-1.3.4-2.7.7-4,1s-2.7.5-4.1.6c-1.4.1-2.8.2-4.2.2s-2.8,0-4.2-.2-2.8-.3-4.1-.6-2.7-.6-4-1c-1.3-.4-2.6-.9-3.9-1.4-1.3-.5-2.5-1.1-3.8-1.8-1.2-.7-2.4-1.4-3.6-2.1-1.2-.8-2.3-1.6-3.3-2.5-1.1-.9-2.1-1.8-3.1-2.8s-1.9-2-2.8-3.1c-.9-1.1-1.7-2.2-2.5-3.3-.8-1.2-1.5-2.3-2.1-3.6-.7-1.2-1.3-2.5-1.8-3.8s-1-2.6-1.4-3.9c-.4-1.3-.7-2.7-1-4-.3-1.4-.5-2.7-.6-4.1-.1-1.4-.2-2.8-.2-4.2s0-2.8.2-4.2c.1-1.4.3-2.8.6-4.1s.6-2.7,1-4c.4-1.3.9-2.6,1.4-3.9s1.1-2.5,1.8-3.8,1.4-2.4,2.1-3.6c.8-1.2,1.6-2.3,2.5-3.3.9-1.1,1.8-2.1,2.8-3.1s2-1.9,3.1-2.8c1.1-.9,2.2-1.7,3.3-2.5s2.3-1.5,3.6-2.1c1.2-.7,2.5-1.3,3.8-1.8s2.6-1,3.9-1.4c1.3-.4,2.7-.7,4-1,1.4-.3,2.7-.5,4.1-.6s2.8-.2,4.2-.2,2.8,0,4.2.2c1.4.1,2.8.3,4.1.6,1.4.3,2.7.6,4,1,1.3.4,2.6.9,3.9,1.4,1.3.5,2.5,1.1,3.8,1.8,1.2.7,2.4,1.4,3.6,2.1s2.3,1.6,3.3,2.5c1.1.9,2.1,1.8,3.1,2.8s1.9,2,2.8,3.1c.9,1.1,1.7,2.2,2.5,3.3.8,1.2,1.5,2.3,2.1,3.6s1.3,2.5,1.8,3.8,1,2.6,1.4,3.9c.4,1.3.7,2.7,1,4s.5,2.7.6,4.1.2,2.8.2,4.2Z"/>
  <path class="cls-5" d="M272.3,377.4c0,.9,0,1.8-.1,2.8,0,.9-.2,1.8-.4,2.7-.2.9-.4,1.8-.7,2.7-.3.9-.6,1.8-.9,2.6-.4.9-.8,1.7-1.2,2.5-.4.8-.9,1.6-1.4,2.4-.5.8-1.1,1.5-1.7,2.2-.6.7-1.2,1.4-1.9,2.1-.7.7-1.3,1.3-2.1,1.9-.7.6-1.5,1.1-2.2,1.7-.8.5-1.6,1-2.4,1.4-.8.4-1.7.8-2.5,1.2-.8.3-1.7.7-2.6.9-.9.3-1.8.5-2.7.7-.9.2-1.8.3-2.7.4-.9,0-1.8.1-2.8.1s-1.8,0-2.8-.1c-.9,0-1.8-.2-2.7-.4-.9-.2-1.8-.4-2.7-.7-.9-.3-1.8-.6-2.6-.9-.9-.4-1.7-.8-2.5-1.2-.8-.4-1.6-.9-2.4-1.4-.8-.5-1.5-1.1-2.2-1.7-.7-.6-1.4-1.2-2.1-1.9-.7-.7-1.3-1.3-1.9-2.1-.6-.7-1.1-1.5-1.6-2.2-.5-.8-1-1.6-1.4-2.4-.4-.8-.8-1.7-1.2-2.5-.4-.8-.7-1.7-.9-2.6-.3-.9-.5-1.8-.7-2.7-.2-.9-.3-1.8-.4-2.7,0-.9-.1-1.8-.1-2.8s0-1.8.1-2.8c0-.9.2-1.8.4-2.7.2-.9.4-1.8.7-2.7.3-.9.6-1.8.9-2.6.3-.9.7-1.7,1.2-2.5.4-.8.9-1.6,1.4-2.4.5-.8,1.1-1.5,1.6-2.2.6-.7,1.2-1.4,1.9-2.1.7-.7,1.3-1.3,2.1-1.9.7-.6,1.5-1.1,2.2-1.6.8-.5,1.6-1,2.4-1.4.8-.4,1.6-.8,2.5-1.2s1.7-.7,2.6-.9c.9-.3,1.8-.5,2.7-.7s1.8-.3,2.7-.4c.9,0,1.8-.1,2.8-.1s1.8,0,2.8.1c.9,0,1.8.2,2.7.4s1.8.4,2.7.7c.9.3,1.8.6,2.6.9.9.4,1.7.8,2.5,1.2.8.4,1.6.9,2.4,1.4.8.5,1.5,1.1,2.2,1.6.7.6,1.4,1.2,2.1,1.9.7.7,1.3,1.3,1.9,2.1.6.7,1.1,1.5,1.7,2.2.5.8,1,1.6,1.4,2.4.4.8.8,1.6,1.2,2.5s.7,1.7.9,2.6c.3.9.5,1.8.7,2.7s.3,1.8.4,2.7c0,.9.1,1.8.1,2.8Z"/>
  <path class="cls-7" d="M257.1,392.5c0,.7,0,1.3-.2,2s-.3,1.3-.6,1.9c-.3.6-.6,1.2-.9,1.8-.4.6-.8,1.1-1.3,1.5-.5.5-1,.9-1.5,1.3s-1.1.7-1.8.9c-.6.3-1.3.4-1.9.6s-1.3.2-2,.2-1.3,0-2-.2-1.3-.3-1.9-.6c-.6-.3-1.2-.6-1.8-.9s-1.1-.8-1.5-1.3c-.5-.5-.9-1-1.3-1.5-.4-.6-.7-1.1-.9-1.8s-.4-1.3-.6-1.9-.2-1.3-.2-2,0-1.3.2-2c.1-.7.3-1.3.6-1.9s.6-1.2.9-1.8c.4-.6.8-1.1,1.3-1.5.5-.5,1-.9,1.5-1.3s1.1-.7,1.8-.9c.6-.3,1.3-.4,1.9-.6s1.3-.2,2-.2,1.3,0,2,.2,1.3.3,1.9.6c.6.3,1.2.6,1.8.9s1.1.8,1.5,1.3c.5.5.9,1,1.3,1.5.4.6.7,1.1.9,1.8.3.6.4,1.2.6,1.9.1.7.2,1.3.2,2Z"/>
  <path class="cls-2" d="M388,393.3c0,1.8,0,3.6-.3,5.5-.2,1.8-.4,3.6-.8,5.4-.4,1.8-.8,3.6-1.3,5.3-.5,1.7-1.1,3.5-1.8,5.1s-1.5,3.3-2.3,4.9-1.8,3.2-2.8,4.7c-1,1.5-2.1,3-3.3,4.4s-2.4,2.8-3.7,4.1c-1.3,1.3-2.6,2.5-4.1,3.7-1.4,1.2-2.9,2.2-4.4,3.3-1.5,1-3.1,1.9-4.7,2.8s-3.3,1.6-4.9,2.3c-1.7.7-3.4,1.3-5.1,1.8-1.7.5-3.5,1-5.3,1.3-1.8.4-3.6.6-5.4.8-1.8.2-3.6.3-5.5.3s-3.6,0-5.5-.3c-1.8-.2-3.6-.4-5.4-.8-1.8-.4-3.6-.8-5.3-1.3-1.7-.5-3.5-1.1-5.1-1.8s-3.3-1.5-4.9-2.3c-1.6-.9-3.2-1.8-4.7-2.8-1.5-1-3-2.1-4.4-3.3-1.4-1.2-2.8-2.4-4-3.7-1.3-1.3-2.5-2.6-3.7-4.1-1.2-1.4-2.2-2.9-3.3-4.4-1-1.5-2-3.1-2.8-4.7s-1.6-3.3-2.3-4.9-1.3-3.4-1.8-5.1c-.5-1.7-1-3.5-1.3-5.3-.4-1.8-.6-3.6-.8-5.4-.2-1.8-.3-3.6-.3-5.5s0-3.6.3-5.5c.2-1.8.4-3.6.8-5.4.4-1.8.8-3.6,1.3-5.3.5-1.8,1.1-3.5,1.8-5.2.7-1.7,1.5-3.3,2.3-4.9s1.8-3.2,2.8-4.7c1-1.5,2.1-3,3.3-4.4,1.2-1.4,2.4-2.8,3.7-4s2.6-2.5,4-3.7c1.4-1.2,2.9-2.2,4.4-3.3,1.5-1,3.1-2,4.7-2.8,1.6-.9,3.3-1.6,4.9-2.3s3.4-1.3,5.1-1.8c1.7-.5,3.5-1,5.3-1.3,1.8-.4,3.6-.6,5.4-.8,1.8-.2,3.6-.3,5.5-.3s3.6,0,5.5.3c1.8.2,3.6.4,5.4.8,1.8.4,3.6.8,5.3,1.3,1.7.5,3.5,1.1,5.1,1.8,1.7.7,3.3,1.5,4.9,2.3s3.2,1.8,4.7,2.8c1.5,1,3,2.1,4.4,3.3,1.4,1.2,2.8,2.4,4.1,3.7s2.5,2.6,3.7,4c1.2,1.4,2.2,2.9,3.3,4.4,1,1.5,1.9,3.1,2.8,4.7s1.6,3.3,2.3,4.9c.7,1.7,1.3,3.4,1.8,5.2.5,1.7,1,3.5,1.3,5.3.4,1.8.6,3.6.8,5.4.2,1.8.3,3.6.3,5.5Z"/>
  <path class="cls-3" d="M376.8,403.8c0,1.4,0,2.8-.2,4.2s-.3,2.8-.6,4.1-.6,2.7-1,4c-.4,1.3-.9,2.6-1.4,3.9-.5,1.3-1.1,2.5-1.8,3.8-.7,1.2-1.4,2.4-2.1,3.6s-1.6,2.3-2.5,3.3c-.9,1.1-1.8,2.1-2.8,3.1s-2,1.9-3.1,2.8c-1.1.9-2.2,1.7-3.3,2.5-1.2.8-2.3,1.5-3.6,2.1-1.2.7-2.5,1.3-3.8,1.8-1.3.5-2.6,1-3.9,1.4-1.3.4-2.7.7-4,1s-2.7.5-4.1.6c-1.4.1-2.8.2-4.2.2s-2.8,0-4.2-.2c-1.4-.1-2.8-.3-4.1-.6s-2.7-.6-4-1c-1.3-.4-2.6-.9-3.9-1.4-1.3-.5-2.5-1.1-3.8-1.8s-2.4-1.4-3.6-2.1c-1.2-.8-2.3-1.6-3.3-2.5-1.1-.9-2.1-1.8-3.1-2.8-1-1-1.9-2-2.8-3.1-.9-1.1-1.7-2.2-2.5-3.3-.8-1.2-1.5-2.3-2.1-3.6-.7-1.2-1.3-2.5-1.8-3.8-.5-1.3-1-2.6-1.4-3.9-.4-1.3-.7-2.7-1-4-.3-1.4-.5-2.7-.6-4.1s-.2-2.8-.2-4.2,0-2.8.2-4.2.3-2.8.6-4.1c.3-1.4.6-2.7,1-4,.4-1.3.9-2.6,1.4-3.9.5-1.3,1.1-2.5,1.8-3.8.7-1.2,1.4-2.4,2.1-3.6.8-1.2,1.6-2.3,2.5-3.3.9-1.1,1.8-2.1,2.8-3.1,1-1,2-1.9,3.1-2.8,1.1-.9,2.2-1.7,3.3-2.5,1.2-.8,2.3-1.5,3.6-2.1s2.5-1.3,3.8-1.8c1.3-.5,2.6-1,3.9-1.4,1.3-.4,2.7-.7,4-1s2.7-.5,4.1-.6,2.8-.2,4.2-.2,2.8,0,4.2.2,2.8.3,4.1.6,2.7.6,4,1c1.3.4,2.6.9,3.9,1.4,1.3.5,2.5,1.1,3.8,1.8,1.2.7,2.4,1.4,3.6,2.1,1.2.8,2.3,1.6,3.3,2.5,1.1.9,2.1,1.8,3.1,2.8s1.9,2,2.8,3.1c.9,1.1,1.7,2.2,2.5,3.3.8,1.2,1.5,2.4,2.1,3.6.7,1.2,1.3,2.5,1.8,3.8.5,1.3,1,2.6,1.4,3.9.4,1.3.7,2.7,1,4s.5,2.7.6,4.1.2,2.8.2,4.2Z"/>
  <path class="cls-5" d="M364.9,416.4c0,.9,0,1.8-.1,2.8,0,.9-.2,1.8-.4,2.7-.2.9-.4,1.8-.7,2.7-.3.9-.6,1.8-.9,2.6-.4.8-.7,1.7-1.2,2.5s-.9,1.6-1.4,2.4c-.5.8-1.1,1.5-1.6,2.2-.6.7-1.2,1.4-1.9,2.1-.7.7-1.3,1.3-2.1,1.9-.7.6-1.5,1.1-2.2,1.7-.8.5-1.6,1-2.4,1.4-.8.4-1.7.8-2.5,1.2-.9.4-1.7.7-2.6.9-.9.3-1.8.5-2.7.7-.9.2-1.8.3-2.7.4-.9,0-1.8.1-2.8.1s-1.8,0-2.8-.1c-.9,0-1.8-.2-2.7-.4-.9-.2-1.8-.4-2.7-.7-.9-.3-1.8-.6-2.6-.9-.9-.3-1.7-.7-2.5-1.2-.8-.4-1.6-.9-2.4-1.4-.8-.5-1.5-1.1-2.2-1.7-.7-.6-1.4-1.2-2-1.9s-1.3-1.3-1.9-2.1c-.6-.7-1.1-1.5-1.7-2.2-.5-.8-1-1.6-1.4-2.4-.4-.8-.8-1.7-1.2-2.5-.4-.9-.7-1.7-.9-2.6-.3-.9-.5-1.8-.7-2.7-.2-.9-.3-1.8-.4-2.7,0-.9-.1-1.8-.1-2.8s0-1.8.1-2.8c0-.9.2-1.8.4-2.7.2-.9.4-1.8.7-2.7.3-.9.6-1.8.9-2.6.4-.9.8-1.7,1.2-2.5.4-.8.9-1.6,1.4-2.4.5-.8,1.1-1.5,1.7-2.2.6-.7,1.2-1.4,1.9-2,.7-.7,1.3-1.3,2-1.9.7-.6,1.5-1.1,2.2-1.7.8-.5,1.6-1,2.4-1.4.8-.4,1.6-.8,2.5-1.2s1.7-.7,2.6-.9c.9-.3,1.8-.5,2.7-.7.9-.2,1.8-.3,2.7-.4.9,0,1.8-.1,2.8-.1s1.8,0,2.8.1c.9,0,1.8.2,2.7.4.9.2,1.8.4,2.7.7.9.3,1.8.6,2.6.9.8.4,1.7.7,2.5,1.2.8.4,1.6.9,2.4,1.4.8.5,1.5,1.1,2.2,1.7.7.6,1.4,1.2,2.1,1.9s1.3,1.3,1.9,2c.6.7,1.1,1.5,1.6,2.2.5.8,1,1.6,1.4,2.4.4.8.8,1.7,1.2,2.5.4.8.7,1.7.9,2.6.3.9.5,1.8.7,2.7.2.9.3,1.8.4,2.7,0,.9.1,1.8.1,2.8Z"/>
  <path class="cls-7" d="M349.6,431.4c0,.7,0,1.3-.2,2-.1.7-.3,1.3-.6,1.9s-.6,1.2-.9,1.8-.8,1.1-1.3,1.5-1,.9-1.5,1.3c-.6.4-1.1.7-1.8.9-.6.3-1.2.4-1.9.6-.7.1-1.3.2-2,.2s-1.3,0-2-.2c-.7-.1-1.3-.3-1.9-.6-.6-.3-1.2-.6-1.8-.9s-1.1-.8-1.5-1.3c-.5-.5-.9-1-1.3-1.5-.4-.6-.7-1.1-.9-1.8s-.4-1.2-.6-1.9c-.1-.7-.2-1.3-.2-2s0-1.3.2-2,.3-1.3.6-1.9.6-1.2.9-1.8c.4-.6.8-1.1,1.3-1.5s1-.9,1.5-1.3c.6-.4,1.1-.7,1.8-.9s1.3-.4,1.9-.6c.7-.1,1.3-.2,2-.2s1.3,0,2,.2c.7.1,1.3.3,1.9.6s1.2.6,1.8.9c.6.4,1.1.8,1.5,1.3.5.5.9,1,1.3,1.5.4.6.7,1.1.9,1.8s.4,1.3.6,1.9.2,1.3.2,2Z"/>
  <path class="cls-2" d="M222.7,213c0,1.8,0,3.6-.3,5.5-.2,1.8-.4,3.6-.8,5.4-.4,1.8-.8,3.6-1.3,5.3-.5,1.7-1.1,3.5-1.8,5.1-.7,1.7-1.5,3.3-2.3,4.9s-1.8,3.2-2.8,4.7c-1,1.5-2.1,3-3.3,4.4-1.2,1.4-2.4,2.8-3.7,4.1s-2.6,2.5-4,3.7c-1.4,1.2-2.9,2.2-4.4,3.3-1.5,1-3.1,1.9-4.7,2.8-1.6.9-3.3,1.6-4.9,2.3s-3.4,1.3-5.1,1.8c-1.7.5-3.5,1-5.3,1.3-1.8.4-3.6.6-5.4.8-1.8.2-3.6.3-5.5.3s-3.6,0-5.5-.3c-1.8-.2-3.6-.4-5.4-.8-1.8-.4-3.6-.8-5.3-1.3-1.7-.5-3.5-1.1-5.1-1.8-1.7-.7-3.3-1.5-4.9-2.3s-3.2-1.8-4.7-2.8c-1.5-1-3-2.1-4.4-3.3-1.4-1.2-2.8-2.4-4.1-3.7-1.3-1.3-2.5-2.6-3.7-4.1s-2.2-2.9-3.3-4.4c-1-1.5-1.9-3.1-2.8-4.7-.9-1.6-1.6-3.3-2.3-4.9-.7-1.7-1.3-3.4-1.8-5.1-.5-1.8-1-3.5-1.3-5.3-.4-1.8-.6-3.6-.8-5.4-.2-1.8-.3-3.6-.3-5.5s0-3.6.3-5.5c.2-1.8.4-3.6.8-5.4.4-1.8.8-3.6,1.3-5.3.5-1.7,1.1-3.5,1.8-5.1s1.5-3.3,2.3-4.9c.9-1.6,1.8-3.2,2.8-4.7,1-1.5,2.1-3,3.3-4.4s2.4-2.8,3.7-4.1c1.3-1.3,2.6-2.5,4.1-3.7,1.4-1.2,2.9-2.2,4.4-3.3,1.5-1,3.1-1.9,4.7-2.8s3.3-1.6,4.9-2.3c1.7-.7,3.4-1.3,5.1-1.8,1.7-.5,3.5-1,5.3-1.3,1.8-.4,3.6-.6,5.4-.8,1.8-.2,3.6-.3,5.5-.3s3.6,0,5.5.3c1.8.2,3.6.4,5.4.8,1.8.4,3.6.8,5.3,1.3,1.7.5,3.5,1.1,5.1,1.8s3.3,1.5,4.9,2.3c1.6.9,3.2,1.8,4.7,2.8,1.5,1,3,2.1,4.4,3.3,1.4,1.2,2.8,2.4,4,3.7s2.5,2.6,3.7,4.1c1.2,1.4,2.2,2.9,3.3,4.4,1,1.5,2,3.1,2.8,4.7s1.6,3.3,2.3,4.9,1.3,3.4,1.8,5.1c.5,1.8,1,3.5,1.3,5.3.4,1.8.6,3.6.8,5.4.2,1.8.3,3.6.3,5.5Z"/>
  <path class="cls-3" d="M211.5,223.4c0,1.4,0,2.8-.2,4.2-.1,1.4-.3,2.8-.6,4.1-.3,1.4-.6,2.7-1,4-.4,1.3-.9,2.6-1.4,3.9s-1.1,2.5-1.8,3.8c-.7,1.2-1.4,2.4-2.1,3.6-.8,1.2-1.6,2.3-2.5,3.3-.9,1.1-1.8,2.1-2.8,3.1s-2,1.9-3.1,2.8c-1.1.9-2.2,1.7-3.3,2.5-1.2.8-2.3,1.5-3.6,2.1-1.2.7-2.5,1.3-3.8,1.8-1.3.5-2.6,1-3.9,1.4-1.3.4-2.7.7-4,1s-2.7.5-4.1.6c-1.4.1-2.8.2-4.2.2s-2.8,0-4.2-.2c-1.4-.1-2.8-.3-4.1-.6s-2.7-.6-4-1c-1.3-.4-2.6-.9-3.9-1.4-1.3-.5-2.5-1.1-3.8-1.8-1.2-.7-2.4-1.4-3.6-2.1-1.2-.8-2.3-1.6-3.3-2.5-1.1-.9-2.1-1.8-3.1-2.8s-1.9-2-2.8-3.1c-.9-1.1-1.7-2.2-2.5-3.3-.8-1.2-1.5-2.3-2.1-3.6-.7-1.2-1.3-2.5-1.8-3.8s-1-2.6-1.4-3.9c-.4-1.3-.7-2.7-1-4-.3-1.4-.5-2.7-.6-4.1-.1-1.4-.2-2.8-.2-4.2s0-2.8.2-4.2c.1-1.4.3-2.8.6-4.1s.6-2.7,1-4c.4-1.3.9-2.6,1.4-3.9s1.1-2.5,1.8-3.8,1.4-2.4,2.1-3.6c.8-1.2,1.6-2.3,2.5-3.3.9-1.1,1.8-2.1,2.8-3.1s2-1.9,3.1-2.8c1.1-.9,2.2-1.7,3.3-2.5s2.3-1.5,3.6-2.1c1.2-.7,2.5-1.3,3.8-1.8s2.6-1,3.9-1.4c1.3-.4,2.7-.7,4-1,1.4-.3,2.7-.5,4.1-.6,1.4-.1,2.8-.2,4.2-.2s2.8,0,4.2.2c1.4.1,2.8.3,4.1.6,1.4.3,2.7.6,4,1,1.3.4,2.6.9,3.9,1.4s2.5,1.1,3.8,1.8c1.2.7,2.4,1.4,3.6,2.1s2.3,1.6,3.3,2.5c1.1.9,2.1,1.8,3.1,2.8s1.9,2,2.8,3.1c.9,1.1,1.7,2.2,2.5,3.3.8,1.2,1.5,2.3,2.1,3.6s1.3,2.5,1.8,3.8,1,2.6,1.4,3.9c.4,1.3.7,2.7,1,4s.5,2.7.6,4.1c.1,1.4.2,2.8.2,4.2Z"/>
  <path class="cls-5" d="M199.5,236c0,.9,0,1.8-.1,2.8,0,.9-.2,1.8-.4,2.7-.2.9-.4,1.8-.7,2.7-.3.9-.6,1.8-.9,2.6s-.7,1.7-1.2,2.5c-.4.8-.9,1.6-1.4,2.4-.5.8-1.1,1.5-1.6,2.2-.6.7-1.2,1.4-1.9,2.1-.7.7-1.3,1.3-2.1,1.9-.7.6-1.5,1.1-2.2,1.7-.8.5-1.6,1-2.4,1.4s-1.6.8-2.5,1.2-1.7.7-2.6.9c-.9.3-1.8.5-2.7.7-.9.2-1.8.3-2.7.4-.9,0-1.8.1-2.8.1s-1.8,0-2.8-.1c-.9,0-1.8-.2-2.7-.4-.9-.2-1.8-.4-2.7-.7-.9-.3-1.8-.6-2.6-.9s-1.7-.7-2.5-1.2-1.6-.9-2.4-1.4c-.8-.5-1.5-1.1-2.2-1.7-.7-.6-1.4-1.2-2.1-1.9-.7-.7-1.3-1.3-1.9-2.1-.6-.7-1.1-1.5-1.6-2.2-.5-.8-1-1.6-1.4-2.4-.4-.8-.8-1.7-1.2-2.5s-.7-1.7-.9-2.6c-.3-.9-.5-1.8-.7-2.7-.2-.9-.3-1.8-.4-2.7,0-.9-.1-1.8-.1-2.8s0-1.8.1-2.8c0-.9.2-1.8.4-2.7.2-.9.4-1.8.7-2.7.3-.9.6-1.8.9-2.6.4-.8.7-1.7,1.2-2.5.4-.8.9-1.6,1.4-2.4.5-.8,1.1-1.5,1.6-2.2.6-.7,1.2-1.4,1.9-2,.7-.7,1.3-1.3,2.1-1.9.7-.6,1.5-1.1,2.2-1.7.8-.5,1.6-1,2.4-1.4.8-.4,1.6-.8,2.5-1.2s1.7-.7,2.6-.9c.9-.3,1.8-.5,2.7-.7.9-.2,1.8-.3,2.7-.4.9,0,1.8-.1,2.8-.1s1.8,0,2.8.1c.9,0,1.8.2,2.7.4.9.2,1.8.4,2.7.7.9.3,1.8.6,2.6.9s1.7.7,2.5,1.2c.8.4,1.6.9,2.4,1.4.8.5,1.5,1.1,2.2,1.7.7.6,1.4,1.2,2.1,1.9.7.7,1.3,1.3,1.9,2,.6.7,1.1,1.5,1.6,2.2.5.8,1,1.6,1.4,2.4.4.8.8,1.7,1.2,2.5.4.9.7,1.7.9,2.6.3.9.5,1.8.7,2.7.2.9.3,1.8.4,2.7,0,.9.1,1.8.1,2.8Z"/>
  <path class="cls-7" d="M184.3,251.1c0,.7,0,1.3-.2,2s-.3,1.3-.6,1.9-.6,1.2-.9,1.8c-.4.6-.8,1.1-1.3,1.5-.5.5-1,.9-1.5,1.3s-1.1.7-1.8.9-1.3.4-1.9.6c-.7.1-1.3.2-2,.2s-1.3,0-2-.2c-.7-.1-1.3-.3-1.9-.6s-1.2-.6-1.8-.9c-.6-.4-1.1-.8-1.5-1.3s-.9-1-1.3-1.5c-.4-.6-.7-1.1-.9-1.8s-.4-1.3-.6-1.9c-.1-.7-.2-1.3-.2-2s0-1.3.2-2c.1-.7.3-1.3.6-1.9s.6-1.2.9-1.8.8-1.1,1.3-1.5,1-.9,1.5-1.3c.6-.4,1.1-.7,1.8-.9.6-.3,1.2-.4,1.9-.6.7-.1,1.3-.2,2-.2s1.3,0,2,.2c.7.1,1.3.3,1.9.6.6.3,1.2.6,1.8.9s1.1.8,1.5,1.3c.5.5.9,1,1.3,1.5s.7,1.1.9,1.8.4,1.2.6,1.9c.1.7.2,1.3.2,2Z"/>
  <path class="cls-2" d="M288.2,279.6c0,1.8,0,3.6-.3,5.5-.2,1.8-.4,3.6-.8,5.4-.4,1.8-.8,3.6-1.3,5.3-.5,1.7-1.1,3.5-1.8,5.1-.7,1.7-1.5,3.3-2.3,4.9s-1.8,3.2-2.8,4.7c-1,1.5-2.1,3-3.3,4.4s-2.4,2.8-3.7,4.1c-1.3,1.3-2.6,2.5-4.1,3.7-1.4,1.2-2.9,2.2-4.4,3.3-1.5,1-3.1,1.9-4.7,2.8s-3.3,1.6-4.9,2.3c-1.7.7-3.4,1.3-5.1,1.8-1.7.5-3.5,1-5.3,1.3-1.8.4-3.6.6-5.4.8-1.8.2-3.6.3-5.5.3s-3.6,0-5.5-.3c-1.8-.2-3.6-.4-5.4-.8-1.8-.4-3.6-.8-5.3-1.3-1.7-.5-3.5-1.1-5.1-1.8-1.7-.7-3.3-1.5-4.9-2.3s-3.2-1.8-4.7-2.8c-1.5-1-3-2.1-4.4-3.3-1.4-1.2-2.8-2.4-4-3.7-1.3-1.3-2.5-2.6-3.7-4.1s-2.2-2.9-3.3-4.4c-1-1.5-2-3.1-2.8-4.7s-1.6-3.3-2.3-4.9c-.7-1.7-1.3-3.4-1.8-5.1-.5-1.8-1-3.5-1.3-5.3-.4-1.8-.6-3.6-.8-5.4-.2-1.8-.3-3.6-.3-5.5s0-3.6.3-5.5c.2-1.8.4-3.6.8-5.4.4-1.8.8-3.6,1.3-5.3.5-1.8,1.1-3.5,1.8-5.2.7-1.7,1.5-3.3,2.3-4.9.9-1.6,1.8-3.2,2.8-4.7,1-1.5,2.1-3,3.3-4.4,1.2-1.4,2.4-2.8,3.7-4s2.6-2.5,4-3.7c1.4-1.2,2.9-2.2,4.4-3.3,1.5-1,3.1-2,4.7-2.8s3.3-1.6,4.9-2.3c1.7-.7,3.4-1.3,5.1-1.8,1.7-.5,3.5-1,5.3-1.3,1.8-.4,3.6-.6,5.4-.8,1.8-.2,3.6-.3,5.5-.3s3.6,0,5.5.3c1.8.2,3.6.4,5.4.8,1.8.4,3.6.8,5.3,1.3,1.7.5,3.5,1.1,5.1,1.8,1.7.7,3.3,1.5,4.9,2.3s3.2,1.8,4.7,2.8c1.5,1,3,2.1,4.4,3.3,1.4,1.2,2.8,2.4,4.1,3.7s2.5,2.6,3.7,4c1.2,1.4,2.2,2.9,3.3,4.4,1,1.5,1.9,3.1,2.8,4.7.9,1.6,1.6,3.3,2.3,4.9.7,1.7,1.3,3.4,1.8,5.2.5,1.7,1,3.5,1.3,5.3.4,1.8.6,3.6.8,5.4.2,1.8.3,3.6.3,5.5Z"/>
  <path class="cls-3" d="M276.9,290.1c0,1.4,0,2.8-.2,4.2-.1,1.4-.3,2.8-.6,4.1s-.6,2.7-1,4c-.4,1.3-.9,2.6-1.4,3.9-.5,1.3-1.1,2.5-1.8,3.8-.7,1.2-1.4,2.4-2.1,3.6-.8,1.2-1.6,2.3-2.5,3.3-.9,1.1-1.8,2.1-2.8,3.1s-2,1.9-3.1,2.8c-1.1.9-2.2,1.7-3.3,2.5-1.2.8-2.3,1.5-3.6,2.1-1.2.7-2.5,1.3-3.8,1.8-1.3.5-2.6,1-3.9,1.4-1.3.4-2.7.7-4,1s-2.7.5-4.1.6c-1.4.1-2.8.2-4.2.2s-2.8,0-4.2-.2c-1.4-.1-2.8-.3-4.1-.6s-2.7-.6-4-1c-1.3-.4-2.6-.9-3.9-1.4-1.3-.5-2.5-1.1-3.8-1.8-1.2-.7-2.4-1.4-3.6-2.1-1.2-.8-2.3-1.6-3.3-2.5-1.1-.9-2.1-1.8-3.1-2.8s-1.9-2-2.8-3.1c-.9-1.1-1.7-2.2-2.5-3.3-.8-1.2-1.5-2.3-2.1-3.6-.7-1.2-1.3-2.5-1.8-3.8-.5-1.3-1-2.6-1.4-3.9-.4-1.3-.7-2.7-1-4-.3-1.4-.5-2.7-.6-4.1s-.2-2.8-.2-4.2,0-2.8.2-4.2.3-2.8.6-4.1c.3-1.4.6-2.7,1-4,.4-1.3.9-2.6,1.4-3.9.5-1.3,1.1-2.5,1.8-3.8.7-1.2,1.4-2.4,2.1-3.6.8-1.2,1.6-2.3,2.5-3.3.9-1.1,1.8-2.1,2.8-3.1s2-1.9,3.1-2.8c1.1-.9,2.2-1.7,3.3-2.5,1.2-.8,2.3-1.5,3.6-2.1,1.2-.7,2.5-1.3,3.8-1.8,1.3-.5,2.6-1,3.9-1.4,1.3-.4,2.7-.7,4-1s2.7-.5,4.1-.6c1.4-.1,2.8-.2,4.2-.2s2.8,0,4.2.2,2.8.3,4.1.6,2.7.6,4,1c1.3.4,2.6.9,3.9,1.4s2.5,1.1,3.8,1.8c1.2.7,2.4,1.4,3.6,2.1,1.2.8,2.3,1.6,3.3,2.5,1.1.9,2.1,1.8,3.1,2.8s1.9,2,2.8,3.1c.9,1.1,1.7,2.2,2.5,3.3.8,1.2,1.5,2.4,2.1,3.6.7,1.2,1.3,2.5,1.8,3.8s1,2.6,1.4,3.9c.4,1.3.7,2.7,1,4s.5,2.7.6,4.1c.1,1.4.2,2.8.2,4.2Z"/>
  <path class="cls-5" d="M265,302.7c0,.9,0,1.8-.1,2.8,0,.9-.2,1.8-.4,2.7-.2.9-.4,1.8-.7,2.7-.3.9-.6,1.8-.9,2.6-.4.9-.7,1.7-1.2,2.5-.4.8-.9,1.6-1.4,2.4-.5.8-1.1,1.5-1.6,2.2-.6.7-1.2,1.4-1.9,2-.7.7-1.3,1.3-2.1,1.9-.7.6-1.5,1.1-2.2,1.7-.8.5-1.6,1-2.4,1.4-.8.4-1.6.8-2.5,1.2-.9.4-1.7.7-2.6.9-.9.3-1.8.5-2.7.7-.9.2-1.8.3-2.7.4-.9,0-1.8.1-2.8.1s-1.8,0-2.8-.1c-.9,0-1.8-.2-2.7-.4-.9-.2-1.8-.4-2.7-.7-.9-.3-1.8-.6-2.6-.9-.9-.3-1.7-.7-2.5-1.2-.8-.4-1.6-.9-2.4-1.4s-1.5-1.1-2.2-1.7c-.7-.6-1.4-1.2-2-1.9-.7-.7-1.3-1.3-1.9-2s-1.1-1.5-1.6-2.2c-.5-.8-1-1.6-1.4-2.4-.4-.8-.8-1.7-1.2-2.5-.4-.8-.7-1.7-.9-2.6-.3-.9-.5-1.8-.7-2.7-.2-.9-.3-1.8-.4-2.7,0-.9-.1-1.8-.1-2.8s0-1.8.1-2.8c0-.9.2-1.8.4-2.7.2-.9.4-1.8.7-2.7.3-.9.6-1.8.9-2.6.4-.9.8-1.7,1.2-2.5.4-.8.9-1.6,1.4-2.4.5-.8,1.1-1.5,1.6-2.2s1.2-1.4,1.9-2c.7-.7,1.3-1.3,2-1.9.7-.6,1.5-1.1,2.2-1.7s1.6-1,2.4-1.4c.8-.4,1.6-.8,2.5-1.2.9-.4,1.7-.7,2.6-.9.9-.3,1.8-.5,2.7-.7.9-.2,1.8-.3,2.7-.4.9,0,1.8-.1,2.8-.1s1.8,0,2.8.1c.9,0,1.8.2,2.7.4.9.2,1.8.4,2.7.7.9.3,1.8.6,2.6.9.9.3,1.7.7,2.5,1.2.8.4,1.6.9,2.4,1.4.8.5,1.5,1.1,2.2,1.7.7.6,1.4,1.2,2.1,1.9.7.7,1.3,1.3,1.9,2,.6.7,1.1,1.5,1.6,2.2.5.8,1,1.6,1.4,2.4.4.8.8,1.7,1.2,2.5.4.8.7,1.7.9,2.6.3.9.5,1.8.7,2.7.2.9.3,1.8.4,2.7,0,.9.1,1.8.1,2.8Z"/>
  <path class="cls-7" d="M249.8,317.8c0,.7,0,1.3-.2,2-.1.7-.3,1.3-.6,1.9s-.6,1.2-.9,1.8c-.4.6-.8,1.1-1.3,1.5s-1,.9-1.5,1.3c-.6.4-1.1.7-1.8.9-.6.3-1.2.4-1.9.6-.7.1-1.3.2-2,.2s-1.3,0-2-.2c-.7-.1-1.3-.3-1.9-.6-.6-.3-1.2-.6-1.8-.9-.6-.4-1.1-.8-1.5-1.3s-.9-1-1.3-1.5c-.4-.6-.7-1.1-.9-1.8s-.4-1.2-.6-1.9c-.1-.7-.2-1.3-.2-2s0-1.3.2-2,.3-1.3.6-1.9.6-1.2.9-1.8c.4-.6.8-1.1,1.3-1.5s1-.9,1.5-1.3c.6-.4,1.1-.7,1.8-.9.6-.3,1.2-.4,1.9-.6.7-.1,1.3-.2,2-.2s1.3,0,2,.2c.7.1,1.3.3,1.9.6.6.3,1.2.6,1.8.9.6.4,1.1.8,1.5,1.3s.9,1,1.3,1.5c.4.6.7,1.1.9,1.8s.4,1.3.6,1.9.2,1.3.2,2Z"/>
  <path class="cls-2" d="M357.7,313.1c0,1.8,0,3.6-.3,5.5-.2,1.8-.4,3.6-.8,5.4-.4,1.8-.8,3.6-1.3,5.3-.5,1.7-1.1,3.5-1.8,5.1s-1.5,3.3-2.3,4.9-1.8,3.2-2.8,4.7c-1,1.5-2.1,3-3.3,4.4s-2.4,2.8-3.7,4.1c-1.3,1.3-2.6,2.5-4.1,3.7-1.4,1.2-2.9,2.2-4.4,3.3-1.5,1-3.1,1.9-4.7,2.8s-3.3,1.6-4.9,2.3c-1.7.7-3.4,1.3-5.1,1.8-1.7.5-3.5,1-5.3,1.3-1.8.4-3.6.6-5.4.8-1.8.2-3.6.3-5.5.3s-3.6,0-5.5-.3c-1.8-.2-3.6-.4-5.4-.8-1.8-.4-3.6-.8-5.3-1.3-1.7-.5-3.5-1.1-5.1-1.8-1.7-.7-3.3-1.5-4.9-2.3s-3.2-1.8-4.7-2.8c-1.5-1-3-2.1-4.4-3.3-1.4-1.2-2.8-2.4-4.1-3.7-1.3-1.3-2.5-2.6-3.7-4.1s-2.2-2.9-3.3-4.4c-1-1.5-1.9-3.1-2.8-4.7s-1.6-3.3-2.3-4.9-1.3-3.4-1.8-5.1c-.5-1.7-1-3.5-1.3-5.3-.4-1.8-.6-3.6-.8-5.4-.2-1.8-.3-3.6-.3-5.5,0-1.8,0-3.6.3-5.5s.4-3.6.8-5.4c.4-1.8.8-3.6,1.3-5.3.5-1.7,1.1-3.5,1.8-5.1.7-1.7,1.5-3.3,2.3-4.9s1.8-3.2,2.8-4.7c1-1.5,2.1-3,3.3-4.4,1.2-1.4,2.4-2.8,3.7-4.1,1.3-1.3,2.6-2.5,4.1-3.7,1.4-1.2,2.9-2.2,4.4-3.3s3.1-1.9,4.7-2.8c1.6-.9,3.3-1.6,4.9-2.3,1.7-.7,3.4-1.3,5.1-1.8s3.5-1,5.3-1.3c1.8-.4,3.6-.6,5.4-.8,1.8-.2,3.6-.3,5.5-.3s3.6,0,5.5.3c1.8.2,3.6.4,5.4.8,1.8.4,3.6.8,5.3,1.3s3.5,1.1,5.1,1.8c1.7.7,3.3,1.5,4.9,2.3,1.6.9,3.2,1.8,4.7,2.8s3,2.1,4.4,3.3c1.4,1.2,2.8,2.4,4.1,3.7,1.3,1.3,2.5,2.6,3.7,4.1,1.2,1.4,2.2,2.9,3.3,4.4,1,1.5,1.9,3.1,2.8,4.7s1.6,3.3,2.3,4.9c.7,1.7,1.3,3.4,1.8,5.1.5,1.7,1,3.5,1.3,5.3.4,1.8.6,3.6.8,5.4s.3,3.6.3,5.5Z"/>
  <path class="cls-3" d="M346.5,323.6c0,1.4,0,2.8-.2,4.2-.1,1.4-.3,2.8-.6,4.1s-.6,2.7-1,4c-.4,1.3-.9,2.6-1.4,3.9s-1.1,2.5-1.8,3.8c-.7,1.2-1.4,2.4-2.1,3.6-.8,1.2-1.6,2.3-2.5,3.4-.9,1.1-1.8,2.1-2.8,3.1s-2,1.9-3.1,2.8c-1.1.9-2.2,1.7-3.3,2.5-1.2.8-2.3,1.5-3.6,2.1-1.2.7-2.5,1.3-3.8,1.8-1.3.5-2.6,1-3.9,1.4-1.3.4-2.7.7-4,1s-2.7.5-4.1.6c-1.4.1-2.8.2-4.2.2s-2.8,0-4.2-.2c-1.4-.1-2.8-.3-4.1-.6s-2.7-.6-4-1c-1.3-.4-2.6-.9-3.9-1.4-1.3-.5-2.5-1.1-3.8-1.8-1.2-.7-2.4-1.4-3.6-2.1-1.2-.8-2.3-1.6-3.3-2.5-1.1-.9-2.1-1.8-3.1-2.8s-1.9-2-2.8-3.1c-.9-1.1-1.7-2.2-2.5-3.4-.8-1.2-1.5-2.3-2.1-3.6-.7-1.2-1.3-2.5-1.8-3.8s-1-2.6-1.4-3.9c-.4-1.3-.7-2.7-1-4s-.5-2.7-.6-4.1-.2-2.8-.2-4.2,0-2.8.2-4.2.3-2.8.6-4.1.6-2.7,1-4c.4-1.3.9-2.6,1.4-3.9s1.1-2.5,1.8-3.8c.7-1.2,1.4-2.4,2.1-3.6.8-1.2,1.6-2.3,2.5-3.4.9-1.1,1.8-2.1,2.8-3.1s2-1.9,3.1-2.8c1.1-.9,2.2-1.7,3.3-2.5,1.2-.8,2.3-1.5,3.6-2.1,1.2-.7,2.5-1.3,3.8-1.8,1.3-.5,2.6-1,3.9-1.4,1.3-.4,2.7-.7,4-1s2.7-.5,4.1-.6c1.4-.1,2.8-.2,4.2-.2s2.8,0,4.2.2c1.4.1,2.8.3,4.1.6s2.7.6,4,1c1.3.4,2.6.9,3.9,1.4,1.3.5,2.5,1.1,3.8,1.8,1.2.7,2.4,1.4,3.6,2.1,1.2.8,2.3,1.6,3.3,2.5,1.1.9,2.1,1.8,3.1,2.8s1.9,2,2.8,3.1c.9,1.1,1.7,2.2,2.5,3.4.8,1.2,1.5,2.3,2.1,3.6.7,1.2,1.3,2.5,1.8,3.8s1,2.6,1.4,3.9c.4,1.3.7,2.7,1,4s.5,2.7.6,4.1c.1,1.4.2,2.8.2,4.2Z"/>
  <path class="cls-5" d="M334.6,336.1c0,.9,0,1.8-.1,2.8,0,.9-.2,1.8-.4,2.7-.2.9-.4,1.8-.7,2.7-.3.9-.6,1.8-.9,2.6-.3.9-.7,1.7-1.2,2.5-.4.8-.9,1.6-1.4,2.4-.5.8-1.1,1.5-1.6,2.2-.6.7-1.2,1.4-1.9,2.1-.7.7-1.3,1.3-2.1,1.9-.7.6-1.5,1.1-2.2,1.6-.8.5-1.6,1-2.4,1.4-.8.4-1.6.8-2.5,1.2s-1.7.7-2.6.9c-.9.3-1.8.5-2.7.7-.9.2-1.8.3-2.7.4s-1.8.1-2.8.1-1.8,0-2.8-.1c-.9,0-1.8-.2-2.7-.4s-1.8-.4-2.7-.7c-.9-.3-1.8-.6-2.6-.9s-1.7-.8-2.5-1.2c-.8-.4-1.6-.9-2.4-1.4-.8-.5-1.5-1.1-2.2-1.6-.7-.6-1.4-1.2-2-1.9s-1.3-1.3-1.9-2.1c-.6-.7-1.1-1.5-1.7-2.2-.5-.8-1-1.6-1.4-2.4-.4-.8-.8-1.6-1.2-2.5s-.7-1.7-.9-2.6c-.3-.9-.5-1.8-.7-2.7-.2-.9-.3-1.8-.4-2.7,0-.9-.1-1.8-.1-2.8s0-1.8.1-2.8c0-.9.2-1.8.4-2.7.2-.9.4-1.8.7-2.7.3-.9.6-1.8.9-2.6s.8-1.7,1.2-2.5c.4-.8.9-1.6,1.4-2.4.5-.8,1.1-1.5,1.7-2.2.6-.7,1.2-1.4,1.9-2,.7-.7,1.3-1.3,2-1.9.7-.6,1.5-1.1,2.2-1.7.8-.5,1.6-1,2.4-1.4.8-.4,1.6-.8,2.5-1.2.9-.4,1.7-.7,2.6-.9.9-.3,1.8-.5,2.7-.7.9-.2,1.8-.3,2.7-.4.9,0,1.8-.1,2.8-.1s1.8,0,2.8.1c.9,0,1.8.2,2.7.4.9.2,1.8.4,2.7.7.9.3,1.8.6,2.6.9.9.3,1.7.7,2.5,1.2.8.4,1.6.9,2.4,1.4.8.5,1.5,1.1,2.2,1.7.7.6,1.4,1.2,2.1,1.9.7.7,1.3,1.3,1.9,2,.6.7,1.1,1.5,1.6,2.2.5.8,1,1.6,1.4,2.4.4.8.8,1.7,1.2,2.5.4.9.7,1.7.9,2.6.3.9.5,1.8.7,2.7.2.9.3,1.8.4,2.7,0,.9.1,1.8.1,2.8Z"/>
  <path class="cls-7" d="M319.4,351.2c0,.7,0,1.3-.2,2-.1.7-.3,1.3-.6,1.9-.3.6-.6,1.2-.9,1.8s-.8,1.1-1.3,1.5c-.5.5-1,.9-1.5,1.3-.6.4-1.1.7-1.8.9s-1.2.4-1.9.6c-.7.1-1.3.2-2,.2s-1.3,0-2-.2c-.7-.1-1.3-.3-1.9-.6s-1.2-.6-1.8-.9c-.6-.4-1.1-.8-1.5-1.3-.5-.5-.9-1-1.3-1.5s-.7-1.1-.9-1.8c-.3-.6-.4-1.3-.6-1.9-.1-.7-.2-1.3-.2-2s0-1.3.2-2,.3-1.3.6-1.9.6-1.2.9-1.8c.4-.6.8-1.1,1.3-1.5.5-.5,1-.9,1.5-1.3.6-.4,1.1-.7,1.8-.9s1.2-.4,1.9-.6c.7-.1,1.3-.2,2-.2s1.3,0,2,.2c.7.1,1.3.3,1.9.6s1.2.6,1.8.9c.6.4,1.1.8,1.5,1.3.5.5.9,1,1.3,1.5.4.6.7,1.1.9,1.8s.4,1.3.6,1.9.2,1.3.2,2Z"/>
  <path class="cls-2" d="M440.7,335.6c0,1.8,0,3.6-.3,5.5-.2,1.8-.4,3.6-.8,5.4-.4,1.8-.8,3.6-1.3,5.3s-1.1,3.5-1.8,5.1c-.7,1.7-1.5,3.3-2.3,4.9s-1.8,3.2-2.8,4.7c-1,1.5-2.1,3-3.3,4.4s-2.4,2.8-3.7,4.1-2.6,2.5-4,3.7c-1.4,1.2-2.9,2.2-4.4,3.3-1.5,1-3.1,1.9-4.7,2.8-1.6.9-3.3,1.6-4.9,2.3-1.7.7-3.4,1.3-5.1,1.8-1.7.5-3.5,1-5.3,1.3-1.8.4-3.6.6-5.4.8-1.8.2-3.6.3-5.5.3s-3.6,0-5.5-.3c-1.8-.2-3.6-.4-5.4-.8-1.8-.4-3.6-.8-5.3-1.3-1.7-.5-3.5-1.1-5.1-1.8-1.7-.7-3.3-1.5-4.9-2.3-1.6-.9-3.2-1.8-4.7-2.8-1.5-1-3-2.1-4.4-3.3-1.4-1.2-2.8-2.4-4.1-3.7-1.3-1.3-2.5-2.6-3.7-4.1s-2.2-2.9-3.3-4.4c-1-1.5-1.9-3.1-2.8-4.7s-1.6-3.3-2.3-4.9c-.7-1.7-1.3-3.4-1.8-5.1-.5-1.7-1-3.5-1.3-5.3-.4-1.8-.6-3.6-.8-5.4-.2-1.8-.3-3.6-.3-5.5s0-3.6.3-5.5c.2-1.8.4-3.6.8-5.4.4-1.8.8-3.6,1.3-5.3.5-1.7,1.1-3.5,1.8-5.1.7-1.7,1.5-3.3,2.3-4.9s1.8-3.2,2.8-4.7c1-1.5,2.1-3,3.3-4.4s2.4-2.8,3.7-4.1c1.3-1.3,2.6-2.5,4.1-3.7,1.4-1.2,2.9-2.2,4.4-3.3,1.5-1,3.1-1.9,4.7-2.8,1.6-.9,3.3-1.6,4.9-2.3,1.7-.7,3.4-1.3,5.1-1.8,1.7-.5,3.5-1,5.3-1.3,1.8-.4,3.6-.6,5.4-.8,1.8-.2,3.6-.3,5.5-.3s3.6,0,5.5.3c1.8.2,3.6.4,5.4.8,1.8.4,3.6.8,5.3,1.3,1.7.5,3.5,1.1,5.1,1.8,1.7.7,3.3,1.5,4.9,2.3,1.6.9,3.2,1.8,4.7,2.8,1.5,1,3,2.1,4.4,3.3,1.4,1.2,2.8,2.4,4,3.7s2.5,2.6,3.7,4.1,2.2,2.9,3.3,4.4c1,1.5,1.9,3.1,2.8,4.7s1.6,3.3,2.3,4.9c.7,1.7,1.3,3.4,1.8,5.1s1,3.5,1.3,5.3c.4,1.8.6,3.6.8,5.4.2,1.8.3,3.6.3,5.5Z"/>
  <path class="cls-3" d="M429.5,346c0,1.4,0,2.8-.2,4.2s-.3,2.8-.6,4.1-.6,2.7-1,4c-.4,1.3-.9,2.6-1.4,3.9-.5,1.3-1.1,2.5-1.8,3.8-.7,1.2-1.4,2.4-2.1,3.6-.8,1.2-1.6,2.3-2.5,3.3-.9,1.1-1.8,2.1-2.8,3.1s-2,1.9-3.1,2.8c-1.1.9-2.2,1.7-3.3,2.5-1.2.8-2.3,1.5-3.6,2.1-1.2.7-2.5,1.3-3.8,1.8s-2.6,1-3.9,1.4c-1.3.4-2.7.7-4,1s-2.7.5-4.1.6-2.8.2-4.2.2-2.8,0-4.2-.2-2.8-.3-4.1-.6-2.7-.6-4-1c-1.3-.4-2.6-.9-3.9-1.4-1.3-.5-2.5-1.1-3.8-1.8s-2.4-1.4-3.6-2.1c-1.2-.8-2.3-1.6-3.3-2.5-1.1-.9-2.1-1.8-3.1-2.8-1-1-1.9-2-2.8-3.1-.9-1.1-1.7-2.2-2.5-3.3-.8-1.2-1.5-2.4-2.1-3.6-.7-1.2-1.3-2.5-1.8-3.8-.5-1.3-1-2.6-1.4-3.9-.4-1.3-.7-2.7-1-4-.3-1.4-.5-2.7-.6-4.1s-.2-2.8-.2-4.2,0-2.8.2-4.2.3-2.8.6-4.1c.3-1.4.6-2.7,1-4,.4-1.3.9-2.6,1.4-3.9.5-1.3,1.1-2.5,1.8-3.8.7-1.2,1.4-2.4,2.1-3.6.8-1.2,1.6-2.3,2.5-3.3.9-1.1,1.8-2.1,2.8-3.1,1-1,2-1.9,3.1-2.8,1.1-.9,2.2-1.7,3.3-2.5,1.2-.8,2.3-1.5,3.6-2.1s2.5-1.3,3.8-1.8c1.3-.5,2.6-1,3.9-1.4,1.3-.4,2.7-.7,4-1,1.4-.3,2.7-.5,4.1-.6,1.4-.1,2.8-.2,4.2-.2s2.8,0,4.2.2c1.4.1,2.8.3,4.1.6s2.7.6,4,1c1.3.4,2.6.9,3.9,1.4,1.3.5,2.5,1.1,3.8,1.8,1.2.7,2.4,1.4,3.6,2.1,1.2.8,2.3,1.6,3.3,2.5,1.1.9,2.1,1.8,3.1,2.8s1.9,2,2.8,3.1c.9,1.1,1.7,2.2,2.5,3.3s1.5,2.3,2.1,3.6c.7,1.2,1.3,2.5,1.8,3.8.5,1.3,1,2.6,1.4,3.9.4,1.3.7,2.7,1,4s.5,2.7.6,4.1.2,2.8.2,4.2Z"/>
  <path class="cls-5" d="M417.6,358.6c0,.9,0,1.8-.1,2.8,0,.9-.2,1.8-.4,2.7-.2.9-.4,1.8-.7,2.7-.3.9-.6,1.8-.9,2.6s-.7,1.7-1.2,2.5c-.4.8-.9,1.6-1.4,2.4-.5.8-1.1,1.5-1.6,2.2-.6.7-1.2,1.4-1.9,2.1s-1.3,1.3-2.1,1.9c-.7.6-1.5,1.1-2.2,1.7-.8.5-1.6,1-2.4,1.4-.8.4-1.6.8-2.5,1.2s-1.7.7-2.6.9c-.9.3-1.8.5-2.7.7-.9.2-1.8.3-2.7.4-.9,0-1.8.1-2.8.1s-1.8,0-2.8-.1c-.9,0-1.8-.2-2.7-.4-.9-.2-1.8-.4-2.7-.7-.9-.3-1.8-.6-2.6-.9-.9-.4-1.7-.8-2.5-1.2-.8-.4-1.6-.9-2.4-1.4-.8-.5-1.5-1.1-2.2-1.7-.7-.6-1.4-1.2-2.1-1.9-.7-.7-1.3-1.3-1.9-2.1-.6-.7-1.1-1.5-1.7-2.2-.5-.8-1-1.6-1.4-2.4-.4-.8-.8-1.6-1.2-2.5s-.7-1.7-.9-2.6c-.3-.9-.5-1.8-.7-2.7s-.3-1.8-.4-2.7c0-.9-.1-1.8-.1-2.8s0-1.8.1-2.8c0-.9.2-1.8.4-2.7s.4-1.8.7-2.7c.3-.9.6-1.8.9-2.6s.8-1.7,1.2-2.5c.4-.8.9-1.6,1.4-2.4.5-.8,1.1-1.5,1.7-2.2.6-.7,1.2-1.4,1.9-2.1s1.3-1.3,2.1-1.9c.7-.6,1.5-1.1,2.2-1.7.8-.5,1.6-1,2.4-1.4.8-.4,1.7-.8,2.5-1.2.8-.4,1.7-.7,2.6-.9.9-.3,1.8-.5,2.7-.7.9-.2,1.8-.3,2.7-.4.9,0,1.8-.1,2.8-.1s1.8,0,2.8.1c.9,0,1.8.2,2.7.4.9.2,1.8.4,2.7.7.9.3,1.8.6,2.6.9s1.7.7,2.5,1.2,1.6.9,2.4,1.4c.8.5,1.5,1.1,2.2,1.7.7.6,1.4,1.2,2.1,1.9.7.7,1.3,1.3,1.9,2.1.6.7,1.1,1.5,1.6,2.2.5.8,1,1.6,1.4,2.4.4.8.8,1.7,1.2,2.5s.7,1.7.9,2.6c.3.9.5,1.8.7,2.7.2.9.3,1.8.4,2.7,0,.9.1,1.8.1,2.8Z"/>
  <path class="cls-7" d="M402.4,373.7c0,.7,0,1.3-.2,2-.1.7-.3,1.3-.6,1.9s-.6,1.2-.9,1.8-.8,1.1-1.3,1.5c-.5.5-1,.9-1.5,1.3-.6.4-1.1.7-1.8.9s-1.2.4-1.9.6c-.7.1-1.3.2-2,.2s-1.3,0-2-.2c-.7-.1-1.3-.3-1.9-.6s-1.2-.6-1.8-.9-1.1-.8-1.5-1.3c-.5-.5-.9-1-1.3-1.5-.4-.6-.7-1.1-.9-1.8s-.4-1.3-.6-1.9c-.1-.7-.2-1.3-.2-2s0-1.3.2-2c.1-.7.3-1.3.6-1.9s.6-1.2.9-1.8c.4-.6.8-1.1,1.3-1.5.5-.5,1-.9,1.5-1.3s1.1-.7,1.8-.9,1.3-.4,1.9-.6c.7-.1,1.3-.2,2-.2s1.3,0,2,.2c.7.1,1.3.3,1.9.6s1.2.6,1.8.9c.6.4,1.1.8,1.5,1.3.5.5.9,1,1.3,1.5s.7,1.1.9,1.8.4,1.3.6,1.9c.1.7.2,1.3.2,2Z"/>
  <path class="cls-2" d="M238.9,115.4c5.7,30.2-14.2,59.4-44.4,65.1-30.2,5.7-59.3-14.2-65-44.4-5.7-30.2,14.2-59.4,44.4-65.1,30.2-5.7,59.3,14.2,65,44.4Z"/>
  <path class="cls-3" d="M228.7,136.2c0,1.4,0,2.8-.2,4.2-.1,1.4-.3,2.8-.6,4.1s-.6,2.7-1,4c-.4,1.3-.9,2.6-1.4,3.9s-1.1,2.5-1.8,3.8c-.7,1.2-1.4,2.4-2.1,3.6-.8,1.2-1.6,2.3-2.5,3.4-.9,1.1-1.8,2.1-2.8,3.1s-2,1.9-3.1,2.8c-1.1.9-2.2,1.7-3.3,2.5-1.2.8-2.3,1.5-3.6,2.1-1.2.7-2.5,1.3-3.8,1.8s-2.6,1-3.9,1.4c-1.3.4-2.7.7-4,1s-2.7.5-4.1.6c-1.4.1-2.8.2-4.2.2s-2.8,0-4.2-.2c-1.4-.1-2.8-.3-4.1-.6s-2.7-.6-4-1c-1.3-.4-2.6-.9-3.9-1.4-1.3-.5-2.5-1.1-3.8-1.8s-2.4-1.4-3.6-2.1c-1.2-.8-2.3-1.6-3.3-2.5-1.1-.9-2.1-1.8-3.1-2.8-1-1-1.9-2-2.8-3.1-.9-1.1-1.7-2.2-2.5-3.4-.8-1.2-1.5-2.3-2.1-3.6-.7-1.2-1.3-2.5-1.8-3.8-.5-1.3-1-2.6-1.4-3.9-.4-1.3-.7-2.7-1-4s-.5-2.7-.6-4.1-.2-2.8-.2-4.2,0-2.8.2-4.2.3-2.8.6-4.1.6-2.7,1-4c.4-1.3.9-2.6,1.4-3.9.5-1.3,1.1-2.5,1.8-3.8.7-1.2,1.4-2.4,2.1-3.6.8-1.2,1.6-2.3,2.5-3.3.9-1.1,1.8-2.1,2.8-3.1,1-1,2-1.9,3.1-2.8,1.1-.9,2.2-1.7,3.3-2.5,1.2-.8,2.3-1.5,3.6-2.1s2.5-1.3,3.8-1.8c1.3-.5,2.6-1,3.9-1.4,1.3-.4,2.7-.7,4-1,1.4-.3,2.7-.5,4.1-.6s2.8-.2,4.2-.2,2.8,0,4.2.2,2.8.3,4.1.6c1.4.3,2.7.6,4,1,1.3.4,2.6.9,3.9,1.4s2.5,1.1,3.8,1.8c1.2.7,2.4,1.4,3.6,2.1,1.2.8,2.3,1.6,3.3,2.5,1.1.9,2.1,1.8,3.1,2.8s1.9,2,2.8,3.1c.9,1.1,1.7,2.2,2.5,3.3.8,1.2,1.5,2.4,2.1,3.6.7,1.2,1.3,2.5,1.8,3.8s1,2.6,1.4,3.9c.4,1.3.7,2.7,1,4s.5,2.7.6,4.1c.1,1.4.2,2.8.2,4.2Z"/>
  <path class="cls-5" d="M216.8,148.8c0,.9,0,1.8-.1,2.8,0,.9-.2,1.8-.4,2.7-.2.9-.4,1.8-.7,2.7-.3.9-.6,1.8-.9,2.6-.4.8-.7,1.7-1.2,2.5-.4.8-.9,1.6-1.4,2.4-.5.8-1.1,1.5-1.6,2.2-.6.7-1.2,1.4-1.9,2.1-.7.7-1.3,1.3-2.1,1.9-.7.6-1.5,1.1-2.2,1.7-.8.5-1.6,1-2.4,1.4-.8.4-1.6.8-2.5,1.2-.9.3-1.7.7-2.6.9-.9.3-1.8.5-2.7.7-.9.2-1.8.3-2.7.4-.9,0-1.8.1-2.8.1s-1.8,0-2.8-.1c-.9,0-1.8-.2-2.7-.4-.9-.2-1.8-.4-2.7-.7-.9-.3-1.8-.6-2.6-.9-.9-.4-1.7-.8-2.5-1.2-.8-.4-1.6-.9-2.4-1.4-.8-.5-1.5-1.1-2.2-1.7-.7-.6-1.4-1.2-2-1.9s-1.3-1.3-1.9-2.1c-.6-.7-1.1-1.5-1.6-2.2-.5-.8-1-1.6-1.4-2.4-.4-.8-.8-1.7-1.2-2.5-.4-.9-.7-1.7-.9-2.6-.3-.9-.5-1.8-.7-2.7-.2-.9-.3-1.8-.4-2.7,0-.9-.1-1.8-.1-2.8s0-1.8.1-2.8c0-.9.2-1.8.4-2.7.2-.9.4-1.8.7-2.7.3-.9.6-1.8.9-2.6.4-.9.8-1.7,1.2-2.5.4-.8.9-1.6,1.4-2.4.5-.8,1.1-1.5,1.6-2.2.6-.7,1.2-1.4,1.9-2,.7-.7,1.3-1.3,2-1.9.7-.6,1.5-1.1,2.2-1.7.8-.5,1.6-1,2.4-1.4.8-.4,1.6-.8,2.5-1.2s1.7-.7,2.6-.9c.9-.3,1.8-.5,2.7-.7.9-.2,1.8-.3,2.7-.4.9,0,1.8-.1,2.8-.1s1.8,0,2.8.1c.9,0,1.8.2,2.7.4.9.2,1.8.4,2.7.7.9.3,1.8.6,2.6.9s1.7.7,2.5,1.2,1.6.9,2.4,1.4c.8.5,1.5,1.1,2.2,1.7.7.6,1.4,1.2,2.1,1.9.7.7,1.3,1.3,1.9,2,.6.7,1.1,1.5,1.6,2.2.5.8,1,1.6,1.4,2.4.4.8.8,1.7,1.2,2.5.4.8.7,1.7.9,2.6.3.9.5,1.8.7,2.7.2.9.3,1.8.4,2.7,0,.9.1,1.8.1,2.8Z"/>
  <path class="cls-7" d="M201.6,163.9c0,.7,0,1.3-.2,2-.1.7-.3,1.3-.6,1.9s-.6,1.2-.9,1.8-.8,1.1-1.3,1.5-1,.9-1.5,1.3c-.6.4-1.1.7-1.8.9s-1.2.4-1.9.6c-.7.1-1.3.2-2,.2s-1.3,0-2-.2c-.7-.1-1.3-.3-1.9-.6s-1.2-.6-1.8-.9-1.1-.8-1.5-1.3-.9-1-1.3-1.5-.7-1.1-.9-1.8-.4-1.2-.6-1.9c-.1-.7-.2-1.3-.2-2s0-1.3.2-2,.3-1.3.6-1.9.6-1.2.9-1.8c.4-.6.8-1.1,1.3-1.5.5-.5,1-.9,1.5-1.3s1.1-.7,1.8-.9,1.2-.4,1.9-.6c.7-.1,1.3-.2,2-.2s1.3,0,2,.2c.7.1,1.3.3,1.9.6s1.2.6,1.8.9c.6.4,1.1.8,1.5,1.3.5.5.9,1,1.3,1.5.4.6.7,1.1.9,1.8s.4,1.3.6,1.9.2,1.3.2,2Z"/>
  <path class="cls-2" d="M273.2,197c0,1.8,0,3.6-.3,5.5-.2,1.8-.4,3.6-.8,5.4-.4,1.8-.8,3.6-1.3,5.3-.5,1.7-1.1,3.5-1.8,5.1-.7,1.7-1.5,3.3-2.3,4.9s-1.8,3.2-2.8,4.7c-1,1.5-2.1,3-3.3,4.4s-2.4,2.8-3.7,4.1c-1.3,1.3-2.6,2.5-4.1,3.7-1.4,1.2-2.9,2.2-4.4,3.3-1.5,1-3.1,1.9-4.7,2.8s-3.3,1.6-4.9,2.3c-1.7.7-3.4,1.3-5.1,1.8-1.7.5-3.5,1-5.3,1.3-1.8.4-3.6.6-5.4.8-1.8.2-3.6.3-5.5.3s-3.6,0-5.5-.3c-1.8-.2-3.6-.4-5.4-.8-1.8-.4-3.6-.8-5.3-1.3-1.7-.5-3.5-1.1-5.1-1.8-1.7-.7-3.3-1.5-4.9-2.3s-3.2-1.8-4.7-2.8c-1.5-1-3-2.1-4.4-3.3-1.4-1.2-2.8-2.4-4.1-3.7-1.3-1.3-2.5-2.6-3.7-4.1s-2.2-2.9-3.3-4.4c-1-1.5-1.9-3.1-2.8-4.7s-1.6-3.3-2.3-4.9c-.7-1.7-1.3-3.4-1.8-5.1s-1-3.5-1.3-5.3c-.4-1.8-.6-3.6-.8-5.4-.2-1.8-.3-3.6-.3-5.5s0-3.6.3-5.5c.2-1.8.4-3.6.8-5.4s.8-3.6,1.3-5.3,1.1-3.5,1.8-5.1c.7-1.7,1.5-3.3,2.3-4.9s1.8-3.2,2.8-4.7c1-1.5,2.1-3,3.3-4.4s2.4-2.8,3.7-4.1c1.3-1.3,2.6-2.5,4.1-3.7,1.4-1.2,2.9-2.2,4.4-3.3s3.1-1.9,4.7-2.8c1.6-.9,3.3-1.6,4.9-2.3,1.7-.7,3.4-1.3,5.1-1.8,1.7-.5,3.5-1,5.3-1.3,1.8-.4,3.6-.6,5.4-.8,1.8-.2,3.6-.3,5.5-.3s3.6,0,5.5.3c1.8.2,3.6.4,5.4.8,1.8.4,3.6.8,5.3,1.3,1.7.5,3.5,1.1,5.1,1.8,1.7.7,3.3,1.5,4.9,2.3,1.6.9,3.2,1.8,4.7,2.8s3,2.1,4.4,3.3c1.4,1.2,2.8,2.4,4.1,3.7,1.3,1.3,2.5,2.6,3.7,4.1s2.2,2.9,3.3,4.4c1,1.5,1.9,3.1,2.8,4.7s1.6,3.3,2.3,4.9c.7,1.7,1.3,3.4,1.8,5.1.5,1.7,1,3.5,1.3,5.3s.6,3.6.8,5.4c.2,1.8.3,3.6.3,5.5Z"/>
  <path class="cls-3" d="M261.9,207.5c0,1.4,0,2.8-.2,4.2-.1,1.4-.3,2.8-.6,4.1s-.6,2.7-1,4c-.4,1.3-.9,2.6-1.4,3.9s-1.1,2.5-1.8,3.8c-.7,1.2-1.4,2.4-2.1,3.6-.8,1.2-1.6,2.3-2.5,3.3-.9,1.1-1.8,2.1-2.8,3.1s-2,1.9-3.1,2.8c-1.1.9-2.2,1.7-3.3,2.5-1.2.8-2.3,1.5-3.6,2.1-1.2.7-2.5,1.3-3.8,1.8s-2.6,1-3.9,1.4c-1.3.4-2.7.7-4,1s-2.7.5-4.1.6-2.8.2-4.2.2-2.8,0-4.2-.2c-1.4-.1-2.8-.3-4.1-.6s-2.7-.6-4-1c-1.3-.4-2.6-.9-3.9-1.4s-2.5-1.1-3.8-1.8c-1.2-.7-2.4-1.4-3.6-2.1-1.2-.8-2.3-1.6-3.3-2.5-1.1-.9-2.1-1.8-3.1-2.8s-1.9-2-2.8-3.1c-.9-1.1-1.7-2.2-2.5-3.3-.8-1.2-1.5-2.4-2.1-3.6-.7-1.2-1.3-2.5-1.8-3.8s-1-2.6-1.4-3.9c-.4-1.3-.7-2.7-1-4s-.5-2.7-.6-4.1-.2-2.8-.2-4.2,0-2.8.2-4.2.3-2.8.6-4.1.6-2.7,1-4c.4-1.3.9-2.6,1.4-3.9.5-1.3,1.1-2.5,1.8-3.8.7-1.2,1.4-2.4,2.1-3.6.8-1.2,1.6-2.3,2.5-3.3.9-1.1,1.8-2.1,2.8-3.1s2-1.9,3.1-2.8c1.1-.9,2.2-1.7,3.3-2.5,1.2-.8,2.3-1.5,3.6-2.1,1.2-.7,2.5-1.3,3.8-1.8,1.3-.5,2.6-1,3.9-1.4,1.3-.4,2.7-.7,4-1s2.7-.5,4.1-.6c1.4-.1,2.8-.2,4.2-.2s2.8,0,4.2.2c1.4.1,2.8.3,4.1.6s2.7.6,4,1c1.3.4,2.6.9,3.9,1.4,1.3.5,2.5,1.1,3.8,1.8,1.2.7,2.4,1.4,3.6,2.1,1.2.8,2.3,1.6,3.3,2.5,1.1.9,2.1,1.8,3.1,2.8s1.9,2,2.8,3.1c.9,1.1,1.7,2.2,2.5,3.3.8,1.2,1.5,2.3,2.1,3.6.7,1.2,1.3,2.5,1.8,3.8.5,1.3,1,2.6,1.4,3.9.4,1.3.7,2.7,1,4s.5,2.7.6,4.1c.1,1.4.2,2.8.2,4.2Z"/>
  <path class="cls-5" d="M250,220.1c0,.9,0,1.8-.1,2.8,0,.9-.2,1.8-.4,2.7-.2.9-.4,1.8-.7,2.7-.3.9-.6,1.8-.9,2.6-.4.9-.8,1.7-1.2,2.5-.4.8-.9,1.6-1.4,2.4-.5.8-1.1,1.5-1.6,2.2-.6.7-1.2,1.4-1.9,2.1-.7.7-1.3,1.3-2,1.9-.7.6-1.5,1.1-2.2,1.6-.8.5-1.6,1-2.4,1.4-.8.4-1.6.8-2.5,1.2s-1.7.7-2.6.9c-.9.3-1.8.5-2.7.7-.9.2-1.8.3-2.7.4-.9,0-1.8.1-2.8.1s-1.8,0-2.8-.1c-.9,0-1.8-.2-2.7-.4-.9-.2-1.8-.4-2.7-.7-.9-.3-1.8-.6-2.6-.9s-1.7-.8-2.5-1.2c-.8-.4-1.6-.9-2.4-1.4-.8-.5-1.5-1.1-2.2-1.6-.7-.6-1.4-1.2-2-1.9-.7-.7-1.3-1.3-1.9-2.1-.6-.7-1.1-1.5-1.7-2.2-.5-.8-1-1.6-1.4-2.4-.4-.8-.8-1.6-1.2-2.5s-.7-1.7-.9-2.6c-.3-.9-.5-1.8-.7-2.7-.2-.9-.3-1.8-.4-2.7,0-.9-.1-1.8-.1-2.8s0-1.8.1-2.8c0-.9.2-1.8.4-2.7.2-.9.4-1.8.7-2.7.3-.9.6-1.8.9-2.6s.8-1.7,1.2-2.5c.4-.8.9-1.6,1.4-2.4.5-.8,1.1-1.5,1.7-2.2.6-.7,1.2-1.4,1.9-2.1.7-.7,1.3-1.3,2-1.9.7-.6,1.5-1.1,2.2-1.7.8-.5,1.6-1,2.4-1.4.8-.4,1.6-.8,2.5-1.2s1.7-.7,2.6-.9c.9-.3,1.8-.5,2.7-.7.9-.2,1.8-.3,2.7-.4.9,0,1.8-.1,2.8-.1s1.8,0,2.8.1c.9,0,1.8.2,2.7.4.9.2,1.8.4,2.7.7.9.3,1.8.6,2.6.9s1.7.7,2.5,1.2c.8.4,1.6.9,2.4,1.4.8.5,1.5,1.1,2.2,1.7.7.6,1.4,1.2,2,1.9.7.7,1.3,1.3,1.9,2.1.6.7,1.1,1.5,1.6,2.2.5.8,1,1.6,1.4,2.4.4.8.8,1.7,1.2,2.5.3.9.7,1.7.9,2.6.3.9.5,1.8.7,2.7.2.9.3,1.8.4,2.7,0,.9.1,1.8.1,2.8Z"/>
  <path class="cls-7" d="M234.8,235.2c0,.7,0,1.3-.2,2-.1.7-.3,1.3-.6,1.9s-.6,1.2-.9,1.8-.8,1.1-1.3,1.5c-.5.5-1,.9-1.5,1.3s-1.1.7-1.8.9-1.2.4-1.9.6c-.7.1-1.3.2-2,.2s-1.3,0-2-.2c-.7-.1-1.3-.3-1.9-.6s-1.2-.6-1.8-.9c-.6-.4-1.1-.8-1.5-1.3-.5-.5-.9-1-1.3-1.5s-.7-1.1-.9-1.8-.4-1.3-.6-1.9c-.1-.7-.2-1.3-.2-2s0-1.3.2-2c.1-.7.3-1.3.6-1.9s.6-1.2.9-1.8c.4-.6.8-1.1,1.3-1.5.5-.5,1-.9,1.5-1.3.6-.4,1.1-.7,1.8-.9s1.2-.4,1.9-.6c.7-.1,1.3-.2,2-.2s1.3,0,2,.2c.7.1,1.3.3,1.9.6s1.2.6,1.8.9,1.1.8,1.5,1.3.9,1,1.3,1.5c.4.6.7,1.1.9,1.8s.4,1.3.6,1.9c.1.7.2,1.3.2,2Z"/>
  <path class="cls-2" d="M333.1,231.1c0,1.8,0,3.6-.3,5.5-.2,1.8-.4,3.6-.8,5.4-.4,1.8-.8,3.6-1.3,5.3-.5,1.7-1.1,3.5-1.8,5.1-.7,1.7-1.5,3.3-2.3,4.9s-1.8,3.2-2.8,4.7c-1,1.5-2.1,3-3.3,4.4s-2.4,2.8-3.7,4.1c-1.3,1.3-2.6,2.5-4,3.7-1.4,1.2-2.9,2.2-4.4,3.3s-3.1,1.9-4.7,2.8c-1.6.9-3.3,1.6-4.9,2.3-1.7.7-3.4,1.3-5.1,1.8-1.7.5-3.5,1-5.3,1.3-1.8.4-3.6.6-5.4.8-1.8.2-3.6.3-5.5.3s-3.6,0-5.5-.3c-1.8-.2-3.6-.4-5.4-.8-1.8-.4-3.6-.8-5.3-1.3-1.7-.5-3.5-1.1-5.1-1.8-1.7-.7-3.3-1.5-4.9-2.3-1.6-.9-3.2-1.8-4.7-2.8s-3-2.1-4.4-3.3c-1.4-1.2-2.8-2.4-4.1-3.7-1.3-1.3-2.5-2.6-3.7-4.1s-2.2-2.9-3.3-4.4c-1-1.5-1.9-3.1-2.8-4.7s-1.6-3.3-2.3-4.9c-.7-1.7-1.3-3.4-1.8-5.1-.5-1.7-1-3.5-1.3-5.3-.4-1.8-.6-3.6-.8-5.4-.2-1.8-.3-3.6-.3-5.5s0-3.6.3-5.5c.2-1.8.4-3.6.8-5.4.4-1.8.8-3.6,1.3-5.3.5-1.7,1.1-3.5,1.8-5.1.7-1.7,1.5-3.3,2.3-4.9s1.8-3.2,2.8-4.7c1-1.5,2.1-3,3.3-4.4,1.2-1.4,2.4-2.8,3.7-4.1,1.3-1.3,2.6-2.5,4.1-3.7,1.4-1.2,2.9-2.2,4.4-3.3,1.5-1,3.1-2,4.7-2.8s3.3-1.6,4.9-2.3c1.7-.7,3.4-1.3,5.1-1.8s3.5-1,5.3-1.3c1.8-.4,3.6-.6,5.4-.8,1.8-.2,3.6-.3,5.5-.3s3.6,0,5.5.3c1.8.2,3.6.4,5.4.8,1.8.4,3.6.8,5.3,1.3s3.5,1.1,5.1,1.8c1.7.7,3.3,1.5,4.9,2.3s3.2,1.8,4.7,2.8c1.5,1,3,2.1,4.4,3.3,1.4,1.2,2.8,2.4,4,3.7,1.3,1.3,2.5,2.6,3.7,4.1,1.2,1.4,2.2,2.9,3.3,4.4,1,1.5,2,3.1,2.8,4.7s1.6,3.3,2.3,4.9c.7,1.7,1.3,3.4,1.8,5.1.5,1.7,1,3.5,1.3,5.3.4,1.8.6,3.6.8,5.4.2,1.8.3,3.6.3,5.5Z"/>
  <path class="cls-3" d="M321.9,241.6c0,1.4,0,2.8-.2,4.2-.1,1.4-.3,2.8-.6,4.1s-.6,2.7-1,4c-.4,1.3-.9,2.6-1.4,3.9s-1.1,2.5-1.8,3.8c-.7,1.2-1.4,2.4-2.1,3.6-.8,1.2-1.6,2.3-2.5,3.4-.9,1.1-1.8,2.1-2.8,3.1s-2,1.9-3.1,2.8c-1.1.9-2.2,1.7-3.3,2.5-1.2.8-2.3,1.5-3.6,2.1-1.2.7-2.5,1.3-3.8,1.8s-2.6,1-3.9,1.4c-1.3.4-2.7.7-4,1s-2.7.5-4.1.6c-1.4.1-2.8.2-4.2.2s-2.8,0-4.2-.2c-1.4-.1-2.8-.3-4.1-.6s-2.7-.6-4-1c-1.3-.4-2.6-.9-3.9-1.4s-2.5-1.1-3.8-1.8c-1.2-.7-2.4-1.4-3.6-2.1-1.2-.8-2.3-1.6-3.3-2.5-1.1-.9-2.1-1.8-3.1-2.8s-1.9-2-2.8-3.1c-.9-1.1-1.7-2.2-2.5-3.4-.8-1.2-1.5-2.3-2.1-3.6-.7-1.2-1.3-2.5-1.8-3.8s-1-2.6-1.4-3.9c-.4-1.3-.7-2.7-1-4s-.5-2.7-.6-4.1c-.1-1.4-.2-2.8-.2-4.2s0-2.8.2-4.2c.1-1.4.3-2.8.6-4.1s.6-2.7,1-4c.4-1.3.9-2.6,1.4-3.9.5-1.3,1.1-2.5,1.8-3.8.7-1.2,1.4-2.4,2.1-3.6.8-1.2,1.6-2.3,2.5-3.4.9-1.1,1.8-2.1,2.8-3.1s2-1.9,3.1-2.8c1.1-.9,2.2-1.7,3.3-2.5,1.2-.8,2.3-1.5,3.6-2.1,1.2-.7,2.5-1.3,3.8-1.8,1.3-.5,2.6-1,3.9-1.4,1.3-.4,2.7-.7,4-1s2.7-.5,4.1-.6c1.4-.1,2.8-.2,4.2-.2s2.8,0,4.2.2c1.4.1,2.8.3,4.1.6s2.7.6,4,1c1.3.4,2.6.9,3.9,1.4,1.3.5,2.5,1.1,3.8,1.8,1.2.7,2.4,1.4,3.6,2.1,1.2.8,2.3,1.6,3.3,2.5,1.1.9,2.1,1.8,3.1,2.8s1.9,2,2.8,3.1c.9,1.1,1.7,2.2,2.5,3.4.8,1.2,1.5,2.3,2.1,3.6.7,1.2,1.3,2.5,1.8,3.8.5,1.3,1,2.6,1.4,3.9.4,1.3.7,2.7,1,4s.5,2.7.6,4.1c.1,1.4.2,2.8.2,4.2Z"/>
  <path class="cls-5" d="M310,254.2c0,.9,0,1.8-.1,2.8,0,.9-.2,1.8-.4,2.7-.2.9-.4,1.8-.7,2.7-.3.9-.6,1.8-.9,2.6-.3.9-.7,1.7-1.2,2.5-.4.8-.9,1.6-1.4,2.4-.5.8-1.1,1.5-1.6,2.2-.6.7-1.2,1.4-1.9,2.1-.7.7-1.3,1.3-2.1,1.9-.7.6-1.5,1.1-2.2,1.6-.8.5-1.6,1-2.4,1.4-.8.4-1.6.8-2.5,1.2s-1.7.7-2.6.9c-.9.3-1.8.5-2.7.7-.9.2-1.8.3-2.7.4-.9,0-1.8.1-2.8.1s-1.8,0-2.8-.1-1.8-.2-2.7-.4c-.9-.2-1.8-.4-2.7-.7-.9-.3-1.8-.6-2.6-.9s-1.7-.8-2.5-1.2c-.8-.4-1.6-.9-2.4-1.4-.8-.5-1.5-1.1-2.2-1.6-.7-.6-1.4-1.2-2.1-1.9-.7-.7-1.3-1.3-1.9-2.1-.6-.7-1.1-1.5-1.6-2.2-.5-.8-1-1.6-1.4-2.4-.4-.8-.8-1.6-1.2-2.5-.3-.9-.7-1.7-.9-2.6-.3-.9-.5-1.8-.7-2.7-.2-.9-.3-1.8-.4-2.7,0-.9-.1-1.8-.1-2.8s0-1.8.1-2.8c0-.9.2-1.8.4-2.7.2-.9.4-1.8.7-2.7.3-.9.6-1.8.9-2.6.4-.9.8-1.7,1.2-2.5.4-.8.9-1.6,1.4-2.4.5-.8,1.1-1.5,1.6-2.2.6-.7,1.2-1.4,1.9-2.1.7-.7,1.3-1.3,2.1-1.9.7-.6,1.5-1.1,2.2-1.7.8-.5,1.6-1,2.4-1.4.8-.4,1.6-.8,2.5-1.2s1.7-.7,2.6-.9c.9-.3,1.8-.5,2.7-.7.9-.2,1.8-.3,2.7-.4.9,0,1.8-.1,2.8-.1s1.8,0,2.8.1c.9,0,1.8.2,2.7.4.9.2,1.8.4,2.7.7.9.3,1.8.6,2.6.9s1.7.7,2.5,1.2c.8.4,1.6.9,2.4,1.4.8.5,1.5,1.1,2.2,1.7.7.6,1.4,1.2,2.1,1.9.7.7,1.3,1.3,1.9,2.1.6.7,1.1,1.5,1.6,2.2.5.8,1,1.6,1.4,2.4.4.8.8,1.7,1.2,2.5.4.9.7,1.7.9,2.6.3.9.5,1.8.7,2.7.2.9.3,1.8.4,2.7,0,.9.1,1.8.1,2.8Z"/>
  <path class="cls-7" d="M294.7,269.2c0,.7,0,1.3-.2,2-.1.7-.3,1.3-.6,1.9s-.6,1.2-.9,1.8c-.4.6-.8,1.1-1.3,1.5-.5.5-1,.9-1.5,1.3s-1.1.7-1.8.9-1.3.4-1.9.6c-.7.1-1.3.2-2,.2s-1.3,0-2-.2c-.7-.1-1.3-.3-1.9-.6s-1.2-.6-1.8-.9c-.6-.4-1.1-.8-1.5-1.3-.5-.5-.9-1-1.3-1.5s-.7-1.1-.9-1.8-.4-1.3-.6-1.9c-.1-.7-.2-1.3-.2-2s0-1.3.2-2c.1-.7.3-1.3.6-1.9s.6-1.2.9-1.8c.4-.6.8-1.1,1.3-1.5.5-.5,1-.9,1.5-1.3.6-.4,1.1-.7,1.8-.9s1.2-.4,1.9-.6c.7-.1,1.3-.2,2-.2s1.3,0,2,.2c.7.1,1.3.3,1.9.6s1.2.6,1.8.9,1.1.8,1.5,1.3.9,1,1.3,1.5c.4.6.7,1.1.9,1.8s.4,1.3.6,1.9c.1.7.2,1.3.2,2Z"/>
  <path class="cls-2" d="M404.1,265.6c0,1.8,0,3.6-.3,5.5-.2,1.8-.4,3.6-.8,5.4-.4,1.8-.8,3.6-1.3,5.3s-1.1,3.5-1.8,5.1-1.5,3.3-2.3,4.9-1.8,3.2-2.8,4.7c-1,1.5-2.1,3-3.3,4.4s-2.4,2.8-3.7,4.1-2.6,2.5-4,3.7c-1.4,1.2-2.9,2.2-4.4,3.3-1.5,1-3.1,1.9-4.7,2.8s-3.3,1.6-4.9,2.3c-1.7.7-3.4,1.3-5.1,1.8-1.7.5-3.5,1-5.3,1.3-1.8.4-3.6.6-5.4.8-1.8.2-3.6.3-5.5.3s-3.6,0-5.5-.3c-1.8-.2-3.6-.4-5.4-.8-1.8-.4-3.6-.8-5.3-1.3-1.7-.5-3.5-1.1-5.1-1.8-1.7-.7-3.3-1.5-4.9-2.3-1.6-.9-3.2-1.8-4.7-2.8-1.5-1-3-2.1-4.4-3.3-1.4-1.2-2.8-2.4-4-3.7-1.3-1.3-2.5-2.6-3.7-4.1-1.2-1.4-2.2-2.9-3.3-4.4-1-1.5-2-3.1-2.8-4.7s-1.6-3.3-2.3-4.9-1.3-3.4-1.8-5.1c-.5-1.7-1-3.5-1.3-5.3-.4-1.8-.6-3.6-.8-5.4-.2-1.8-.3-3.6-.3-5.5s0-3.6.3-5.5c.2-1.8.4-3.6.8-5.4.4-1.8.8-3.6,1.3-5.3.5-1.8,1.1-3.5,1.8-5.2.7-1.7,1.5-3.3,2.3-4.9s1.8-3.2,2.8-4.7c1-1.5,2.1-3,3.3-4.4,1.2-1.4,2.4-2.8,3.7-4,1.3-1.3,2.6-2.5,4-3.7,1.4-1.2,2.9-2.2,4.4-3.3,1.5-1,3.1-2,4.7-2.8,1.6-.9,3.3-1.6,4.9-2.3,1.7-.7,3.4-1.3,5.1-1.8,1.7-.5,3.5-1,5.3-1.3,1.8-.4,3.6-.6,5.4-.8,1.8-.2,3.6-.3,5.5-.3s3.6,0,5.5.3c1.8.2,3.6.4,5.4.8,1.8.4,3.6.8,5.3,1.3,1.7.5,3.5,1.1,5.1,1.8,1.7.7,3.3,1.5,4.9,2.3s3.2,1.8,4.7,2.8c1.5,1,3,2.1,4.4,3.3,1.4,1.2,2.8,2.4,4,3.7,1.3,1.3,2.5,2.6,3.7,4,1.2,1.4,2.2,2.9,3.3,4.4,1,1.5,1.9,3.1,2.8,4.7s1.6,3.3,2.3,4.9c.7,1.7,1.3,3.4,1.8,5.2.5,1.7,1,3.5,1.3,5.3.4,1.8.6,3.6.8,5.4.2,1.8.3,3.6.3,5.5Z"/>
  <path class="cls-3" d="M392.9,276c0,1.4,0,2.8-.2,4.2s-.3,2.8-.6,4.1-.6,2.7-1,4c-.4,1.3-.9,2.6-1.4,3.9-.5,1.3-1.1,2.5-1.8,3.8-.7,1.2-1.4,2.4-2.1,3.6-.8,1.2-1.6,2.3-2.5,3.3-.9,1.1-1.8,2.1-2.8,3.1-1,1-2,1.9-3.1,2.8-1.1.9-2.2,1.7-3.3,2.5-1.2.8-2.3,1.5-3.6,2.1-1.2.7-2.5,1.3-3.8,1.8-1.3.5-2.6,1-3.9,1.4-1.3.4-2.7.7-4,1s-2.7.5-4.1.6c-1.4.1-2.8.2-4.2.2s-2.8,0-4.2-.2c-1.4-.1-2.8-.3-4.1-.6s-2.7-.6-4-1c-1.3-.4-2.6-.9-3.9-1.4-1.3-.5-2.5-1.1-3.8-1.8-1.2-.7-2.4-1.4-3.6-2.1-1.2-.8-2.3-1.6-3.3-2.5-1.1-.9-2.1-1.8-3.1-2.8-1-1-1.9-2-2.8-3.1-.9-1.1-1.7-2.2-2.5-3.3-.8-1.2-1.5-2.3-2.1-3.6-.7-1.2-1.3-2.5-1.8-3.8-.5-1.3-1-2.6-1.4-3.9-.4-1.3-.7-2.7-1-4s-.5-2.7-.6-4.1-.2-2.8-.2-4.2,0-2.8.2-4.2.3-2.8.6-4.1.6-2.7,1-4c.4-1.3.9-2.6,1.4-3.9.5-1.3,1.1-2.5,1.8-3.8.7-1.2,1.4-2.4,2.1-3.6.8-1.2,1.6-2.3,2.5-3.3.9-1.1,1.8-2.1,2.8-3.1,1-1,2-1.9,3.1-2.8,1.1-.9,2.2-1.7,3.3-2.5,1.2-.8,2.3-1.5,3.6-2.1,1.2-.7,2.5-1.3,3.8-1.8,1.3-.5,2.6-1,3.9-1.4,1.3-.4,2.7-.7,4-1s2.7-.5,4.1-.6,2.8-.2,4.2-.2,2.8,0,4.2.2,2.8.3,4.1.6,2.7.6,4,1c1.3.4,2.6.9,3.9,1.4,1.3.5,2.5,1.1,3.8,1.8,1.2.7,2.4,1.4,3.6,2.1,1.2.8,2.3,1.6,3.3,2.5,1.1.9,2.1,1.8,3.1,2.8,1,1,1.9,2,2.8,3.1.9,1.1,1.7,2.2,2.5,3.3.8,1.2,1.5,2.4,2.1,3.6.7,1.2,1.3,2.5,1.8,3.8.5,1.3,1,2.6,1.4,3.9.4,1.3.7,2.7,1,4s.5,2.7.6,4.1.2,2.8.2,4.2Z"/>
  <path class="cls-5" d="M381,288.6c0,.9,0,1.8-.1,2.8,0,.9-.2,1.8-.4,2.7-.2.9-.4,1.8-.7,2.7s-.6,1.8-.9,2.6c-.4.8-.7,1.7-1.2,2.5s-.9,1.6-1.4,2.4c-.5.8-1.1,1.5-1.7,2.2-.6.7-1.2,1.4-1.9,2.1-.7.7-1.3,1.3-2.1,1.9-.7.6-1.5,1.1-2.2,1.7-.8.5-1.6,1-2.4,1.4-.8.4-1.7.8-2.5,1.2-.9.3-1.7.7-2.6.9-.9.3-1.8.5-2.7.7-.9.2-1.8.3-2.7.4-.9,0-1.8.1-2.8.1s-1.8,0-2.8-.1c-.9,0-1.8-.2-2.7-.4-.9-.2-1.8-.4-2.7-.7-.9-.3-1.8-.6-2.6-.9-.9-.4-1.7-.8-2.5-1.2-.8-.4-1.6-.9-2.4-1.4-.8-.5-1.5-1.1-2.2-1.7-.7-.6-1.4-1.2-2-1.9s-1.3-1.3-1.9-2.1c-.6-.7-1.1-1.5-1.7-2.2-.5-.8-1-1.6-1.4-2.4-.4-.8-.8-1.7-1.2-2.5-.4-.9-.7-1.7-.9-2.6-.3-.9-.5-1.8-.7-2.7s-.3-1.8-.4-2.7c0-.9-.1-1.8-.1-2.8s0-1.8.1-2.8c0-.9.2-1.8.4-2.7s.4-1.8.7-2.7c.3-.9.6-1.8.9-2.6.4-.9.8-1.7,1.2-2.5.4-.8.9-1.6,1.4-2.4.5-.8,1.1-1.5,1.7-2.2.6-.7,1.2-1.4,1.9-2,.7-.7,1.3-1.3,2-1.9.7-.6,1.5-1.1,2.2-1.7.8-.5,1.6-1,2.4-1.4.8-.4,1.7-.8,2.5-1.2.8-.4,1.7-.7,2.6-.9.9-.3,1.8-.5,2.7-.7.9-.2,1.8-.3,2.7-.4.9,0,1.8-.1,2.8-.1s1.8,0,2.8.1c.9,0,1.8.2,2.7.4.9.2,1.8.4,2.7.7.9.3,1.8.6,2.6.9.8.4,1.7.7,2.5,1.2.8.4,1.6.9,2.4,1.4.8.5,1.5,1.1,2.2,1.7.7.6,1.4,1.2,2.1,1.9s1.3,1.3,1.9,2c.6.7,1.1,1.5,1.7,2.2.5.8,1,1.6,1.4,2.4.4.8.8,1.7,1.2,2.5.4.8.7,1.7.9,2.6s.5,1.8.7,2.7c.2.9.3,1.8.4,2.7,0,.9.1,1.8.1,2.8Z"/>
  <path class="cls-7" d="M365.8,303.7c0,.7,0,1.3-.2,2-.1.7-.3,1.3-.6,1.9s-.6,1.2-.9,1.8-.8,1.1-1.3,1.5-1,.9-1.5,1.3c-.6.4-1.1.7-1.8.9s-1.2.4-1.9.6c-.7.1-1.3.2-2,.2s-1.3,0-2-.2c-.7-.1-1.3-.3-1.9-.6s-1.2-.6-1.8-.9-1.1-.8-1.5-1.3c-.5-.5-.9-1-1.3-1.5s-.7-1.1-.9-1.8-.4-1.2-.6-1.9c-.1-.7-.2-1.3-.2-2s0-1.3.2-2,.3-1.3.6-1.9.6-1.2.9-1.8c.4-.6.8-1.1,1.3-1.5s1-.9,1.5-1.3,1.1-.7,1.8-.9,1.3-.4,1.9-.6c.7-.1,1.3-.2,2-.2s1.3,0,2,.2c.7.1,1.3.3,1.9.6s1.2.6,1.8.9c.6.4,1.1.8,1.5,1.3.5.5.9,1,1.3,1.5.4.6.7,1.1.9,1.8s.4,1.3.6,1.9c.1.7.2,1.3.2,2Z"/>
  <path class="cls-2" d="M486,263.1c0,1.8,0,3.6-.3,5.5-.2,1.8-.4,3.6-.8,5.4-.4,1.8-.8,3.6-1.3,5.3-.5,1.7-1.1,3.5-1.8,5.1-.7,1.7-1.5,3.3-2.3,4.9s-1.8,3.2-2.8,4.7c-1,1.5-2.1,3-3.3,4.4-1.2,1.4-2.4,2.8-3.7,4.1-1.3,1.3-2.6,2.5-4,3.7-1.4,1.2-2.9,2.2-4.4,3.3-1.5,1-3.1,1.9-4.7,2.8-1.6.9-3.3,1.6-4.9,2.3s-3.4,1.3-5.1,1.8c-1.7.5-3.5,1-5.3,1.3-1.8.4-3.6.6-5.4.8-1.8.2-3.6.3-5.5.3s-3.6,0-5.5-.3c-1.8-.2-3.6-.4-5.4-.8-1.8-.4-3.6-.8-5.3-1.3-1.7-.5-3.5-1.1-5.1-1.8-1.7-.7-3.3-1.5-4.9-2.3s-3.2-1.8-4.7-2.8c-1.5-1-3-2.1-4.4-3.3-1.4-1.2-2.8-2.4-4-3.7s-2.5-2.6-3.7-4.1-2.2-2.9-3.3-4.4c-1-1.5-1.9-3.1-2.8-4.7s-1.6-3.3-2.3-4.9c-.7-1.7-1.3-3.4-1.8-5.1-.5-1.8-1-3.5-1.3-5.3-.4-1.8-.6-3.6-.8-5.4-.2-1.8-.3-3.6-.3-5.5s0-3.6.3-5.5c.2-1.8.4-3.6.8-5.4.4-1.8.8-3.6,1.3-5.3.5-1.7,1.1-3.5,1.8-5.1.7-1.7,1.5-3.3,2.3-4.9.9-1.6,1.8-3.2,2.8-4.7,1-1.5,2.1-3,3.3-4.4,1.2-1.4,2.4-2.8,3.7-4,1.3-1.3,2.6-2.5,4-3.7,1.4-1.2,2.9-2.2,4.4-3.3,1.5-1,3.1-2,4.7-2.8s3.3-1.6,4.9-2.3c1.7-.7,3.4-1.3,5.1-1.8,1.7-.5,3.5-1,5.3-1.3,1.8-.4,3.6-.6,5.4-.8,1.8-.2,3.6-.3,5.5-.3s3.6,0,5.5.3c1.8.2,3.6.4,5.4.8,1.8.4,3.6.8,5.3,1.3,1.7.5,3.5,1.1,5.1,1.8s3.3,1.5,4.9,2.3c1.6.9,3.2,1.8,4.7,2.8,1.5,1,3,2.1,4.4,3.3,1.4,1.2,2.8,2.4,4,3.7,1.3,1.3,2.5,2.6,3.7,4,1.2,1.4,2.2,2.9,3.3,4.4,1,1.5,2,3.1,2.8,4.7.9,1.6,1.6,3.3,2.3,4.9.7,1.7,1.3,3.4,1.8,5.1.5,1.8,1,3.5,1.3,5.3.4,1.8.6,3.6.8,5.4.2,1.8.3,3.6.3,5.5Z"/>
  <path class="cls-3" d="M474.7,273.6c0,1.4,0,2.8-.2,4.2-.1,1.4-.3,2.8-.6,4.1s-.6,2.7-1,4c-.4,1.3-.9,2.6-1.4,3.9-.5,1.3-1.1,2.5-1.8,3.8-.7,1.2-1.4,2.4-2.1,3.6-.8,1.2-1.6,2.3-2.5,3.3-.9,1.1-1.8,2.1-2.8,3.1s-2,1.9-3.1,2.8c-1.1.9-2.2,1.7-3.3,2.5-1.2.8-2.3,1.5-3.6,2.1-1.2.7-2.5,1.3-3.8,1.8-1.3.5-2.6,1-3.9,1.4-1.3.4-2.7.7-4,1s-2.7.5-4.1.6c-1.4.1-2.8.2-4.2.2s-2.8,0-4.2-.2c-1.4-.1-2.8-.3-4.1-.6s-2.7-.6-4-1c-1.3-.4-2.6-.9-3.9-1.4-1.3-.5-2.5-1.1-3.8-1.8-1.2-.7-2.4-1.4-3.6-2.1-1.2-.8-2.3-1.6-3.3-2.5-1.1-.9-2.1-1.8-3.1-2.8s-1.9-2-2.8-3.1c-.9-1.1-1.7-2.2-2.5-3.3-.8-1.2-1.5-2.3-2.1-3.6-.7-1.2-1.3-2.5-1.8-3.8-.5-1.3-1-2.6-1.4-3.9-.4-1.3-.7-2.7-1-4s-.5-2.7-.6-4.1c-.1-1.4-.2-2.8-.2-4.2s0-2.8.2-4.2c.1-1.4.3-2.8.6-4.1s.6-2.7,1-4c.4-1.3.9-2.6,1.4-3.9s1.1-2.5,1.8-3.8c.7-1.2,1.4-2.4,2.1-3.6.8-1.2,1.6-2.3,2.5-3.3.9-1.1,1.8-2.1,2.8-3.1s2-1.9,3.1-2.8c1.1-.9,2.2-1.7,3.3-2.5,1.2-.8,2.3-1.5,3.6-2.1,1.2-.7,2.5-1.3,3.8-1.8s2.6-1,3.9-1.4c1.3-.4,2.7-.7,4-1s2.7-.5,4.1-.6c1.4-.1,2.8-.2,4.2-.2s2.8,0,4.2.2c1.4.1,2.8.3,4.1.6s2.7.6,4,1c1.3.4,2.6.9,3.9,1.4s2.5,1.1,3.8,1.8c1.2.7,2.4,1.4,3.6,2.1,1.2.8,2.3,1.6,3.3,2.5,1.1.9,2.1,1.8,3.1,2.8s1.9,2,2.8,3.1c.9,1.1,1.7,2.2,2.5,3.3.8,1.2,1.5,2.4,2.1,3.6.7,1.2,1.3,2.5,1.8,3.8s1,2.6,1.4,3.9c.4,1.3.7,2.7,1,4s.5,2.7.6,4.1c.1,1.4.2,2.8.2,4.2Z"/>
  <path class="cls-5" d="M462.8,286.2c0,.9,0,1.8-.1,2.8,0,.9-.2,1.8-.4,2.7-.2.9-.4,1.8-.7,2.7-.3.9-.6,1.8-.9,2.6-.4.9-.8,1.7-1.2,2.5-.4.8-.9,1.6-1.4,2.4-.5.8-1.1,1.5-1.6,2.2-.6.7-1.2,1.4-1.9,2-.7.7-1.3,1.3-2,1.9-.7.6-1.5,1.1-2.2,1.7-.8.5-1.6,1-2.4,1.4-.8.4-1.6.8-2.5,1.2-.9.4-1.7.7-2.6.9-.9.3-1.8.5-2.7.7-.9.2-1.8.3-2.7.4-.9,0-1.8.1-2.8.1s-1.8,0-2.8-.1c-.9,0-1.8-.2-2.7-.4-.9-.2-1.8-.4-2.7-.7-.9-.3-1.8-.6-2.6-.9-.9-.3-1.7-.7-2.5-1.2-.8-.4-1.6-.9-2.4-1.4-.8-.5-1.5-1.1-2.2-1.7-.7-.6-1.4-1.2-2.1-1.9-.7-.7-1.3-1.3-1.9-2-.6-.7-1.1-1.5-1.6-2.2-.5-.8-1-1.6-1.4-2.4-.4-.8-.8-1.7-1.2-2.5-.4-.8-.7-1.7-.9-2.6-.3-.9-.5-1.8-.7-2.7-.2-.9-.3-1.8-.4-2.7,0-.9-.1-1.8-.1-2.8s0-1.8.1-2.8c0-.9.2-1.8.4-2.7.2-.9.4-1.8.7-2.7.3-.9.6-1.8.9-2.6.3-.8.7-1.7,1.2-2.5.4-.8.9-1.6,1.4-2.4.5-.8,1.1-1.5,1.6-2.2.6-.7,1.2-1.4,1.9-2,.7-.7,1.3-1.3,2.1-1.9.7-.6,1.5-1.1,2.2-1.7.8-.5,1.6-1,2.4-1.4.8-.4,1.6-.8,2.5-1.2.9-.4,1.7-.7,2.6-.9.9-.3,1.8-.5,2.7-.7.9-.2,1.8-.3,2.7-.4.9,0,1.8-.1,2.8-.1s1.8,0,2.8.1c.9,0,1.8.2,2.7.4.9.2,1.8.4,2.7.7.9.3,1.8.6,2.6.9.9.3,1.7.7,2.5,1.2.8.4,1.6.9,2.4,1.4.8.5,1.5,1.1,2.2,1.7.7.6,1.4,1.2,2,1.9.7.7,1.3,1.3,1.9,2,.6.7,1.1,1.5,1.6,2.2.5.8,1,1.6,1.4,2.4.4.8.8,1.7,1.2,2.5.3.9.7,1.7.9,2.6.3.9.5,1.8.7,2.7.2.9.3,1.8.4,2.7,0,.9.1,1.8.1,2.8Z"/>
  <path class="cls-7" d="M447.6,301.3c0,.7,0,1.3-.2,2-.1.7-.3,1.3-.6,1.9s-.6,1.2-.9,1.8c-.4.6-.8,1.1-1.3,1.5-.5.5-1,.9-1.5,1.3s-1.1.7-1.8.9c-.6.3-1.3.4-1.9.6-.7.1-1.3.2-2,.2s-1.3,0-2-.2-1.3-.3-1.9-.6c-.6-.3-1.2-.6-1.8-.9-.6-.4-1.1-.8-1.5-1.3-.5-.5-.9-1-1.3-1.5-.4-.6-.7-1.1-.9-1.8s-.4-1.2-.6-1.9c-.1-.7-.2-1.3-.2-2s0-1.3.2-2c.1-.7.3-1.3.6-1.9s.6-1.2.9-1.8c.4-.6.8-1.1,1.3-1.5.5-.5,1-.9,1.5-1.3.6-.4,1.1-.7,1.8-.9.6-.3,1.3-.4,1.9-.6s1.3-.2,2-.2,1.3,0,2,.2c.7.1,1.3.3,1.9.6.6.3,1.2.6,1.8.9s1.1.8,1.5,1.3c.5.5.9,1,1.3,1.5.4.6.7,1.1.9,1.8s.4,1.3.6,1.9.2,1.3.2,2Z"/>
  <path id="top_leaf" data-name="top leaf" class="cls-10" d="M343.9,0c-25,25-54.9,59.4-54.9,98.2-.2,9.5-.1,18.2.7,26-6-3.3-11.9-6.1-17.7-8.3-20.3-6.8-51.6,9.9-57.9-27.3-14.7,18.2-5.8,30.9,1.3,43.3,18.2,24.7,43.4,38.2,68.5,51.6-13,14-41.5,13.8-26.3,53.6.7,2.4,1.8,4.8-2.7,6.3,33,17.3,60-3.5,71.5-22.6,39.8,14.7,76.3,24.7,92.5,4.3-18.2-17.9-13.8-45.5-59.2-51.3,69.8-20.7,91-56.9,85.5-101.5-6.7,28.8-64.3,40.8-98.9,60.8,2.8-6.8,5-14.3,6.4-22.6,6.3-47.9-10.7-69.2-9-110.5h0Z"/>
  <path id="tip" class="cls-8" d="M334,99.4c10.5-1.1,19.4,1.9,25.4,12.8l-2.8,2.2-19.8-3.2-2.8-11.8Z"/>
  <path id="root" class="cls-9" d="M304.7,175.9l29.2-76.5c5.4,10.5,14.5,13.5,25.5,12.8l-31.9,76.5c-5.7,6.9-24.8-5.2-22.8-12.8Z"/>
</svg>