<svg xmlns="http://www.w3.org/2000/svg" xmlns:xlink="http://www.w3.org/1999/xlink" width="500" zoomAndPan="magnify" viewBox="0 0 375 374.999991" height="500" preserveAspectRatio="xMidYMid meet" version="1.0"><defs><clipPath id="01f9cd2e3c"><path d="M 1 15 L 366 15 L 366 306 L 1 306 Z M 1 15 " clip-rule="nonzero"/></clipPath><clipPath id="c2db9fa181"><path d="M -4.355469 193.726562 L 337.191406 8.585938 L 435.480469 189.90625 L 93.933594 375.050781 Z M -4.355469 193.726562 " clip-rule="nonzero"/></clipPath><clipPath id="eaa3af66d4"><path d="M -4.355469 193.726562 L 337.191406 8.585938 L 435.480469 189.90625 L 93.933594 375.050781 Z M -4.355469 193.726562 " clip-rule="nonzero"/></clipPath><clipPath id="410dfc57f4"><path d="M -4.355469 193.726562 L 337.191406 8.585938 L 435.480469 189.90625 L 93.933594 375.050781 Z M -4.355469 193.726562 " clip-rule="nonzero"/></clipPath><clipPath id="3c7118566e"><path d="M -4.296875 193.835938 L 337.53125 8.539062 L 435.792969 189.808594 L 93.960938 375.105469 Z M -4.296875 193.835938 " clip-rule="nonzero"/></clipPath><clipPath id="52bfe51e71"><path d="M -4.296875 193.835938 L 337.246094 8.695312 L 435.429688 189.824219 L 93.886719 374.964844 Z M -4.296875 193.835938 " clip-rule="nonzero"/></clipPath><clipPath id="6b2138f7ec"><path d="M 7 17 L 354 17 L 354 296 L 7 296 Z M 7 17 " clip-rule="nonzero"/></clipPath><clipPath id="dbac07c2ee"><path d="M -4.355469 193.726562 L 337.191406 8.585938 L 435.480469 189.90625 L 93.933594 375.050781 Z M -4.355469 193.726562 " clip-rule="nonzero"/></clipPath><clipPath id="3538dcbeff"><path d="M -4.355469 193.726562 L 337.191406 8.585938 L 435.480469 189.90625 L 93.933594 375.050781 Z M -4.355469 193.726562 " clip-rule="nonzero"/></clipPath><clipPath id="851a98cc18"><path d="M -4.355469 193.726562 L 337.191406 8.585938 L 435.480469 189.90625 L 93.933594 375.050781 Z M -4.355469 193.726562 " clip-rule="nonzero"/></clipPath><clipPath id="230df6f9ec"><path d="M 6 16 L 359 16 L 359 299 L 6 299 Z M 6 16 " clip-rule="nonzero"/></clipPath><clipPath id="dc08cdccd3"><path d="M -4.355469 193.726562 L 337.191406 8.585938 L 435.480469 189.90625 L 93.933594 375.050781 Z M -4.355469 193.726562 " clip-rule="nonzero"/></clipPath><clipPath id="77d5e2a9c6"><path d="M -4.355469 193.726562 L 337.191406 8.585938 L 435.480469 189.90625 L 93.933594 375.050781 Z M -4.355469 193.726562 " clip-rule="nonzero"/></clipPath><clipPath id="70a43c24c1"><path d="M -4.355469 193.726562 L 337.191406 8.585938 L 435.480469 189.90625 L 93.933594 375.050781 Z M -4.355469 193.726562 " clip-rule="nonzero"/></clipPath><clipPath id="a9b617da70"><path d="M 161 106 L 187 106 L 187 125 L 161 125 Z M 161 106 " clip-rule="nonzero"/></clipPath><clipPath id="486802466d"><path d="M -4.355469 193.726562 L 337.191406 8.585938 L 435.480469 189.90625 L 93.933594 375.050781 Z M -4.355469 193.726562 " clip-rule="nonzero"/></clipPath><clipPath id="652c927d4f"><path d="M -4.355469 193.726562 L 337.191406 8.585938 L 435.480469 189.90625 L 93.933594 375.050781 Z M -4.355469 193.726562 " clip-rule="nonzero"/></clipPath><clipPath id="f58bf9507e"><path d="M -4.355469 193.726562 L 337.191406 8.585938 L 435.480469 189.90625 L 93.933594 375.050781 Z M -4.355469 193.726562 " clip-rule="nonzero"/></clipPath><clipPath id="c0281238ed"><path d="M 164 108 L 181 108 L 181 120 L 164 120 Z M 164 108 " clip-rule="nonzero"/></clipPath><clipPath id="8ad6909ade"><path d="M -4.355469 193.726562 L 337.191406 8.585938 L 435.480469 189.90625 L 93.933594 375.050781 Z M -4.355469 193.726562 " clip-rule="nonzero"/></clipPath><clipPath id="b50a029dd9"><path d="M -4.355469 193.726562 L 337.191406 8.585938 L 435.480469 189.90625 L 93.933594 375.050781 Z M -4.355469 193.726562 " clip-rule="nonzero"/></clipPath><clipPath id="4c01174ab7"><path d="M -4.355469 193.726562 L 337.191406 8.585938 L 435.480469 189.90625 L 93.933594 375.050781 Z M -4.355469 193.726562 " clip-rule="nonzero"/></clipPath><clipPath id="2e32189e24"><path d="M 190 23 L 328 23 L 328 103 L 190 103 Z M 190 23 " clip-rule="nonzero"/></clipPath><clipPath id="d9c8bc78fb"><path d="M -4.355469 193.726562 L 337.191406 8.585938 L 435.480469 189.90625 L 93.933594 375.050781 Z M -4.355469 193.726562 " clip-rule="nonzero"/></clipPath><clipPath id="67344a7d98"><path d="M -4.355469 193.726562 L 337.191406 8.585938 L 435.480469 189.90625 L 93.933594 375.050781 Z M -4.355469 193.726562 " clip-rule="nonzero"/></clipPath><clipPath id="a4bda6deb2"><path d="M -4.355469 193.726562 L 337.191406 8.585938 L 435.480469 189.90625 L 93.933594 375.050781 Z M -4.355469 193.726562 " clip-rule="nonzero"/></clipPath><clipPath id="84bd00112a"><path d="M 175 129 L 283 129 L 283 271 L 175 271 Z M 175 129 " clip-rule="nonzero"/></clipPath><clipPath id="50284d6676"><path d="M -4.355469 193.726562 L 337.191406 8.585938 L 435.480469 189.90625 L 93.933594 375.050781 Z M -4.355469 193.726562 " clip-rule="nonzero"/></clipPath><clipPath id="8eda40d99f"><path d="M -4.355469 193.726562 L 337.191406 8.585938 L 435.480469 189.90625 L 93.933594 375.050781 Z M -4.355469 193.726562 " clip-rule="nonzero"/></clipPath><clipPath id="c9b3d987b4"><path d="M -4.355469 193.726562 L 337.191406 8.585938 L 435.480469 189.90625 L 93.933594 375.050781 Z M -4.355469 193.726562 " clip-rule="nonzero"/></clipPath><clipPath id="875cced77f"><path d="M 192 104 L 333 104 L 333 196 L 192 196 Z M 192 104 " clip-rule="nonzero"/></clipPath><clipPath id="2a2cfe1320"><path d="M -4.355469 193.726562 L 337.191406 8.585938 L 435.480469 189.90625 L 93.933594 375.050781 Z M -4.355469 193.726562 " clip-rule="nonzero"/></clipPath><clipPath id="f3988ba880"><path d="M -4.355469 193.726562 L 337.191406 8.585938 L 435.480469 189.90625 L 93.933594 375.050781 Z M -4.355469 193.726562 " clip-rule="nonzero"/></clipPath><clipPath id="44053a51f8"><path d="M -4.355469 193.726562 L 337.191406 8.585938 L 435.480469 189.90625 L 93.933594 375.050781 Z M -4.355469 193.726562 " clip-rule="nonzero"/></clipPath><clipPath id="56baff4aa9"><path d="M 80 131 L 176 131 L 176 276 L 80 276 Z M 80 131 " clip-rule="nonzero"/></clipPath><clipPath id="10d7950e9e"><path d="M -4.355469 193.726562 L 337.191406 8.585938 L 435.480469 189.90625 L 93.933594 375.050781 Z M -4.355469 193.726562 " clip-rule="nonzero"/></clipPath><clipPath id="95cbe25b00"><path d="M -4.355469 193.726562 L 337.191406 8.585938 L 435.480469 189.90625 L 93.933594 375.050781 Z M -4.355469 193.726562 " clip-rule="nonzero"/></clipPath><clipPath id="d4d31ec301"><path d="M -4.355469 193.726562 L 337.191406 8.585938 L 435.480469 189.90625 L 93.933594 375.050781 Z M -4.355469 193.726562 " clip-rule="nonzero"/></clipPath><clipPath id="2191198ad1"><path d="M 19 123 L 150 123 L 150 222 L 19 222 Z M 19 123 " clip-rule="nonzero"/></clipPath><clipPath id="656859cbbb"><path d="M -4.355469 193.726562 L 337.191406 8.585938 L 435.480469 189.90625 L 93.933594 375.050781 Z M -4.355469 193.726562 " clip-rule="nonzero"/></clipPath><clipPath id="7119d691d6"><path d="M -4.355469 193.726562 L 337.191406 8.585938 L 435.480469 189.90625 L 93.933594 375.050781 Z M -4.355469 193.726562 " clip-rule="nonzero"/></clipPath><clipPath id="c2dbf12d29"><path d="M -4.355469 193.726562 L 337.191406 8.585938 L 435.480469 189.90625 L 93.933594 375.050781 Z M -4.355469 193.726562 " clip-rule="nonzero"/></clipPath><clipPath id="64509a1531"><path d="M 187 22 L 332 22 L 332 107 L 187 107 Z M 187 22 " clip-rule="nonzero"/></clipPath><clipPath id="efac3dbcd4"><path d="M -4.355469 193.726562 L 337.191406 8.585938 L 435.480469 189.90625 L 93.933594 375.050781 Z M -4.355469 193.726562 " clip-rule="nonzero"/></clipPath><clipPath id="32ef88b81a"><path d="M -4.355469 193.726562 L 337.191406 8.585938 L 435.480469 189.90625 L 93.933594 375.050781 Z M -4.355469 193.726562 " clip-rule="nonzero"/></clipPath><clipPath id="8079029731"><path d="M -4.355469 193.726562 L 337.191406 8.585938 L 435.480469 189.90625 L 93.933594 375.050781 Z M -4.355469 193.726562 " clip-rule="nonzero"/></clipPath><clipPath id="d5395e07cf"><path d="M 171 125 L 287 125 L 287 275 L 171 275 Z M 171 125 " clip-rule="nonzero"/></clipPath><clipPath id="e030a2bfd9"><path d="M -4.355469 193.726562 L 337.191406 8.585938 L 435.480469 189.90625 L 93.933594 375.050781 Z M -4.355469 193.726562 " clip-rule="nonzero"/></clipPath><clipPath id="287eb6caf6"><path d="M -4.355469 193.726562 L 337.191406 8.585938 L 435.480469 189.90625 L 93.933594 375.050781 Z M -4.355469 193.726562 " clip-rule="nonzero"/></clipPath><clipPath id="7a36b48807"><path d="M -4.355469 193.726562 L 337.191406 8.585938 L 435.480469 189.90625 L 93.933594 375.050781 Z M -4.355469 193.726562 " clip-rule="nonzero"/></clipPath><clipPath id="f72f23e24b"><path d="M 188 101 L 337 101 L 337 200 L 188 200 Z M 188 101 " clip-rule="nonzero"/></clipPath><clipPath id="a9f92758cb"><path d="M -4.355469 193.726562 L 337.191406 8.585938 L 435.480469 189.90625 L 93.933594 375.050781 Z M -4.355469 193.726562 " clip-rule="nonzero"/></clipPath><clipPath id="b71d2181c4"><path d="M -4.355469 193.726562 L 337.191406 8.585938 L 435.480469 189.90625 L 93.933594 375.050781 Z M -4.355469 193.726562 " clip-rule="nonzero"/></clipPath><clipPath id="b8e78ddf90"><path d="M -4.355469 193.726562 L 337.191406 8.585938 L 435.480469 189.90625 L 93.933594 375.050781 Z M -4.355469 193.726562 " clip-rule="nonzero"/></clipPath><clipPath id="33369e1761"><path d="M 76 127 L 180 127 L 180 280 L 76 280 Z M 76 127 " clip-rule="nonzero"/></clipPath><clipPath id="f30195c4d8"><path d="M -4.355469 193.726562 L 337.191406 8.585938 L 435.480469 189.90625 L 93.933594 375.050781 Z M -4.355469 193.726562 " clip-rule="nonzero"/></clipPath><clipPath id="0fe0089838"><path d="M -4.355469 193.726562 L 337.191406 8.585938 L 435.480469 189.90625 L 93.933594 375.050781 Z M -4.355469 193.726562 " clip-rule="nonzero"/></clipPath><clipPath id="18a775bd0d"><path d="M -4.355469 193.726562 L 337.191406 8.585938 L 435.480469 189.90625 L 93.933594 375.050781 Z M -4.355469 193.726562 " clip-rule="nonzero"/></clipPath><clipPath id="8b08962444"><path d="M 16 122 L 153 122 L 153 226 L 16 226 Z M 16 122 " clip-rule="nonzero"/></clipPath><clipPath id="80ee6512b8"><path d="M -4.355469 193.726562 L 337.191406 8.585938 L 435.480469 189.90625 L 93.933594 375.050781 Z M -4.355469 193.726562 " clip-rule="nonzero"/></clipPath><clipPath id="9c93c8cc49"><path d="M -4.355469 193.726562 L 337.191406 8.585938 L 435.480469 189.90625 L 93.933594 375.050781 Z M -4.355469 193.726562 " clip-rule="nonzero"/></clipPath><clipPath id="324b6afd0e"><path d="M -4.355469 193.726562 L 337.191406 8.585938 L 435.480469 189.90625 L 93.933594 375.050781 Z M -4.355469 193.726562 " clip-rule="nonzero"/></clipPath><clipPath id="5ca5babef6"><path d="M 33 159 L 66 159 L 66 189 L 33 189 Z M 33 159 " clip-rule="nonzero"/></clipPath><clipPath id="590f61f895"><path d="M -4.355469 193.726562 L 337.191406 8.585938 L 435.480469 189.90625 L 93.933594 375.050781 Z M -4.355469 193.726562 " clip-rule="nonzero"/></clipPath><clipPath id="0759d25876"><path d="M -4.355469 193.726562 L 337.191406 8.585938 L 435.480469 189.90625 L 93.933594 375.050781 Z M -4.355469 193.726562 " clip-rule="nonzero"/></clipPath><clipPath id="730c1f87d0"><path d="M -4.355469 193.726562 L 337.191406 8.585938 L 435.480469 189.90625 L 93.933594 375.050781 Z M -4.355469 193.726562 " clip-rule="nonzero"/></clipPath><clipPath id="27d25f49c5"><path d="M 110 216 L 149 216 L 149 253 L 110 253 Z M 110 216 " clip-rule="nonzero"/></clipPath><clipPath id="c147c68782"><path d="M -4.355469 193.726562 L 337.191406 8.585938 L 435.480469 189.90625 L 93.933594 375.050781 Z M -4.355469 193.726562 " clip-rule="nonzero"/></clipPath><clipPath id="c20011a869"><path d="M -4.355469 193.726562 L 337.191406 8.585938 L 435.480469 189.90625 L 93.933594 375.050781 Z M -4.355469 193.726562 " clip-rule="nonzero"/></clipPath><clipPath id="e056d01a81"><path d="M -4.355469 193.726562 L 337.191406 8.585938 L 435.480469 189.90625 L 93.933594 375.050781 Z M -4.355469 193.726562 " clip-rule="nonzero"/></clipPath><clipPath id="b9530b1be5"><path d="M 206 210 L 243 210 L 243 247 L 206 247 Z M 206 210 " clip-rule="nonzero"/></clipPath><clipPath id="57a60ecc70"><path d="M -4.355469 193.726562 L 337.191406 8.585938 L 435.480469 189.90625 L 93.933594 375.050781 Z M -4.355469 193.726562 " clip-rule="nonzero"/></clipPath><clipPath id="6af5185770"><path d="M -4.355469 193.726562 L 337.191406 8.585938 L 435.480469 189.90625 L 93.933594 375.050781 Z M -4.355469 193.726562 " clip-rule="nonzero"/></clipPath><clipPath id="26f064d3ed"><path d="M -4.355469 193.726562 L 337.191406 8.585938 L 435.480469 189.90625 L 93.933594 375.050781 Z M -4.355469 193.726562 " clip-rule="nonzero"/></clipPath><clipPath id="83deff9bcf"><path d="M 272 134 L 304 134 L 304 168 L 272 168 Z M 272 134 " clip-rule="nonzero"/></clipPath><clipPath id="8ae93934dc"><path d="M -4.355469 193.726562 L 337.191406 8.585938 L 435.480469 189.90625 L 93.933594 375.050781 Z M -4.355469 193.726562 " clip-rule="nonzero"/></clipPath><clipPath id="bbdadf93d7"><path d="M -4.355469 193.726562 L 337.191406 8.585938 L 435.480469 189.90625 L 93.933594 375.050781 Z M -4.355469 193.726562 " clip-rule="nonzero"/></clipPath><clipPath id="b956aab453"><path d="M -4.355469 193.726562 L 337.191406 8.585938 L 435.480469 189.90625 L 93.933594 375.050781 Z M -4.355469 193.726562 " clip-rule="nonzero"/></clipPath><clipPath id="239e911de0"><path d="M 264 35 L 295 35 L 295 60 L 264 60 Z M 264 35 " clip-rule="nonzero"/></clipPath><clipPath id="0cec35a9fe"><path d="M -4.355469 193.726562 L 337.191406 8.585938 L 435.480469 189.90625 L 93.933594 375.050781 Z M -4.355469 193.726562 " clip-rule="nonzero"/></clipPath><clipPath id="b800e9782c"><path d="M -4.355469 193.726562 L 337.191406 8.585938 L 435.480469 189.90625 L 93.933594 375.050781 Z M -4.355469 193.726562 " clip-rule="nonzero"/></clipPath><clipPath id="f5c904fc98"><path d="M -4.355469 193.726562 L 337.191406 8.585938 L 435.480469 189.90625 L 93.933594 375.050781 Z M -4.355469 193.726562 " clip-rule="nonzero"/></clipPath></defs><rect x="-37.5" width="450" fill="#ffffff" y="-37.499999" height="449.999989" fill-opacity="1"/><rect x="-37.5" width="450" fill="#ffffff" y="-37.499999" height="449.999989" fill-opacity="1"/><g clip-path="url(#01f9cd2e3c)"><g clip-path="url(#c2db9fa181)"><g clip-path="url(#eaa3af66d4)"><g clip-path="url(#410dfc57f4)"><g clip-path="url(#3c7118566e)"><g clip-path="url(#52bfe51e71)"><path fill="#4c8502" d="M 321.074219 19.351562 C 313.242188 22.066406 305.761719 25.714844 298.507812 29.699219 C 283.734375 37.808594 269.53125 47.015625 255.007812 55.5625 C 241.148438 63.722656 227.953125 72.941406 214.976562 82.425781 C 202.234375 91.730469 189.835938 101.496094 176.238281 109.546875 C 148.714844 125.84375 118.679688 136.875 89.15625 148.890625 C 69.402344 156.9375 49.613281 165.316406 31.109375 176.003906 C 23.21875 180.566406 15.34375 185.550781 8.75 191.890625 C 7.246094 193.332031 5.800781 194.839844 4.511719 196.472656 C 3.246094 198.082031 2.148438 199.675781 1.8125 201.722656 C 1.667969 202.601562 2.015625 203.496094 2.359375 204.289062 C 5.273438 211.011719 8.351562 217.683594 12.179688 223.945312 C 21.054688 238.453125 30.757812 250.953125 44.113281 261.578125 C 58.390625 272.941406 74.242188 282.3125 91.050781 289.386719 C 103.523438 294.636719 116.53125 298.617188 129.808594 301.199219 C 142.667969 303.699219 157.308594 305.816406 170.472656 305.660156 C 193.890625 305.382812 215.414062 299.34375 237.816406 292.28125 C 248.109375 289.039062 258.480469 285.761719 267.964844 280.601562 C 272.375 278.207031 276.5625 275.414062 280.632812 272.480469 C 303.179688 256.242188 322.398438 235.402344 336.769531 211.609375 C 352.351562 185.820312 361.621094 159.292969 364.875 129.269531 C 366.988281 109.785156 365.851562 89.9375 361.445312 70.832031 C 358.933594 59.917969 355.378906 49.273438 351.527344 38.757812 C 349.296875 32.671875 346.957031 26.601562 343.851562 20.910156 C 342.878906 19.125 341.890625 16.859375 340.03125 15.84375 C 337.359375 14.378906 333.644531 15.773438 330.910156 16.433594 C 327.585938 17.238281 324.304688 18.230469 321.074219 19.351562 " fill-opacity="1" fill-rule="nonzero"/></g></g></g></g></g></g><g clip-path="url(#6b2138f7ec)"><g clip-path="url(#dbac07c2ee)"><g clip-path="url(#3538dcbeff)"><g clip-path="url(#851a98cc18)"><path fill="#ecffd1" d="M 321.074219 19.351562 C 313.242188 22.066406 305.761719 25.714844 298.507812 29.699219 C 283.734375 37.808594 269.53125 47.015625 255.007812 55.5625 C 241.148438 63.722656 227.953125 72.941406 214.976562 82.425781 C 202.234375 91.730469 189.835938 101.496094 176.238281 109.546875 C 148.714844 125.84375 118.679688 136.875 89.15625 148.890625 C 69.402344 156.9375 49.613281 165.316406 31.109375 176.003906 C 23.21875 180.566406 15.34375 185.550781 8.75 191.890625 C 8.332031 192.289062 7.910156 192.707031 7.484375 193.136719 C 10.066406 198.199219 12.832031 203.082031 15.78125 207.746094 C 31.976562 233.382812 54.480469 254.90625 80.53125 270.363281 C 93.703125 278.179688 107.800781 284.453125 122.449219 288.921875 C 154.6875 298.757812 189.511719 297.457031 221.902344 287.613281 C 255.632812 277.363281 286.722656 257.855469 309.496094 232.019531 C 316.445312 224.132812 322.703125 215.628906 328.117188 206.617188 C 346.390625 176.199219 354.902344 140.277344 353.445312 104.878906 C 352.371094 78.800781 345.300781 53.417969 333.335938 30.25 C 331.121094 25.964844 328.757812 21.777344 326.25 17.691406 C 324.492188 18.207031 322.761719 18.765625 321.074219 19.351562 " fill-opacity="1" fill-rule="nonzero"/></g></g></g></g><g clip-path="url(#230df6f9ec)"><g clip-path="url(#dc08cdccd3)"><g clip-path="url(#77d5e2a9c6)"><g clip-path="url(#70a43c24c1)"><path fill="#d8f783" d="M 321.074219 19.351562 C 320.628906 19.503906 320.191406 19.671875 319.75 19.832031 C 321.964844 23.089844 324.039062 26.339844 325.867188 29.714844 C 328.421875 34.429688 330.226562 38.894531 331.382812 43.371094 C 332.402344 47.304688 333.964844 50.980469 335.480469 54.53125 C 336.359375 56.605469 337.195312 58.5625 337.875 60.46875 C 339.679688 65.503906 340.183594 70.800781 340.167969 76.117188 C 340.152344 81.007812 339.558594 85.683594 339.347656 90.589844 C 339.269531 92.429688 339.199219 94.28125 339.492188 96.101562 C 339.949219 98.949219 341.601562 101.46875 342.398438 104.261719 C 343.253906 107.257812 344.382812 110.167969 345.175781 113.1875 C 346.90625 119.785156 347.808594 126.070312 346.960938 132.90625 C 346.472656 136.828125 345.933594 140.933594 344.867188 144.769531 C 343.671875 149.054688 341.980469 153.1875 340.96875 157.527344 C 339.066406 165.691406 339.597656 174.582031 335.707031 182.007812 C 334.609375 184.105469 333.1875 186.015625 331.777344 187.914062 C 330.695312 189.363281 329.617188 190.8125 328.410156 192.15625 C 326.058594 194.769531 323.234375 196.96875 321.207031 199.835938 C 319.996094 201.554688 319.085938 203.492188 317.652344 205.03125 C 315.070312 207.804688 310.257812 208.050781 307.113281 210.144531 C 304.214844 212.070312 302.019531 214.742188 300.253906 217.707031 C 296.671875 223.71875 295.011719 230.660156 291.78125 236.847656 C 288.167969 243.765625 278.863281 249.054688 272.648438 253.640625 C 267.351562 257.546875 261.492188 261.453125 254.730469 265.585938 C 253.644531 266.25 252.550781 266.941406 251.390625 267.675781 C 247.582031 270.085938 243.269531 272.816406 239.476562 274.285156 C 238.589844 274.628906 237.722656 274.96875 236.867188 275.300781 C 230.613281 277.742188 225.214844 279.851562 218.894531 281.335938 C 215.847656 282.054688 212.921875 283.089844 209.824219 283.507812 C 208.21875 283.726562 206.480469 284.445312 204.863281 284.378906 C 203.078125 284.300781 200.992188 283.390625 199.261719 282.929688 C 196.039062 282.0625 192.882812 281.183594 189.605469 280.417969 C 184.683594 279.273438 179.445312 279.363281 174.644531 280.941406 C 173.199219 281.417969 171.789062 282.027344 170.300781 282.351562 C 168.632812 282.722656 166.867188 282.671875 165.351562 283.539062 C 164.144531 284.226562 163.429688 284.859375 161.988281 285.117188 C 158.226562 285.796875 154.355469 285.523438 150.617188 286.410156 C 146.609375 287.363281 142.371094 287.980469 138.242188 287.558594 C 131.902344 286.90625 125.339844 284.945312 119.53125 282.355469 C 114.421875 280.074219 107.800781 277.542969 101.371094 275.410156 C 98.011719 274.296875 95.007812 272.449219 91.828125 270.492188 C 85.78125 266.769531 80.136719 262.351562 75.371094 257.070312 C 70.609375 251.792969 67.9375 244.628906 62.082031 240.535156 C 54.804688 235.445312 46.371094 232.742188 39.222656 227.421875 C 32.132812 222.136719 26.242188 215.363281 21.164062 208.160156 C 17.816406 203.414062 14.804688 198.441406 12.019531 193.347656 C 11.515625 192.402344 10.976562 191.359375 10.457031 190.3125 C 9.878906 190.828125 9.308594 191.351562 8.75 191.890625 C 7.894531 192.710938 7.003906 193.605469 6.136719 194.558594 C 7.273438 196.78125 8.40625 199 9.542969 201.21875 C 11.519531 205.085938 13.503906 208.964844 15.976562 212.53125 C 19.710938 217.914062 24.503906 222.492188 28.324219 227.816406 C 32.046875 232.996094 35.003906 239.152344 40.3125 242.957031 C 41.578125 243.863281 42.921875 244.386719 44.03125 245.4375 C 45.222656 246.5625 46.210938 247.953125 47.355469 249.132812 C 49.753906 251.605469 52.382812 253.832031 55.300781 255.675781 C 63.324219 260.75 67.804688 267.90625 77.042969 270.898438 C 85.304688 273.574219 90.839844 279.355469 99.152344 282.117188 C 104.75 283.976562 111.324219 286.429688 116.660156 288.808594 C 122.371094 291.355469 128.433594 293.035156 134.578125 294.117188 C 140.714844 295.203125 146.917969 295.300781 152.878906 297.0625 C 158.988281 298.863281 167.46875 299.171875 173.726562 298.121094 C 176.503906 297.65625 179.210938 296.738281 182.023438 296.550781 C 184.453125 296.386719 186.882812 296.78125 189.320312 296.878906 C 194.347656 297.078125 199.335938 296.03125 204.226562 294.855469 C 208.996094 293.710938 213.65625 291.964844 218.367188 290.851562 C 223.265625 289.695312 228.136719 288.515625 232.945312 287.011719 C 242.476562 284.035156 251.753906 280.136719 260.347656 275.027344 C 261.496094 274.347656 262.628906 273.640625 263.75 272.914062 C 269.527344 269.175781 275.328125 265.339844 280.75 261.09375 C 285.320312 257.519531 289.710938 252.96875 294.8125 250.292969 C 299.984375 247.582031 304.117188 242.246094 307.988281 237.976562 C 311.375 234.246094 315.554688 230.09375 317.640625 225.449219 C 319.675781 220.921875 323.234375 217.351562 326.210938 213.371094 C 328.667969 210.082031 331.152344 206.742188 333.078125 203.140625 C 335.035156 199.472656 336.335938 195.636719 338.007812 191.835938 C 342.308594 182.0625 349.753906 174.324219 351.65625 163.535156 C 352.46875 158.921875 352.605469 154.222656 353.226562 149.582031 C 354.367188 141.066406 357.125 132.824219 358.175781 124.300781 C 358.960938 117.914062 358.78125 111.453125 358.59375 105.019531 C 358.464844 100.476562 358.335938 95.929688 357.753906 91.425781 C 357.222656 87.304688 356.324219 83.238281 355.332031 79.207031 C 352.777344 68.835938 349.613281 58.621094 345.859375 48.621094 C 344.726562 45.609375 343.875 42.488281 342.589844 39.53125 C 341.476562 36.980469 339.902344 34.78125 338.957031 32.160156 C 337.011719 26.746094 333.746094 21.5625 330.730469 16.480469 C 327.429688 17.285156 324.183594 18.273438 321.074219 19.351562 " fill-opacity="1" fill-rule="nonzero"/></g></g></g></g><g clip-path="url(#a9b617da70)"><g clip-path="url(#486802466d)"><g clip-path="url(#652c927d4f)"><g clip-path="url(#f58bf9507e)"><path fill="#d8f783" d="M 181.839844 106.09375 C 179.992188 107.273438 178.128906 108.425781 176.238281 109.546875 C 171.351562 112.441406 166.386719 115.164062 161.359375 117.761719 C 161.542969 118.457031 161.644531 119.175781 161.617188 119.90625 C 161.59375 120.738281 161.433594 121.574219 161.5 122.402344 C 161.566406 123.230469 161.929688 124.097656 162.621094 124.402344 C 163.910156 124.964844 165.371094 123.320312 166.679688 123.816406 C 166.984375 123.933594 167.242188 124.15625 167.527344 124.320312 C 169.121094 125.234375 171.070312 124.128906 172.492188 122.855469 C 173.910156 121.585938 175.367188 120.035156 177.175781 119.964844 C 178.300781 119.925781 179.359375 120.488281 180.472656 120.675781 C 180.8125 120.734375 181.183594 120.738281 181.539062 120.683594 C 182.339844 120.558594 183.082031 120.128906 183.355469 119.3125 C 183.632812 118.476562 183.3125 117.550781 183.433594 116.675781 C 183.617188 115.347656 184.730469 114.460938 185.613281 113.53125 C 186.5 112.601562 187.257812 111.089844 186.589844 109.988281 C 186.203125 109.347656 185.472656 109.109375 184.828125 108.808594 C 183.621094 108.242188 182.597656 107.277344 181.839844 106.09375 " fill-opacity="1" fill-rule="nonzero"/></g></g></g></g><g clip-path="url(#c0281238ed)"><g clip-path="url(#8ad6909ade)"><g clip-path="url(#b50a029dd9)"><g clip-path="url(#4c01174ab7)"><path fill="#c1e825" d="M 178.460938 108.207031 C 177.722656 108.65625 176.984375 109.105469 176.238281 109.546875 C 172.535156 111.738281 168.785156 113.835938 164.996094 115.851562 C 165.042969 116.105469 165.074219 116.363281 165.078125 116.621094 C 165.085938 117.148438 165.007812 117.683594 165.070312 118.207031 C 165.136719 118.726562 165.390625 119.265625 165.839844 119.433594 C 166.671875 119.742188 167.550781 118.65625 168.390625 118.925781 C 168.589844 118.988281 168.761719 119.121094 168.945312 119.214844 C 169.980469 119.738281 171.1875 118.96875 172.050781 118.117188 C 172.917969 117.265625 173.796875 116.234375 174.941406 116.128906 C 175.652344 116.066406 176.339844 116.386719 177.050781 116.464844 C 177.269531 116.492188 177.503906 116.484375 177.726562 116.4375 C 178.230469 116.328125 178.691406 116.03125 178.839844 115.507812 C 178.992188 114.96875 178.765625 114.394531 178.816406 113.832031 C 178.894531 112.988281 179.578125 112.390625 180.113281 111.769531 C 180.648438 111.152344 181.085938 110.167969 180.632812 109.492188 C 180.371094 109.101562 179.898438 108.976562 179.484375 108.808594 C 179.117188 108.660156 178.777344 108.453125 178.460938 108.207031 " fill-opacity="1" fill-rule="nonzero"/></g></g></g></g><g clip-path="url(#2e32189e24)"><g clip-path="url(#d9c8bc78fb)"><g clip-path="url(#67344a7d98)"><g clip-path="url(#a4bda6deb2)"><path fill="#caf538" d="M 298.507812 29.699219 C 283.734375 37.808594 269.53125 47.015625 255.007812 55.5625 C 241.148438 63.722656 227.953125 72.941406 214.976562 82.425781 C 206.902344 88.320312 198.96875 94.398438 190.78125 100.109375 C 191.101562 100.976562 191.816406 101.769531 193.078125 102.425781 C 195.554688 103.71875 206.140625 100.851562 209.230469 100.554688 C 223.523438 99.171875 237.8125 97.789062 252.109375 96.40625 C 268.429688 94.828125 333.007812 97.234375 327.300781 66.390625 C 324.90625 53.445312 319.542969 41.082031 313.292969 29.546875 C 312.292969 27.703125 311.222656 25.773438 310.078125 23.820312 C 306.148438 25.632812 302.296875 27.621094 298.507812 29.699219 " fill-opacity="1" fill-rule="nonzero"/></g></g></g></g><g clip-path="url(#84bd00112a)"><g clip-path="url(#50284d6676)"><g clip-path="url(#8eda40d99f)"><g clip-path="url(#c9b3d987b4)"><path fill="#caf538" d="M 199.90625 268.625 C 196.527344 267.167969 193.617188 264.699219 191.4375 260.890625 C 182.585938 245.4375 185.394531 225.375 183.609375 208.546875 C 182.046875 193.824219 180.488281 179.101562 178.925781 164.378906 C 178.351562 158.957031 172.488281 132.878906 176.40625 129.832031 C 181.226562 126.089844 201.363281 146.109375 205.511719 149.433594 C 217.027344 158.667969 228.546875 167.894531 240.066406 177.128906 C 250.582031 185.558594 261.242188 193.835938 271.628906 202.425781 C 298.972656 225.042969 268.347656 248.371094 246.628906 258.449219 C 234.621094 264.023438 213.472656 274.476562 199.90625 268.625 " fill-opacity="1" fill-rule="nonzero"/></g></g></g></g><g clip-path="url(#875cced77f)"><g clip-path="url(#2a2cfe1320)"><g clip-path="url(#f3988ba880)"><g clip-path="url(#44053a51f8)"><path fill="#caf538" d="M 325.382812 112.527344 C 334.460938 123.167969 333.527344 142.863281 329.449219 158.476562 C 324.472656 177.535156 312.90625 200.066406 289.4375 195.140625 C 272.953125 191.675781 260.84375 176.710938 248.277344 166.628906 C 237.101562 157.667969 225.925781 148.703125 214.75 139.738281 C 210.195312 136.085938 191.105469 125.789062 192.523438 118.753906 C 194.136719 110.730469 216.039062 113.832031 221.628906 113.265625 C 235.964844 111.816406 250.300781 110.367188 264.632812 108.914062 C 277.257812 107.636719 289.878906 106.359375 302.5 105.082031 C 313.398438 103.980469 320.710938 107.054688 325.382812 112.527344 " fill-opacity="1" fill-rule="nonzero"/></g></g></g></g><g clip-path="url(#56baff4aa9)"><g clip-path="url(#10d7950e9e)"><g clip-path="url(#95cbe25b00)"><g clip-path="url(#d4d31ec301)"><path fill="#caf538" d="M 174.058594 260.84375 C 166.214844 278.316406 135.136719 277.09375 120.007812 272.589844 C 102.5 267.375 69.722656 250.699219 83.617188 226.625 C 91.054688 213.738281 103.492188 201.824219 112.773438 190.117188 C 121.808594 178.71875 130.847656 167.320312 139.882812 155.917969 C 143.71875 151.078125 145.960938 146.859375 149.625 141.886719 C 150.976562 140.050781 155.476562 129.945312 160.445312 131.320312 C 167.660156 133.316406 170.570312 200.3125 171.460938 208.71875 C 172.914062 222.445312 175.105469 236.308594 175.84375 250.085938 C 176.070312 254.277344 175.40625 257.835938 174.058594 260.84375 " fill-opacity="1" fill-rule="nonzero"/></g></g></g></g><g clip-path="url(#2191198ad1)"><g clip-path="url(#656859cbbb)"><g clip-path="url(#7119d691d6)"><g clip-path="url(#c2dbf12d29)"><path fill="#caf538" d="M 89.15625 148.890625 C 69.402344 156.9375 49.613281 165.316406 31.109375 176.003906 C 27.304688 178.207031 23.5 180.507812 19.839844 183.007812 C 23.332031 190.972656 27.769531 198.472656 33.496094 205.5 C 41.953125 215.867188 54.148438 224.714844 66.714844 220.175781 C 78.816406 215.804688 89.507812 200.628906 97.371094 190.714844 C 106.082031 179.722656 114.796875 168.730469 123.507812 157.742188 C 130.683594 148.691406 137.855469 139.644531 145.03125 130.59375 C 147.433594 127.5625 148.671875 125.382812 149.039062 123.824219 C 129.472656 133.03125 109.199219 140.734375 89.15625 148.890625 " fill-opacity="1" fill-rule="nonzero"/></g></g></g></g><g clip-path="url(#64509a1531)"><g clip-path="url(#efac3dbcd4)"><g clip-path="url(#32ef88b81a)"><g clip-path="url(#8079029731)"><path fill="#c1e825" d="M 298.507812 29.699219 C 297.539062 30.230469 296.582031 30.777344 295.617188 31.316406 C 299.980469 37.945312 302.074219 45.957031 301.363281 53.484375 C 301.117188 56.125 300.523438 58.664062 299.605469 61.027344 C 298.292969 64.414062 296.042969 67.589844 293.105469 70.207031 C 286.519531 76.078125 278.210938 77.574219 269.417969 79.160156 C 268.546875 79.316406 267.675781 79.472656 266.804688 79.632812 C 262 80.523438 256.730469 81.070312 250.6875 81.300781 C 249.167969 81.359375 247.636719 81.476562 246.152344 81.585938 C 240.527344 82.007812 235.21875 82.40625 231.019531 79.835938 C 229.546875 78.929688 227.613281 77.402344 226.765625 75.238281 C 226.632812 74.894531 226.542969 74.535156 226.476562 74.167969 C 222.617188 76.886719 218.785156 79.640625 214.976562 82.425781 C 205.886719 89.0625 196.96875 95.933594 187.671875 102.25 C 187.679688 102.269531 187.6875 102.289062 187.699219 102.308594 C 188.457031 103.703125 189.6875 104.855469 191.359375 105.726562 C 194.070312 107.140625 198.5625 106.386719 205.640625 104.972656 C 207.296875 104.644531 208.859375 104.332031 209.589844 104.261719 L 252.46875 100.113281 C 254.710938 99.894531 258.050781 99.753906 261.921875 99.585938 C 272.804688 99.113281 289.25 98.398438 303.050781 95.074219 C 320.753906 90.808594 330.253906 83.074219 331.285156 72.09375 C 331.476562 70.066406 331.367188 67.917969 330.960938 65.71875 C 328.777344 53.929688 324.203125 41.875 316.566406 27.777344 C 315.605469 26.007812 314.585938 24.167969 313.503906 22.300781 C 308.378906 24.496094 303.390625 27.019531 298.507812 29.699219 " fill-opacity="1" fill-rule="nonzero"/></g></g></g></g><g clip-path="url(#d5395e07cf)"><g clip-path="url(#e030a2bfd9)"><g clip-path="url(#287eb6caf6)"><g clip-path="url(#7a36b48807)"><path fill="#c1e825" d="M 198.507812 171.71875 C 201.675781 172.726562 205.449219 175.15625 208.777344 177.304688 C 209.6875 177.886719 210.546875 178.441406 211.386719 178.964844 C 214.394531 180.835938 217.210938 182.933594 220.195312 185.15625 C 221.140625 185.859375 222.082031 186.5625 223.035156 187.261719 C 234.261719 195.480469 242.945312 204.964844 248.832031 215.441406 C 250.3125 218.070312 252.066406 221.546875 252.488281 225.101562 C 252.585938 225.90625 252.597656 226.726562 252.519531 227.53125 C 251.804688 235.136719 243.480469 241.246094 239.9375 243.523438 C 234.785156 246.828125 229.234375 249.445312 223.4375 251.300781 C 221.625 251.878906 220.015625 252.300781 218.515625 252.585938 C 215.171875 253.226562 212.351562 253.199219 209.890625 252.5 C 202.683594 250.457031 200.617188 240.738281 198.960938 232.929688 C 198.835938 232.339844 198.710938 231.761719 198.589844 231.199219 C 196.890625 223.386719 195.449219 215.410156 194.304688 207.484375 C 192.878906 196.746094 192.105469 188.230469 192.628906 178.972656 C 192.667969 178.332031 192.703125 177.808594 192.75 177.332031 C 193.023438 174.394531 193.652344 172.675781 194.71875 171.933594 C 195.582031 171.332031 197.035156 171.25 198.507812 171.71875 Z M 242.390625 174.222656 L 224.0625 159.535156 L 207.835938 146.527344 C 207.152344 145.976562 205.804688 144.765625 204.246094 143.355469 C 188.503906 129.144531 179.523438 122.699219 174.121094 126.890625 C 172.101562 128.460938 171.632812 131.140625 171.457031 133.023438 C 170.855469 139.398438 172.890625 151.023438 174.242188 158.714844 C 174.707031 161.375 175.109375 163.671875 175.226562 164.765625 L 177.9375 190.359375 L 179.910156 208.9375 C 180.398438 213.570312 180.53125 218.441406 180.671875 223.59375 C 181.023438 236.664062 181.386719 250.175781 187.722656 261.867188 C 187.882812 262.160156 188.042969 262.453125 188.210938 262.742188 C 190.679688 267.054688 194.121094 270.183594 198.4375 272.046875 C 204.957031 274.855469 213.222656 274.761719 223.703125 271.75 C 232.085938 269.34375 240.402344 265.464844 246.476562 262.628906 C 247.070312 262.355469 247.640625 262.085938 248.195312 261.828125 C 253.417969 259.40625 263.460938 254.207031 272.058594 246.613281 C 280.613281 239.046875 285.324219 231.269531 286.054688 223.496094 C 286.480469 218.972656 285.535156 214.539062 283.242188 210.304688 C 281.21875 206.574219 278.109375 202.957031 273.996094 199.558594 C 267.050781 193.8125 259.878906 188.125 252.945312 182.625 C 249.480469 179.875 245.894531 177.035156 242.390625 174.222656 " fill-opacity="1" fill-rule="nonzero"/></g></g></g></g><g clip-path="url(#f72f23e24b)"><g clip-path="url(#a9f92758cb)"><g clip-path="url(#b71d2181c4)"><g clip-path="url(#b8e78ddf90)"><path fill="#c1e825" d="M 291.386719 123.691406 C 294.53125 123.957031 297.664062 124.351562 300.53125 125.347656 C 305.507812 127.078125 309.246094 131.519531 310.988281 136.492188 C 313.492188 143.628906 312.5625 152.425781 309.425781 159.226562 C 308.117188 162.0625 306.40625 164.503906 304.433594 166.90625 C 302.921875 168.742188 301.820312 171.199219 300.097656 172.804688 C 299.21875 173.628906 298.085938 174.125 296.957031 174.554688 C 285.511719 178.933594 274.765625 173.8125 265.863281 166.296875 C 264.414062 165.074219 263.074219 163.777344 261.65625 162.40625 C 260.042969 160.847656 258.371094 159.230469 256.5 157.699219 L 245.898438 149.042969 C 244.398438 147.816406 242.78125 146.605469 241.21875 145.429688 C 235.835938 141.394531 230.269531 137.226562 228.121094 131.628906 C 227.792969 130.785156 227.652344 129.917969 227.722656 129.195312 C 227.753906 128.832031 227.839844 128.511719 227.972656 128.242188 C 228.757812 126.632812 231.472656 125.789062 234.289062 125.117188 C 234.738281 125.007812 235.203125 124.902344 235.664062 124.808594 C 242.382812 123.394531 249.207031 123.269531 256.425781 123.136719 C 259.027344 123.09375 261.71875 123.046875 264.398438 122.929688 L 265.207031 122.894531 C 271.414062 122.628906 277.679688 122.324219 283.867188 123.0625 C 286.289062 123.347656 288.84375 123.476562 291.386719 123.691406 Z M 264.253906 105.207031 L 236.683594 108 L 221.25 109.5625 C 220.199219 109.667969 218 109.601562 215.671875 109.53125 C 211.191406 109.394531 205.609375 109.222656 200.765625 109.90625 C 193.757812 110.890625 189.757812 113.621094 188.875 118.015625 C 188.820312 118.269531 188.785156 118.53125 188.757812 118.792969 C 188.597656 120.503906 189.015625 122.292969 190 124.105469 C 193.066406 129.765625 201.636719 135.410156 207.894531 139.535156 C 209.855469 140.824219 211.546875 141.941406 212.425781 142.644531 L 225.953125 153.496094 L 245.949219 169.535156 C 249.066406 172.035156 252.132812 174.824219 255.382812 177.78125 C 265.226562 186.738281 275.40625 195.996094 288.679688 198.785156 C 300.476562 201.261719 311.023438 197.621094 319.183594 188.253906 C 326.664062 179.671875 330.851562 167.835938 333.050781 159.421875 C 334.390625 154.289062 335.3125 149.136719 335.785156 144.101562 C 336.5625 135.847656 336.441406 124.066406 331.449219 114.859375 C 330.511719 113.125 329.421875 111.527344 328.210938 110.109375 C 322.28125 103.164062 313.503906 100.222656 302.121094 101.375 C 289.5 102.652344 276.878906 103.929688 264.253906 105.207031 " fill-opacity="1" fill-rule="nonzero"/></g></g></g></g><g clip-path="url(#33369e1761)"><g clip-path="url(#f30195c4d8)"><g clip-path="url(#0fe0089838)"><g clip-path="url(#18a775bd0d)"><path fill="#c1e825" d="M 124.058594 257.34375 C 121.851562 257.019531 119.710938 256.4375 117.703125 255.613281 C 109.09375 252.082031 100.347656 242.433594 101.234375 233.007812 C 101.28125 232.507812 101.355469 232.003906 101.457031 231.511719 C 102.589844 225.925781 105.257812 220.742188 108.917969 214.6875 C 114.761719 205.003906 121.414062 195.6875 128.6875 186.988281 C 131.410156 183.730469 134.257812 180.703125 136.996094 177.480469 C 138.085938 176.199219 139.34375 175.070312 140.601562 173.957031 C 141.582031 173.097656 142.597656 172.21875 143.835938 171.808594 C 145.304688 171.324219 147 171.589844 148.253906 172.503906 C 150.824219 174.371094 151.496094 179.679688 152.273438 182.609375 C 153.277344 186.402344 154.078125 190.246094 154.703125 194.117188 C 156.132812 202.929688 156.691406 211.863281 156.804688 220.785156 C 156.898438 228.390625 156.046875 235.964844 155.433594 243.550781 C 155.257812 245.695312 155.070312 247.910156 154.085938 249.824219 C 152.914062 252.121094 150.738281 253.726562 148.539062 255.074219 C 141.25 259.539062 132.242188 258.542969 124.058594 257.34375 Z M 179.480469 254.496094 C 179.617188 253.023438 179.644531 251.472656 179.5625 249.890625 C 179.058594 240.570312 177.894531 231.132812 176.769531 222.007812 C 176.214844 217.511719 175.640625 212.867188 175.160156 208.332031 C 175.007812 206.90625 174.78125 203.457031 174.492188 199.097656 C 172.484375 168.882812 170 139.761719 165.4375 131.339844 C 164.363281 129.359375 163.054688 128.179688 161.433594 127.730469 C 159.207031 127.113281 155.761719 127.277344 151.996094 131.554688 C 150.058594 133.75 148.492188 136.476562 147.457031 138.28125 C 147.148438 138.820312 146.761719 139.488281 146.625 139.679688 C 144.957031 141.941406 143.585938 144.039062 142.257812 146.066406 C 140.589844 148.613281 139.015625 151.019531 136.964844 153.601562 L 122.765625 171.515625 L 109.855469 187.800781 C 106.785156 191.671875 103.40625 195.519531 99.832031 199.589844 C 92.789062 207.605469 85.507812 215.894531 80.394531 224.757812 C 78.261719 228.457031 77.003906 232.210938 76.652344 235.917969 C 76.210938 240.605469 77.207031 245.230469 79.609375 249.664062 C 82.992188 255.90625 89.074219 261.683594 97.691406 266.839844 C 104.015625 270.621094 111.761719 274.019531 118.949219 276.160156 C 126.25 278.332031 138.296875 280.128906 150.226562 278.65625 C 164.023438 276.949219 173.4375 271.316406 177.453125 262.371094 C 178.53125 259.96875 179.214844 257.320312 179.480469 254.496094 " fill-opacity="1" fill-rule="nonzero"/></g></g></g></g><g clip-path="url(#8b08962444)"><g clip-path="url(#80ee6512b8)"><g clip-path="url(#9c93c8cc49)"><g clip-path="url(#324b6afd0e)"><path fill="#c1e825" d="M 106.320312 141.984375 C 106.671875 143.007812 106.773438 144.179688 106.660156 145.410156 C 106.203125 150.238281 103.605469 154.933594 101.125 158.894531 C 99.109375 162.101562 96.769531 165.25 94.746094 167.90625 C 87.925781 176.863281 80.1875 187.015625 70.3125 193.902344 C 66.121094 196.828125 59.609375 200.199219 52.382812 199.65625 C 45.847656 199.167969 39.25 195.269531 34.730469 189.234375 C 32.257812 185.933594 29.972656 181.957031 28.226562 177.695312 C 24.304688 180.027344 20.429688 182.492188 16.75 185.203125 C 17.859375 187.695312 19.042969 190.117188 20.316406 192.464844 C 23.273438 197.921875 26.738281 203.097656 30.617188 207.851562 C 35.671875 214.046875 41.285156 218.847656 46.855469 221.734375 C 54.082031 225.476562 61.191406 226.132812 67.980469 223.679688 C 79.714844 219.441406 89.585938 206.757812 97.515625 196.570312 C 98.488281 195.324219 99.402344 194.144531 100.285156 193.03125 L 117.601562 171.1875 L 126.425781 160.058594 L 137.71875 145.8125 L 147.945312 132.914062 C 151.105469 128.925781 152.617188 126.046875 152.851562 123.570312 C 152.902344 123.035156 152.886719 122.519531 152.820312 122.023438 C 137.640625 129.355469 121.988281 135.703125 106.320312 141.984375 " fill-opacity="1" fill-rule="nonzero"/></g></g></g></g><g clip-path="url(#5ca5babef6)"><g clip-path="url(#590f61f895)"><g clip-path="url(#0759d25876)"><g clip-path="url(#730c1f87d0)"><path fill="#dbff80" d="M 33.207031 174.816406 C 35.476562 179.789062 39.4375 184.109375 43.929688 186.753906 C 48.546875 189.476562 53.480469 187.933594 57.152344 184.105469 C 60.035156 181.09375 61.746094 177.175781 63.378906 173.335938 C 64.667969 170.316406 65.96875 167.023438 65.1875 163.832031 C 64.828125 162.359375 64.039062 161.054688 63 159.953125 C 52.859375 164.484375 42.867188 169.351562 33.207031 174.816406 " fill-opacity="1" fill-rule="nonzero"/></g></g></g></g><g clip-path="url(#27d25f49c5)"><g clip-path="url(#c147c68782)"><g clip-path="url(#c20011a869)"><g clip-path="url(#e056d01a81)"><path fill="#dbff80" d="M 110.625 233.53125 C 111.707031 229.703125 114.476562 226.015625 117.074219 222.976562 C 122.277344 216.890625 129.597656 214.203125 136.878906 218.890625 C 142.476562 222.496094 147.976562 232.582031 148.183594 239.1875 C 148.46875 248.214844 139.207031 252.816406 131.382812 252.648438 C 124.988281 252.507812 116.699219 248.160156 112.597656 243.230469 C 109.988281 240.097656 109.707031 236.765625 110.625 233.53125 " fill-opacity="1" fill-rule="nonzero"/></g></g></g></g><g clip-path="url(#b9530b1be5)"><g clip-path="url(#57a60ecc70)"><g clip-path="url(#6af5185770)"><g clip-path="url(#26f064d3ed)"><path fill="#dbff80" d="M 208.007812 238.964844 C 207.804688 238.535156 207.625 238.089844 207.46875 237.625 C 206.078125 233.535156 206.394531 229.078125 206.96875 224.796875 C 207.324219 222.140625 207.777344 219.464844 208.851562 217.011719 C 209.921875 214.558594 211.679688 212.316406 214.085938 211.136719 C 217.199219 209.609375 220.914062 210.046875 224.265625 210.953125 C 228.847656 212.1875 233.210938 214.234375 237.101562 216.957031 C 247.773438 224.425781 241.289062 236.382812 232.171875 241.910156 C 231.488281 242.324219 230.789062 242.714844 230.074219 243.078125 C 226.332031 244.980469 220.609375 247.28125 216.386719 245.976562 C 212.632812 244.820312 209.636719 242.46875 208.007812 238.964844 " fill-opacity="1" fill-rule="nonzero"/></g></g></g></g><g clip-path="url(#83deff9bcf)"><g clip-path="url(#8ae93934dc)"><g clip-path="url(#bbdadf93d7)"><g clip-path="url(#b956aab453)"><path fill="#dbff80" d="M 285.191406 166.101562 C 282.742188 165.058594 280.554688 163.289062 278.910156 161.179688 C 275.535156 156.855469 269.773438 144.1875 275.257812 139.632812 C 277.011719 138.175781 279.371094 137.675781 281.449219 136.878906 C 283.949219 135.921875 286.515625 135.050781 289.183594 134.726562 C 295.828125 133.917969 303.007812 137.332031 303.738281 144.550781 C 304.328125 150.386719 301.652344 154.789062 299.304688 159.777344 C 297.441406 163.742188 295.019531 166.933594 290.285156 167.09375 C 288.527344 167.15625 286.800781 166.785156 285.191406 166.101562 " fill-opacity="1" fill-rule="nonzero"/></g></g></g></g><g clip-path="url(#239e911de0)"><g clip-path="url(#0cec35a9fe)"><g clip-path="url(#b800e9782c)"><g clip-path="url(#f5c904fc98)"><path fill="#dbff80" d="M 264.957031 49.597656 C 265.042969 51.234375 265.4375 52.8125 266.308594 54.195312 C 267.621094 56.277344 269.851562 57.644531 272.195312 58.386719 C 274.535156 59.132812 277.015625 59.316406 279.464844 59.5 C 281.777344 59.667969 284.132812 59.835938 286.398438 59.335938 C 287.898438 59.003906 289.425781 58.144531 290.714844 56.980469 C 292.433594 55.429688 293.746094 53.347656 294.050781 51.25 C 294.667969 47.011719 292.929688 41.550781 290.835938 37.964844 C 290.289062 37.023438 289.628906 36.078125 288.875 35.175781 C 280.839844 39.867188 272.914062 44.769531 264.957031 49.597656 " fill-opacity="1" fill-rule="nonzero"/></g></g></g></g></svg>