
<svg id="Lime" xmlns="http://www.w3.org/2000/svg" version="1.1" viewBox="0 0 485.5 387.3">
  <defs>
    <style>
      .cls-1 {
        fill: #ecf3d0;
      }

      .cls-1, .cls-2, .cls-3, .cls-4, .cls-5, .cls-6, .cls-7 {
        stroke-width: 0px;
      }

      .cls-2 {
        fill: none;
      }

      .cls-3 {
        fill: #d6e485;
      }

      .cls-4 {
        fill: #c1d835;
      }

      .cls-5 {
        fill: #dae57e;
      }

      .cls-6 {
        fill: #c9db3c;
      }

      .cls-7 {
        fill: #4c863d;
      }
<!-- add my custome css-->
      #Lime:hover{
        transform: rotate(360deg);
      }
      #Lime{
        transition: all 1s ease-in-out;
        transform-origin: center;
      }

      #Lime:hover #peel_white{
        fill:#5B5B5B;
      }

      #Lime:hover #lime_inner_top{
        fill:#A9A9A9;
      }

      #Lime:hover #peel_light_green{
        fill:#7E7E7E;
      }

      #Lime:hover #lime_inner_bottom{
        fill:#54614B;
      }

      #Lime:hover #tip_bottom{
        fill:#54614B;
      }


    </style>
    <script>
  const lime = document.querySelector("#Lime");
  lime.addEventListener("click", logTheId);

	function logTheId() {
 	 console.log(this.id+ " Flavour : Tangy and citrusy, with a refreshing zing.");
	}


</script>
  </defs>
  <path id="peel_dark_green" data-name="peel dark green" class="cls-7" d="M425.7,5.5c-10.4,3.6-20.4,8.5-30.1,13.8-19.7,10.8-38.6,23.1-58,34.5-18.5,10.9-36.1,23.2-53.4,35.8-17,12.4-33.5,25.4-51.7,36.2-36.7,21.7-76.7,36.4-116.1,52.5-26.3,10.7-52.7,21.9-77.4,36.2-10.5,6.1-21,12.7-29.8,21.2-2,1.9-3.9,3.9-5.7,6.1-1.7,2.1-3.2,4.3-3.6,7-.2,1.2.3,2.4.7,3.4,3.9,9,8,17.9,13.1,26.2,11.8,19.3,24.8,36,42.6,50.2,19,15.2,40.2,27.6,62.6,37.1,16.6,7,34,12.3,51.7,15.8,17.1,3.3,36.7,6.2,54.2,5.9,31.2-.4,59.9-8.4,89.8-17.8,13.7-4.3,27.6-8.7,40.2-15.6,5.9-3.2,11.5-6.9,16.9-10.8,30.1-21.7,55.7-49.4,74.8-81.2,20.8-34.4,33.1-69.8,37.5-109.8,2.8-26,1.3-52.4-4.6-77.9-3.3-14.6-8.1-28.7-13.2-42.8-3-8.1-6.1-16.2-10.2-23.8-1.3-2.4-2.6-5.4-5.1-6.8-3.6-2-8.5,0-12.2.8-4.4,1.1-8.8,2.4-13.1,3.9"/>
  <path id="peel_light_green" data-name="peel light green" class="cls-1" d="M425.7,5.5c-10.4,3.6-20.4,8.5-30.1,13.8-19.7,10.8-38.6,23.1-58,34.5-18.5,10.9-36.1,23.2-53.4,35.8-17,12.4-33.5,25.4-51.7,36.2-36.7,21.7-76.7,36.4-116.1,52.5-26.3,10.7-52.7,21.9-77.4,36.2-10.5,6.1-21,12.7-29.8,21.2-.6.5-1.1,1.1-1.7,1.7,3.4,6.8,7.1,13.3,11.1,19.5,21.6,34.2,51.6,62.9,86.3,83.5,17.6,10.4,36.4,18.8,55.9,24.7,43,13.1,89.4,11.4,132.6-1.7,45-13.7,86.4-39.7,116.8-74.1,9.3-10.5,17.6-21.9,24.8-33.9,24.4-40.6,35.7-88.5,33.8-135.7-1.4-34.8-10.9-68.6-26.8-99.5-3-5.7-6.1-11.3-9.4-16.7-2.3.7-4.7,1.4-6.9,2.2"/>
  <path id="peel_white" data-name="peel white" class="cls-3" d="M425.7,5.5c-.6.2-1.2.4-1.8.6,3,4.3,5.7,8.7,8.2,13.2,3.4,6.3,5.8,12.2,7.4,18.2,1.4,5.2,3.4,10.1,5.5,14.9,1.2,2.8,2.3,5.4,3.2,7.9,2.4,6.7,3.1,13.8,3.1,20.9,0,6.5-.8,12.8-1.1,19.3-.1,2.5-.2,4.9.2,7.3.6,3.8,2.8,7.2,3.9,10.9,1.1,4,2.6,7.9,3.7,11.9,2.3,8.8,3.5,17.2,2.4,26.3-.7,5.2-1.4,10.7-2.8,15.8-1.6,5.7-3.8,11.2-5.2,17-2.5,10.9-1.8,22.7-7,32.6-1.5,2.8-3.4,5.3-5.2,7.9-1.4,1.9-2.9,3.9-4.5,5.7-3.1,3.5-6.9,6.4-9.6,10.2-1.6,2.3-2.8,4.9-4.7,6.9-3.4,3.7-9.9,4-14.1,6.8-3.9,2.6-6.8,6.1-9.1,10.1-4.8,8-7,17.3-11.3,25.5-4.8,9.2-17.2,16.3-25.5,22.4-7.1,5.2-14.9,10.4-23.9,15.9-1.4.9-2.9,1.8-4.5,2.8-5.1,3.2-10.8,6.9-15.9,8.8-1.2.5-2.3.9-3.5,1.4-8.3,3.3-15.5,6.1-24,8-4.1,1-8,2.3-12.1,2.9-2.1.3-4.5,1.3-6.6,1.2-2.4-.1-5.2-1.3-7.5-1.9-4.3-1.2-8.5-2.3-12.9-3.3-6.6-1.5-13.5-1.4-19.9.7-1.9.6-3.8,1.4-5.8,1.9-2.2.5-4.6.4-6.6,1.6-1.6.9-2.6,1.8-4.5,2.1-5,.9-10.2.5-15.2,1.7-5.3,1.3-11,2.1-16.5,1.5-8.5-.9-17.2-3.5-24.9-6.9-6.8-3-15.6-6.4-24.2-9.3-4.5-1.5-8.5-3.9-12.7-6.6-8.1-5-15.6-10.9-21.9-17.9-6.3-7-9.9-16.6-17.7-22-9.7-6.8-20.9-10.4-30.5-17.5-9.5-7-17.3-16.1-24.1-25.7-4.5-6.3-8.5-13-12.2-19.8-.7-1.3-1.4-2.7-2.1-4-.8.7-1.5,1.4-2.3,2.1-1.1,1.1-2.3,2.3-3.5,3.6,1.5,3,3,5.9,4.5,8.9,2.6,5.2,5.3,10.3,8.6,15.1,5,7.2,11.4,13.3,16.5,20.4,5,6.9,8.9,15.1,16,20.2,1.7,1.2,3.5,1.9,5,3.3,1.6,1.5,2.9,3.4,4.4,4.9,3.2,3.3,6.7,6.3,10.6,8.7,10.7,6.8,16.7,16.3,29,20.3,11,3.6,18.4,11.3,29.5,15,7.5,2.5,16.2,5.8,23.3,8.9,7.6,3.4,15.7,5.6,23.9,7.1,8.2,1.4,16.5,1.6,24.4,3.9,8.1,2.4,19.5,2.8,27.8,1.4,3.7-.6,7.3-1.8,11.1-2.1,3.2-.2,6.5.3,9.7.4,6.7.3,13.4-1.1,19.9-2.7,6.4-1.5,12.6-3.9,18.9-5.3,6.5-1.5,13-3.1,19.4-5.1,12.7-4,25.1-9.2,36.5-16,1.5-.9,3-1.8,4.5-2.8,7.7-5,15.4-10.1,22.7-15.8,6.1-4.8,11.9-10.8,18.8-14.4,6.9-3.6,12.4-10.7,17.6-16.4,4.5-5,10.1-10.5,12.9-16.7,2.7-6,7.5-10.8,11.4-16.1,3.3-4.4,6.6-8.8,9.2-13.6,2.6-4.9,4.3-10,6.6-15.1,5.7-13,15.7-23.3,18.2-37.7,1.1-6.2,1.3-12.4,2.1-18.6,1.5-11.4,5.2-22.3,6.6-33.7,1-8.5.8-17.1.6-25.7-.2-6.1-.3-12.1-1.1-18.1-.7-5.5-1.9-10.9-3.2-16.3-3.4-13.8-7.6-27.4-12.6-40.8-1.5-4-2.6-8.2-4.4-12.1-1.5-3.4-3.6-6.3-4.8-9.8-2.6-7.2-6.9-14.1-11-20.9-4.4,1.1-8.7,2.4-12.9,3.8"/>
  <path id="tip_bottom" data-name="tip bottom" class="cls-3" d="M240.1,121.2c-2.5,1.6-4.9,3.1-7.5,4.6-6.5,3.9-13.1,7.5-19.8,11,.2.9.4,1.9.3,2.9,0,1.1-.2,2.2-.2,3.3s.6,2.3,1.5,2.7c1.7.8,3.7-1.4,5.4-.8.4.2.8.5,1.1.7,2.1,1.2,4.7-.3,6.6-2,1.9-1.7,3.8-3.8,6.2-3.9,1.5,0,2.9.7,4.4.9.5,0,.9,0,1.4,0,1.1-.2,2.1-.7,2.4-1.8.4-1.1,0-2.3.1-3.5.2-1.8,1.7-3,2.9-4.2,1.2-1.2,2.2-3.3,1.3-4.7-.5-.9-1.5-1.2-2.3-1.6-1.6-.8-3-2-4-3.6"/>
  <path id="tip_top" data-name="tip top" class="cls-4" d="M235.6,124c-1,.6-2,1.2-3,1.8-4.9,2.9-9.9,5.7-15,8.4,0,.3.1.7.1,1,0,.7,0,1.4,0,2.1,0,.7.4,1.4,1,1.6,1.1.4,2.3-1,3.4-.7.3,0,.5.3.7.4,1.4.7,3-.3,4.1-1.5,1.2-1.1,2.3-2.5,3.9-2.7.9,0,1.9.3,2.8.4.3,0,.6,0,.9,0,.7-.1,1.3-.5,1.5-1.2.2-.7,0-1.5,0-2.2.1-1.1,1-1.9,1.7-2.8.7-.8,1.3-2.1.7-3-.3-.5-1-.7-1.5-.9-.5-.2-.9-.5-1.4-.8"/>
  <path id="lime_inner_bottom" data-name="lime inner bottom" class="cls-6" d="M395.6,19.3c-19.7,10.8-38.6,23.1-58,34.5-18.5,10.9-36.1,23.2-53.4,35.8-10.8,7.9-21.3,16-32.3,23.6.4,1.2,1.4,2.2,3.1,3.1,3.3,1.7,17.4-2.1,21.5-2.5,19.1-1.8,38.1-3.7,57.2-5.5,21.8-2.1,107.9,1.1,100.3-40-3.2-17.3-10.3-33.7-18.7-49.1-1.3-2.5-2.8-5-4.3-7.6-5.2,2.4-10.4,5.1-15.4,7.8M264.2,337.9c-4.5-1.9-8.4-5.2-11.3-10.3-11.8-20.6-8.1-47.4-10.4-69.8-2.1-19.6-4.2-39.3-6.2-58.9-.8-7.2-8.6-42-3.4-46.1,6.4-5,33.3,21.7,38.8,26.1,15.4,12.3,30.7,24.6,46.1,36.9,14,11.2,28.2,22.3,42.1,33.7,36.5,30.2-4.4,61.3-33.3,74.7-16,7.4-44.2,21.4-62.3,13.6M431.5,129.8c12.1,14.2,10.9,40.4,5.4,61.3-6.6,25.4-22.1,55.5-53.3,48.9-22-4.6-38.1-24.6-54.9-38-14.9-11.9-29.8-23.9-44.7-35.9-6.1-4.9-31.5-18.6-29.6-28,2.2-10.7,31.4-6.6,38.8-7.3,19.1-1.9,38.2-3.9,57.3-5.8,16.8-1.7,33.7-3.4,50.5-5.1,14.5-1.5,24.3,2.6,30.5,9.9M229.7,327.5c-10.5,23.3-51.9,21.7-72.1,15.7-23.3-7-67-29.2-48.5-61.3,9.9-17.2,26.5-33.1,38.9-48.7,12-15.2,24.1-30.4,36.1-45.6,5.1-6.5,8.1-12.1,13-18.7,1.8-2.4,7.8-15.9,14.4-14.1,9.6,2.7,13.5,92,14.7,103.2,1.9,18.3,4.9,36.8,5.8,55.2.3,5.6-.6,10.3-2.4,14.3M116.5,178.3c-26.3,10.7-52.7,21.9-77.4,36.2-5.1,2.9-10.1,6-15,9.3,4.7,10.6,10.6,20.6,18.2,30,11.3,13.8,27.5,25.6,44.3,19.6,16.1-5.8,30.4-26.1,40.9-39.3,11.6-14.7,23.2-29.3,34.8-44,9.6-12.1,19.1-24.1,28.7-36.2,3.2-4,4.9-6.9,5.3-9-26.1,12.3-53.1,22.5-79.8,33.4"/>
  <path id="lime_inner_second" data-name="lime inner second" class="cls-2" d="M139.4,169c.5,1.4.6,2.9.5,4.6-.6,6.4-4.1,12.7-7.4,18-2.7,4.3-5.8,8.5-8.5,12-9.1,11.9-19.4,25.5-32.6,34.7-5.6,3.9-14.3,8.4-23.9,7.7-8.7-.7-17.5-5.8-23.5-13.9-3.3-4.4-6.3-9.7-8.7-15.4-5.2,3.1-10.4,6.4-15.3,10,1.5,3.3,3.1,6.6,4.8,9.7,3.9,7.3,8.6,14.2,13.7,20.5,6.7,8.3,14.2,14.7,21.7,18.5,9.6,5,19.1,5.9,28.2,2.6,15.6-5.7,28.8-22.6,39.4-36.1,1.3-1.7,2.5-3.2,3.7-4.7l23.1-29.1,11.8-14.8,15.1-19,13.6-17.2c4.2-5.3,6.2-9.2,6.5-12.5,0-.7,0-1.4,0-2.1-20.2,9.8-41.1,18.2-62,26.6M262.3,208.7c4.2,1.3,9.3,4.6,13.7,7.4,1.2.8,2.4,1.5,3.5,2.2,4,2.5,7.8,5.3,11.7,8.3,1.3.9,2.5,1.9,3.8,2.8,15,11,26.5,23.6,34.4,37.6,2,3.5,4.3,8.1,4.9,12.9.1,1.1.1,2.2,0,3.2-1,10.1-12.1,18.3-16.8,21.3-6.9,4.4-14.3,7.9-22,10.4-2.4.8-4.6,1.3-6.6,1.7-4.5.9-8.2.8-11.5-.1-9.6-2.7-12.4-15.7-14.6-26.1-.2-.8-.3-1.6-.5-2.3-2.3-10.4-4.2-21.1-5.7-31.6-1.9-14.3-2.9-25.7-2.2-38,0-.9,0-1.6.2-2.2.4-3.9,1.2-6.2,2.6-7.2,1.2-.8,3.1-.9,5.1-.3ZM320.8,212l-24.4-19.6-21.6-17.3c-.9-.7-2.7-2.3-4.8-4.2-21-18.9-33-27.5-40.2-22-2.7,2.1-3.3,5.7-3.6,8.2-.8,8.5,1.9,24,3.7,34.3.6,3.5,1.2,6.6,1.3,8.1l3.6,34.1,2.6,24.8c.7,6.2.8,12.7,1,19.5.5,17.4,1,35.4,9.4,51,.2.4.4.8.7,1.2,3.3,5.8,7.9,9.9,13.6,12.4,8.7,3.7,19.7,3.6,33.7-.4,11.2-3.2,22.3-8.4,30.4-12.2.8-.4,1.6-.7,2.3-1.1,7-3.2,20.4-10.2,31.8-20.3,11.4-10.1,17.7-20.5,18.7-30.8.6-6-.7-11.9-3.8-17.6-2.7-5-6.8-9.8-12.3-14.3-9.3-7.7-18.8-15.2-28.1-22.6-4.6-3.7-9.4-7.5-14.1-11.2M395.6,19.3c-1.3.7-2.6,1.4-3.9,2.2,5.8,8.8,8.6,19.5,7.7,29.6-.3,3.5-1.1,6.9-2.3,10.1-1.8,4.5-4.8,8.8-8.7,12.2-8.8,7.8-19.9,9.8-31.6,11.9-1.2.2-2.3.4-3.5.6-6.4,1.2-13.4,1.9-21.5,2.2-2,0-4.1.2-6,.4-7.5.6-14.6,1.1-20.2-2.3-2-1.2-4.5-3.2-5.7-6.1-.2-.5-.3-.9-.4-1.4-5.1,3.6-10.3,7.3-15.3,11-12.1,8.8-24,18-36.4,26.4,0,0,0,0,0,0,1,1.9,2.7,3.4,4.9,4.6,3.6,1.9,9.6.9,19-1,2.2-.4,4.3-.9,5.3-.9l57.2-5.5c3-.3,7.4-.5,12.6-.7,14.5-.6,36.4-1.6,54.8-6,23.6-5.7,36.3-16,37.6-30.6.3-2.7.1-5.6-.4-8.5-2.9-15.7-9-31.8-19.2-50.6-1.3-2.4-2.6-4.8-4.1-7.3-6.8,2.9-13.5,6.3-20,9.9M386.1,144.7c4.2.4,8.4.9,12.2,2.2,6.6,2.3,11.6,8.2,13.9,14.9,3.3,9.5,2.1,21.2-2.1,30.3-1.7,3.8-4,7-6.7,10.2-2,2.4-3.5,5.7-5.8,7.9-1.2,1.1-2.7,1.8-4.2,2.3-15.3,5.8-29.6-1-41.5-11-1.9-1.6-3.7-3.4-5.6-5.2-2.2-2.1-4.4-4.2-6.9-6.3l-14.1-11.5c-2-1.6-4.2-3.3-6.2-4.8-7.2-5.4-14.6-10.9-17.5-18.4-.4-1.1-.6-2.3-.5-3.2,0-.5.2-.9.3-1.3,1-2.1,4.7-3.3,8.4-4.2.6-.1,1.2-.3,1.8-.4,9-1.9,18.1-2.1,27.7-2.2,3.5,0,7.1-.1,10.6-.3h1.1c8.3-.4,16.6-.8,24.9.2,3.2.4,6.6.6,10,.8ZM350,120l-36.8,3.7-20.6,2.1c-1.4.1-4.3,0-7.4,0-6-.2-13.4-.4-19.9.5-9.3,1.3-14.7,5-15.9,10.8,0,.3-.1.7-.2,1-.2,2.3.3,4.7,1.7,7.1,4.1,7.5,15.5,15.1,23.9,20.6,2.6,1.7,4.9,3.2,6,4.1l18,14.5,26.7,21.4c4.2,3.3,8.2,7.1,12.6,11,13.1,11.9,26.7,24.3,44.4,28,15.7,3.3,29.8-1.6,40.7-14,10-11.4,15.6-27.2,18.5-38.4,1.8-6.8,3-13.7,3.6-20.4,1-11,.9-26.7-5.8-39-1.3-2.3-2.7-4.4-4.3-6.3-7.9-9.3-19.6-13.2-34.8-11.6-16.8,1.7-33.7,3.4-50.5,5.1M163,322.9c-2.9-.4-5.8-1.2-8.5-2.3-11.5-4.7-23.1-17.6-22-30.1,0-.7.2-1.3.3-2,1.5-7.4,5.1-14.4,9.9-22.4,7.8-12.9,16.7-25.3,26.4-36.9,3.6-4.3,7.4-8.4,11.1-12.7,1.5-1.7,3.1-3.2,4.8-4.7,1.3-1.1,2.7-2.3,4.3-2.9,2-.6,4.2-.3,5.9.9,3.4,2.5,4.3,9.6,5.4,13.5,1.3,5.1,2.4,10.2,3.2,15.3,1.9,11.8,2.7,23.7,2.8,35.6.1,10.1-1,20.2-1.8,30.4-.2,2.9-.5,5.8-1.8,8.4-1.6,3.1-4.5,5.2-7.4,7-9.7,6-21.7,4.6-32.6,3ZM236.9,319.1c.2-2,.2-4,.1-6.1-.7-12.4-2.2-25-3.7-37.2-.7-6-1.5-12.2-2.1-18.2-.2-1.9-.5-6.5-.9-12.3-2.7-40.3-6-79.1-12.1-90.3-1.4-2.6-3.2-4.2-5.3-4.8-3-.8-7.6-.6-12.6,5.1-2.6,2.9-4.7,6.6-6.1,9-.4.7-.9,1.6-1.1,1.9-2.2,3-4.1,5.8-5.8,8.5-2.2,3.4-4.3,6.6-7.1,10l-18.9,23.9-17.2,21.7c-4.1,5.2-8.6,10.3-13.4,15.7-9.4,10.7-19.1,21.7-25.9,33.6-2.8,4.9-4.5,9.9-5,14.9-.6,6.3.7,12.4,3.9,18.3,4.5,8.3,12.6,16,24.1,22.9,8.4,5,18.8,9.6,28.3,12.4,9.7,2.9,25.8,5.3,41.7,3.3,18.4-2.3,30.9-9.8,36.3-21.7,1.4-3.2,2.3-6.7,2.7-10.5"/>
  <path id="lime_inner_top" data-name="lime inner top" class="cls-5" d="M41.9,212.8c3,6.6,8.3,12.4,14.3,15.9,6.2,3.6,12.7,1.6,17.6-3.5,3.8-4,6.1-9.2,8.3-14.4,1.7-4,3.5-8.4,2.4-12.7-.5-2-1.5-3.7-2.9-5.2-13.5,6-26.8,12.5-39.7,19.8M145.1,291.1c1.4-5.1,5.1-10,8.6-14.1,6.9-8.1,16.7-11.7,26.4-5.4,7.5,4.8,14.8,18.3,15.1,27.1.4,12-12,18.2-22.4,17.9-8.5-.2-19.6-6-25-12.6-3.5-4.2-3.9-8.6-2.6-12.9M275,298.4c-.3-.6-.5-1.2-.7-1.8-1.9-5.5-1.4-11.4-.7-17.1.5-3.5,1.1-7.1,2.5-10.4,1.4-3.3,3.8-6.3,7-7.8,4.2-2,9.1-1.5,13.6-.2,6.1,1.6,11.9,4.4,17.1,8,14.2,10,5.6,25.9-6.6,33.3-.9.6-1.8,1.1-2.8,1.6-5,2.5-12.6,5.6-18.3,3.9-5-1.5-9-4.7-11.2-9.3M377.9,201.2c-3.3-1.4-6.2-3.8-8.4-6.6-4.5-5.8-12.2-22.7-4.9-28.7,2.3-1.9,5.5-2.6,8.3-3.7,3.3-1.3,6.8-2.4,10.3-2.9,8.9-1.1,18.4,3.5,19.4,13.1.8,7.8-2.8,13.7-5.9,20.3-2.5,5.3-5.7,9.5-12,9.8-2.3,0-4.6-.4-6.8-1.3M350.9,45.9c.1,2.2.6,4.3,1.8,6.1,1.8,2.8,4.7,4.6,7.8,5.6,3.1,1,6.4,1.2,9.7,1.5,3.1.2,6.2.4,9.2-.2,2-.4,4-1.6,5.8-3.1,2.3-2.1,4-4.8,4.4-7.6.8-5.7-1.5-12.9-4.3-17.7-.7-1.3-1.6-2.5-2.6-3.7-10.7,6.3-21.3,12.8-31.9,19.2"/>
</svg>