<svg id="orange" width="564" height="662" viewBox="0 0 564 662" fill="none" xmlns="http://www.w3.org/2000/svg">
<g id="Group 1">

<style>
    #orange:hover #leaf-top {
        fill: ##A9A9A9;
    }

    #orange:hover #leaf-bottom {
        fill: #7E7E7E;
    }
</style>
<ellipse id="Ellipse 8" cx="262" cy="399.898" rx="262" ry="261.5" fill="#FF7A00"/>
<ellipse id="Ellipse 9" cx="247" cy="381.898" rx="247" ry="244.5" fill="#FF983A"/>
<path id="Ellipse 13" d="M119.792 250.547C91.598 277.799 75.5435 310.929 67.8667 302.987C60.1898 295.045 69.9131 253.248 98.1068 225.995C126.301 198.743 162.257 195.894 169.934 203.835C177.611 211.777 147.985 223.294 119.792 250.547Z" fill="#FCCEA3"/>
<ellipse id="Ellipse 14" cx="61.346" cy="327.675" rx="7.5" ry="8.5" transform="rotate(14.1117 61.346 327.675)" fill="#FCCEA3"/>
<path id="leaf-top" d="M466.542 139.878C416.025 160.063 308.901 176.133 277.924 159.246C288.614 125.36 370.483 61.0827 421 40.898C471.517 20.7134 534.293 27.3703 544.437 52.7569C554.58 78.1435 517.058 119.694 466.542 139.878Z" fill="#02B309"/>
<path id="leaf-bottom" d="M466.672 140.174C416.155 160.359 309.032 176.429 278.054 159.541C318.129 132.693 357.087 117.714 407.629 92.6945C458.172 67.6747 534.424 27.666 544.567 53.0526C554.711 78.4392 517.189 119.989 466.672 140.174Z" fill="#017405"/>
<path id="Rectangle 17" d="M260.926 96.416L301.49 101.216L284.612 180.265L257.899 177.104L260.926 96.416Z" fill="#843F21"/>
<ellipse id="Ellipse 12" cx="281.164" cy="98.0756" rx="20.6384" ry="11.3303" transform="rotate(6.74874 281.164 98.0756)" fill="#9E502E"/>
</g>
</svg>
