<svg id="peach" width="662" height="698" viewBox="0 0 662 698" fill="none" xmlns="http://www.w3.org/2000/svg">
<g id="Group 1">

<style>
   #peach {
    transition: transform 0.5s ease-in-out;
  }

  #peach:hover {
    transform: scale(1.1);
  }

  #peach:hover #leaf1 {
    fill: #7E7E7E;
  }

   #peach:hover #leaf2 {
    fill: #A9A9A9;
  }

  #peach:hover #glow_dot {
    fill: #fff;
  }

  #peach:hover #glow {
    fill: #fff;
  }

   #peach:hover #glow {
    fill: #fff;
  }

   #peach:hover #peach-body {
    fill: #E98793
   }
</style>
<path id="leaf1" d="M516.65 147.12C476.541 183.871 417.268 190.608 382.32 185.771C380.331 150.295 388.715 91.4428 428.825 54.6922C468.934 17.9417 513.155 28.8135 531.624 48.9699C550.093 69.1264 556.759 110.37 516.65 147.12Z" fill="#02B309"/>
<path id="leaf2" d="M374.994 81.2795C394.664 121.83 392.811 161.096 379.619 186.151C352.277 178.049 319.895 150.393 307.186 109.64C294.477 68.888 293.247 36.577 313.514 28.1004C333.781 19.6237 355.324 40.7288 374.994 81.2795Z" fill="#008C06"/>
<path id="Rectangle 16" d="M368.774 139L409.49 143.818L397.268 183.281L370.455 180.108L368.774 139Z" fill="#843F21"/>
<ellipse id="Ellipse 7" cx="389.164" cy="140.677" rx="20.6384" ry="11.3303" transform="rotate(6.74874 389.164 140.677)" fill="#9E502E"/>
<path id="peach-body" d="M606.638 432.008C559.604 565.777 424.88 654.608 270.715 630.05C120.722 576.596 46.9874 437.182 68.3867 296.692C89.786 156.201 236.731 57.7237 384.032 179.306C559.204 132.607 658.218 285.31 606.638 432.008Z" fill="#E98793"/>
<path id="peach-center" d="M406.5 406C381.724 504.554 305.713 603.218 291.251 599.583C276.789 595.947 349.086 492.575 373.863 394.021C398.639 295.468 375.046 205.109 389.508 208.744C403.969 212.38 431.276 307.446 406.5 406Z" fill="#D84456"/>
<path id="glow" d="M169.792 223.148C141.598 250.401 125.543 283.531 117.867 275.589C110.19 267.647 119.913 225.85 148.107 198.597C176.301 171.344 212.257 168.495 219.934 176.437C227.611 184.379 197.985 195.895 169.792 223.148Z" fill="#FACCD2"/>
<ellipse id="glow_dot" cx="121.346" cy="305.276" rx="7.5" ry="8.5" transform="rotate(14.1117 121.346 305.276)" fill="#FACCD2"/>
</g>
</svg>
