<svg width="462" height="747" viewBox="0 0 462 747" fill="none" xmlns="http://www.w3.org/2000/svg">
<g id="Group 7">
<g id="Group 3">
<g id="Polygon 1">
<path d="M224.504 0L291.62 265.25H157.386L224.504 0Z" fill="#017405"/>
<path d="M333.502 52L358.738 299H224.504L333.502 52Z" fill="#017405"/>
<path d="M123.502 52L224.502 299H90.2682L123.502 52Z" fill="#017405"/>
<path d="M440.002 151L358.736 299H224.502L440.002 151Z" fill="#017405"/>
<path d="M10 151L224.5 299H90.2661L10 151Z" fill="#017405"/>
</g>
</g>
<g id="Group 5">
<g id="Group 4">
<path id="body-shade" d="M462 551.899C462 708 397 746.399 226 746.399C55 746.399 -0.00024414 697 8.12784e-10 551.899C18 413.5 86.5002 249 226 249C372.609 249 442 389 462 551.899Z" fill="#D48C00"/>
<path id="pineapple-body" d="M448 534.175C448 687.326 384.97 725 219.152 725C53.3333 725 -0.000236742 676.534 7.88153e-10 534.175C17.4545 398.391 83.879 237 219.152 237C361.318 237 428.606 374.354 448 534.175Z" fill="#FFB320"/>
<line id="Line 1" x1="117.234" y1="269.147" x2="413.234" y2="697.147" stroke="#9E502E" stroke-width="3"/>
<line id="Line 8" x1="318.888" y1="265.646" x2="97.3536" y2="729.646" stroke="#9E502E" stroke-width="3"/>
<path id="Line 4" d="M70.3369 332L348 732" stroke="#9E502E" stroke-width="3"/>
<path id="Line 9" d="M256.188 244.693L43 698" stroke="#9E502E" stroke-width="3"/>
<path id="Line 5" d="M37.0581 401.577L269.887 742.67" stroke="#9E502E" stroke-width="3"/>
<path id="Line 10" d="M185.072 237.548L7.9998 608.556" stroke="#9E502E" stroke-width="3"/>
<line id="Line 6" x1="11.2328" y1="479.145" x2="194.233" y2="743.145" stroke="#9E502E" stroke-width="3"/>
<line id="Line 7" x1="1.21813" y1="567.125" x2="121.218" y2="734.125" stroke="#9E502E" stroke-width="3"/>
<line id="Line 2" x1="178.221" y1="241.128" x2="453.221" y2="626.128" stroke="#9E502E" stroke-width="3"/>
<line id="Line 13" x1="373.196" y1="317.623" x2="178.365" y2="744.623" stroke="#9E502E" stroke-width="3"/>
<line id="Line 3" x1="257.24" y1="243.155" x2="458.24" y2="538.155" stroke="#9E502E" stroke-width="3"/>
<line id="Line 14" x1="417.355" y1="392.643" x2="250.355" y2="744.643" stroke="#9E502E" stroke-width="3"/>
<line id="Line 15" x1="450.344" y1="495.666" x2="330.344" y2="737.666" stroke="#9E502E" stroke-width="3"/>
</g>
</g>
<g id="Group 6">
<path id="Ellipse 17" d="M211 457.509C211 509.509 174.511 529.009 129.5 529.009C84.4888 529.009 48 507.009 48 457.509C48 426.581 84.4888 415.509 129.5 415.509C174.511 415.509 211 426.581 211 457.509Z" fill="#141E0C"/>
<path id="Ellipse 18" d="M412 457.509C412 509.509 375.511 529.009 330.5 529.009C285.489 529.009 249 507.009 249 457.509C249 426.581 285.489 415.509 330.5 415.509C375.511 415.509 412 426.581 412 457.509Z" fill="#141E0C"/>
<rect id="joint" x="178" y="435.509" width="104" height="27" fill="#141E0C"/>
<path id="glow1" d="M174.138 423.903C174.34 423.404 174.901 423.155 175.407 423.339L184.515 426.651C185.051 426.846 185.316 427.45 185.096 427.976L143.841 526.769C143.693 527.122 143.357 527.36 142.975 527.382L133.576 527.919C132.843 527.961 132.317 527.226 132.592 526.546L174.138 423.903Z" fill="#949494"/>
<path id="glow2" d="M375.138 423.903C375.34 423.404 375.901 423.155 376.407 423.339L385.515 426.651C386.051 426.846 386.316 427.45 386.096 427.976L344.841 526.769C344.693 527.122 344.357 527.36 343.975 527.382L334.576 527.919C333.843 527.961 333.317 527.226 333.592 526.546L375.138 423.903Z" fill="#949494"/>
<path id="glow3" d="M119.741 418.617C119.898 418.248 120.26 418.009 120.662 418.009L131.479 418.009C132.198 418.009 132.682 418.745 132.397 419.405L89.6853 518.358C89.4619 518.875 88.8551 519.106 88.3443 518.868L79.8751 514.916C79.3868 514.689 79.1668 514.115 79.3775 513.619L119.741 418.617Z" fill="#949494"/>
<path id="glow4" d="M320.741 418.617C320.898 418.248 321.26 418.009 321.662 418.009L332.479 418.009C333.198 418.009 333.682 418.745 333.397 419.405L290.685 518.358C290.462 518.875 289.855 519.106 289.344 518.868L280.875 514.916C280.387 514.689 280.167 514.115 280.377 513.619L320.741 418.617Z" fill="#949494"/>
</g>
</g>
</svg>
